G04 #@! TF.GenerationSoftware,KiCad,Pcbnew,(5.1.2)-2*
G04 #@! TF.CreationDate,2019-10-27T20:23:59-05:00*
G04 #@! TF.ProjectId,ESP_board,4553505f-626f-4617-9264-2e6b69636164,rev?*
G04 #@! TF.SameCoordinates,Original*
G04 #@! TF.FileFunction,Copper,L2,Bot*
G04 #@! TF.FilePolarity,Positive*
%FSLAX46Y46*%
G04 Gerber Fmt 4.6, Leading zero omitted, Abs format (unit mm)*
G04 Created by KiCad (PCBNEW (5.1.2)-2) date 2019-10-27 20:23:59*
%MOMM*%
%LPD*%
G04 APERTURE LIST*
%ADD10R,1.700000X1.700000*%
%ADD11O,1.700000X1.700000*%
%ADD12C,4.064000*%
%ADD13R,1.800000X1.800000*%
%ADD14C,1.800000*%
%ADD15R,3.000000X3.000000*%
%ADD16C,3.000000*%
%ADD17C,0.254000*%
G04 APERTURE END LIST*
D10*
X116205000Y-112395000D03*
D11*
X118745000Y-112395000D03*
X121285000Y-112395000D03*
X123825000Y-112395000D03*
X126365000Y-112395000D03*
X128905000Y-112395000D03*
X131445000Y-112395000D03*
X133985000Y-112395000D03*
X136525000Y-112395000D03*
X139065000Y-112395000D03*
D12*
X155575000Y-73025000D03*
X92710000Y-116840000D03*
X92710000Y-73025000D03*
D10*
X93345000Y-79375000D03*
D11*
X93345000Y-81915000D03*
X93345000Y-84455000D03*
D13*
X153670000Y-115570000D03*
D14*
X153670000Y-113030000D03*
D13*
X153670000Y-108585000D03*
D14*
X153670000Y-106045000D03*
D10*
X104140000Y-73025000D03*
D11*
X106680000Y-73025000D03*
X109220000Y-73025000D03*
X111760000Y-73025000D03*
X114300000Y-73025000D03*
X116840000Y-73025000D03*
X119380000Y-73025000D03*
X121920000Y-73025000D03*
X124460000Y-73025000D03*
X127000000Y-73025000D03*
X129540000Y-73025000D03*
X132080000Y-73000000D03*
X134620000Y-73025000D03*
X137160000Y-73025000D03*
X139700000Y-73025000D03*
X142240000Y-73025000D03*
X144780000Y-73025000D03*
X147320000Y-73025000D03*
X149860000Y-73025000D03*
D10*
X104140000Y-98520000D03*
D11*
X106680000Y-98520000D03*
X109220000Y-98520000D03*
X111760000Y-98520000D03*
X114300000Y-98520000D03*
X116840000Y-98520000D03*
X119380000Y-98520000D03*
X121920000Y-98520000D03*
X124460000Y-98520000D03*
X127000000Y-98520000D03*
X129540000Y-98520000D03*
X132080000Y-98520000D03*
X134620000Y-98520000D03*
X137160000Y-98520000D03*
X139700000Y-98520000D03*
X142240000Y-98520000D03*
X144780000Y-98520000D03*
X147320000Y-98520000D03*
X149860000Y-98520000D03*
D15*
X93345000Y-99060000D03*
D16*
X93345000Y-93980000D03*
D17*
G36*
X158623000Y-120523000D02*
G01*
X89027000Y-120523000D01*
X89027000Y-116577323D01*
X90043000Y-116577323D01*
X90043000Y-117102677D01*
X90145492Y-117617935D01*
X90346536Y-118103298D01*
X90638406Y-118540113D01*
X91009887Y-118911594D01*
X91446702Y-119203464D01*
X91932065Y-119404508D01*
X92447323Y-119507000D01*
X92972677Y-119507000D01*
X93487935Y-119404508D01*
X93973298Y-119203464D01*
X94410113Y-118911594D01*
X94781594Y-118540113D01*
X95073464Y-118103298D01*
X95274508Y-117617935D01*
X95377000Y-117102677D01*
X95377000Y-116577323D01*
X95355652Y-116470000D01*
X152131928Y-116470000D01*
X152144188Y-116594482D01*
X152180498Y-116714180D01*
X152239463Y-116824494D01*
X152318815Y-116921185D01*
X152415506Y-117000537D01*
X152525820Y-117059502D01*
X152645518Y-117095812D01*
X152770000Y-117108072D01*
X153384250Y-117105000D01*
X153543000Y-116946250D01*
X153543000Y-115697000D01*
X153797000Y-115697000D01*
X153797000Y-116946250D01*
X153955750Y-117105000D01*
X154570000Y-117108072D01*
X154694482Y-117095812D01*
X154814180Y-117059502D01*
X154924494Y-117000537D01*
X155021185Y-116921185D01*
X155100537Y-116824494D01*
X155159502Y-116714180D01*
X155195812Y-116594482D01*
X155208072Y-116470000D01*
X155205000Y-115855750D01*
X155046250Y-115697000D01*
X153797000Y-115697000D01*
X153543000Y-115697000D01*
X152293750Y-115697000D01*
X152135000Y-115855750D01*
X152131928Y-116470000D01*
X95355652Y-116470000D01*
X95274508Y-116062065D01*
X95073464Y-115576702D01*
X94781594Y-115139887D01*
X94410113Y-114768406D01*
X94262838Y-114670000D01*
X152131928Y-114670000D01*
X152135000Y-115284250D01*
X152293750Y-115443000D01*
X153543000Y-115443000D01*
X153543000Y-115423000D01*
X153797000Y-115423000D01*
X153797000Y-115443000D01*
X155046250Y-115443000D01*
X155205000Y-115284250D01*
X155208072Y-114670000D01*
X155195812Y-114545518D01*
X155159502Y-114425820D01*
X155100537Y-114315506D01*
X155021185Y-114218815D01*
X154924494Y-114139463D01*
X154814180Y-114080498D01*
X154795873Y-114074944D01*
X154862312Y-114008505D01*
X155030299Y-113757095D01*
X155146011Y-113477743D01*
X155205000Y-113181184D01*
X155205000Y-112878816D01*
X155146011Y-112582257D01*
X155030299Y-112302905D01*
X154862312Y-112051495D01*
X154648505Y-111837688D01*
X154397095Y-111669701D01*
X154117743Y-111553989D01*
X153821184Y-111495000D01*
X153518816Y-111495000D01*
X153222257Y-111553989D01*
X152942905Y-111669701D01*
X152691495Y-111837688D01*
X152477688Y-112051495D01*
X152309701Y-112302905D01*
X152193989Y-112582257D01*
X152135000Y-112878816D01*
X152135000Y-113181184D01*
X152193989Y-113477743D01*
X152309701Y-113757095D01*
X152477688Y-114008505D01*
X152544127Y-114074944D01*
X152525820Y-114080498D01*
X152415506Y-114139463D01*
X152318815Y-114218815D01*
X152239463Y-114315506D01*
X152180498Y-114425820D01*
X152144188Y-114545518D01*
X152131928Y-114670000D01*
X94262838Y-114670000D01*
X93973298Y-114476536D01*
X93487935Y-114275492D01*
X92972677Y-114173000D01*
X92447323Y-114173000D01*
X91932065Y-114275492D01*
X91446702Y-114476536D01*
X91009887Y-114768406D01*
X90638406Y-115139887D01*
X90346536Y-115576702D01*
X90145492Y-116062065D01*
X90043000Y-116577323D01*
X89027000Y-116577323D01*
X89027000Y-111545000D01*
X114716928Y-111545000D01*
X114716928Y-113245000D01*
X114729188Y-113369482D01*
X114765498Y-113489180D01*
X114824463Y-113599494D01*
X114903815Y-113696185D01*
X115000506Y-113775537D01*
X115110820Y-113834502D01*
X115230518Y-113870812D01*
X115355000Y-113883072D01*
X117055000Y-113883072D01*
X117179482Y-113870812D01*
X117299180Y-113834502D01*
X117409494Y-113775537D01*
X117506185Y-113696185D01*
X117585537Y-113599494D01*
X117644502Y-113489180D01*
X117665393Y-113420313D01*
X117689866Y-113450134D01*
X117915986Y-113635706D01*
X118173966Y-113773599D01*
X118453889Y-113858513D01*
X118672050Y-113880000D01*
X118817950Y-113880000D01*
X119036111Y-113858513D01*
X119316034Y-113773599D01*
X119574014Y-113635706D01*
X119800134Y-113450134D01*
X119985706Y-113224014D01*
X120020201Y-113159477D01*
X120089822Y-113276355D01*
X120284731Y-113492588D01*
X120518080Y-113666641D01*
X120780901Y-113791825D01*
X120928110Y-113836476D01*
X121158000Y-113715155D01*
X121158000Y-112522000D01*
X121138000Y-112522000D01*
X121138000Y-112268000D01*
X121158000Y-112268000D01*
X121158000Y-111074845D01*
X121412000Y-111074845D01*
X121412000Y-112268000D01*
X121432000Y-112268000D01*
X121432000Y-112522000D01*
X121412000Y-112522000D01*
X121412000Y-113715155D01*
X121641890Y-113836476D01*
X121789099Y-113791825D01*
X122051920Y-113666641D01*
X122285269Y-113492588D01*
X122480178Y-113276355D01*
X122549799Y-113159477D01*
X122584294Y-113224014D01*
X122769866Y-113450134D01*
X122995986Y-113635706D01*
X123253966Y-113773599D01*
X123533889Y-113858513D01*
X123752050Y-113880000D01*
X123897950Y-113880000D01*
X124116111Y-113858513D01*
X124396034Y-113773599D01*
X124654014Y-113635706D01*
X124880134Y-113450134D01*
X125065706Y-113224014D01*
X125095000Y-113169209D01*
X125124294Y-113224014D01*
X125309866Y-113450134D01*
X125535986Y-113635706D01*
X125793966Y-113773599D01*
X126073889Y-113858513D01*
X126292050Y-113880000D01*
X126437950Y-113880000D01*
X126656111Y-113858513D01*
X126936034Y-113773599D01*
X127194014Y-113635706D01*
X127420134Y-113450134D01*
X127605706Y-113224014D01*
X127635000Y-113169209D01*
X127664294Y-113224014D01*
X127849866Y-113450134D01*
X128075986Y-113635706D01*
X128333966Y-113773599D01*
X128613889Y-113858513D01*
X128832050Y-113880000D01*
X128977950Y-113880000D01*
X129196111Y-113858513D01*
X129476034Y-113773599D01*
X129734014Y-113635706D01*
X129960134Y-113450134D01*
X130145706Y-113224014D01*
X130175000Y-113169209D01*
X130204294Y-113224014D01*
X130389866Y-113450134D01*
X130615986Y-113635706D01*
X130873966Y-113773599D01*
X131153889Y-113858513D01*
X131372050Y-113880000D01*
X131517950Y-113880000D01*
X131736111Y-113858513D01*
X132016034Y-113773599D01*
X132274014Y-113635706D01*
X132500134Y-113450134D01*
X132685706Y-113224014D01*
X132715000Y-113169209D01*
X132744294Y-113224014D01*
X132929866Y-113450134D01*
X133155986Y-113635706D01*
X133413966Y-113773599D01*
X133693889Y-113858513D01*
X133912050Y-113880000D01*
X134057950Y-113880000D01*
X134276111Y-113858513D01*
X134556034Y-113773599D01*
X134814014Y-113635706D01*
X135040134Y-113450134D01*
X135225706Y-113224014D01*
X135255000Y-113169209D01*
X135284294Y-113224014D01*
X135469866Y-113450134D01*
X135695986Y-113635706D01*
X135953966Y-113773599D01*
X136233889Y-113858513D01*
X136452050Y-113880000D01*
X136597950Y-113880000D01*
X136816111Y-113858513D01*
X137096034Y-113773599D01*
X137354014Y-113635706D01*
X137580134Y-113450134D01*
X137765706Y-113224014D01*
X137800201Y-113159477D01*
X137869822Y-113276355D01*
X138064731Y-113492588D01*
X138298080Y-113666641D01*
X138560901Y-113791825D01*
X138708110Y-113836476D01*
X138938000Y-113715155D01*
X138938000Y-112522000D01*
X139192000Y-112522000D01*
X139192000Y-113715155D01*
X139421890Y-113836476D01*
X139569099Y-113791825D01*
X139831920Y-113666641D01*
X140065269Y-113492588D01*
X140260178Y-113276355D01*
X140409157Y-113026252D01*
X140506481Y-112751891D01*
X140385814Y-112522000D01*
X139192000Y-112522000D01*
X138938000Y-112522000D01*
X138918000Y-112522000D01*
X138918000Y-112268000D01*
X138938000Y-112268000D01*
X138938000Y-111074845D01*
X139192000Y-111074845D01*
X139192000Y-112268000D01*
X140385814Y-112268000D01*
X140506481Y-112038109D01*
X140409157Y-111763748D01*
X140260178Y-111513645D01*
X140065269Y-111297412D01*
X139831920Y-111123359D01*
X139569099Y-110998175D01*
X139421890Y-110953524D01*
X139192000Y-111074845D01*
X138938000Y-111074845D01*
X138708110Y-110953524D01*
X138560901Y-110998175D01*
X138298080Y-111123359D01*
X138064731Y-111297412D01*
X137869822Y-111513645D01*
X137800201Y-111630523D01*
X137765706Y-111565986D01*
X137580134Y-111339866D01*
X137354014Y-111154294D01*
X137096034Y-111016401D01*
X136816111Y-110931487D01*
X136597950Y-110910000D01*
X136452050Y-110910000D01*
X136233889Y-110931487D01*
X135953966Y-111016401D01*
X135695986Y-111154294D01*
X135469866Y-111339866D01*
X135284294Y-111565986D01*
X135255000Y-111620791D01*
X135225706Y-111565986D01*
X135040134Y-111339866D01*
X134814014Y-111154294D01*
X134556034Y-111016401D01*
X134276111Y-110931487D01*
X134057950Y-110910000D01*
X133912050Y-110910000D01*
X133693889Y-110931487D01*
X133413966Y-111016401D01*
X133155986Y-111154294D01*
X132929866Y-111339866D01*
X132744294Y-111565986D01*
X132715000Y-111620791D01*
X132685706Y-111565986D01*
X132500134Y-111339866D01*
X132274014Y-111154294D01*
X132016034Y-111016401D01*
X131736111Y-110931487D01*
X131517950Y-110910000D01*
X131372050Y-110910000D01*
X131153889Y-110931487D01*
X130873966Y-111016401D01*
X130615986Y-111154294D01*
X130389866Y-111339866D01*
X130204294Y-111565986D01*
X130175000Y-111620791D01*
X130145706Y-111565986D01*
X129960134Y-111339866D01*
X129734014Y-111154294D01*
X129476034Y-111016401D01*
X129196111Y-110931487D01*
X128977950Y-110910000D01*
X128832050Y-110910000D01*
X128613889Y-110931487D01*
X128333966Y-111016401D01*
X128075986Y-111154294D01*
X127849866Y-111339866D01*
X127664294Y-111565986D01*
X127635000Y-111620791D01*
X127605706Y-111565986D01*
X127420134Y-111339866D01*
X127194014Y-111154294D01*
X126936034Y-111016401D01*
X126656111Y-110931487D01*
X126437950Y-110910000D01*
X126292050Y-110910000D01*
X126073889Y-110931487D01*
X125793966Y-111016401D01*
X125535986Y-111154294D01*
X125309866Y-111339866D01*
X125124294Y-111565986D01*
X125095000Y-111620791D01*
X125065706Y-111565986D01*
X124880134Y-111339866D01*
X124654014Y-111154294D01*
X124396034Y-111016401D01*
X124116111Y-110931487D01*
X123897950Y-110910000D01*
X123752050Y-110910000D01*
X123533889Y-110931487D01*
X123253966Y-111016401D01*
X122995986Y-111154294D01*
X122769866Y-111339866D01*
X122584294Y-111565986D01*
X122549799Y-111630523D01*
X122480178Y-111513645D01*
X122285269Y-111297412D01*
X122051920Y-111123359D01*
X121789099Y-110998175D01*
X121641890Y-110953524D01*
X121412000Y-111074845D01*
X121158000Y-111074845D01*
X120928110Y-110953524D01*
X120780901Y-110998175D01*
X120518080Y-111123359D01*
X120284731Y-111297412D01*
X120089822Y-111513645D01*
X120020201Y-111630523D01*
X119985706Y-111565986D01*
X119800134Y-111339866D01*
X119574014Y-111154294D01*
X119316034Y-111016401D01*
X119036111Y-110931487D01*
X118817950Y-110910000D01*
X118672050Y-110910000D01*
X118453889Y-110931487D01*
X118173966Y-111016401D01*
X117915986Y-111154294D01*
X117689866Y-111339866D01*
X117665393Y-111369687D01*
X117644502Y-111300820D01*
X117585537Y-111190506D01*
X117506185Y-111093815D01*
X117409494Y-111014463D01*
X117299180Y-110955498D01*
X117179482Y-110919188D01*
X117055000Y-110906928D01*
X115355000Y-110906928D01*
X115230518Y-110919188D01*
X115110820Y-110955498D01*
X115000506Y-111014463D01*
X114903815Y-111093815D01*
X114824463Y-111190506D01*
X114765498Y-111300820D01*
X114729188Y-111420518D01*
X114716928Y-111545000D01*
X89027000Y-111545000D01*
X89027000Y-109485000D01*
X152131928Y-109485000D01*
X152144188Y-109609482D01*
X152180498Y-109729180D01*
X152239463Y-109839494D01*
X152318815Y-109936185D01*
X152415506Y-110015537D01*
X152525820Y-110074502D01*
X152645518Y-110110812D01*
X152770000Y-110123072D01*
X153384250Y-110120000D01*
X153543000Y-109961250D01*
X153543000Y-108712000D01*
X153797000Y-108712000D01*
X153797000Y-109961250D01*
X153955750Y-110120000D01*
X154570000Y-110123072D01*
X154694482Y-110110812D01*
X154814180Y-110074502D01*
X154924494Y-110015537D01*
X155021185Y-109936185D01*
X155100537Y-109839494D01*
X155159502Y-109729180D01*
X155195812Y-109609482D01*
X155208072Y-109485000D01*
X155205000Y-108870750D01*
X155046250Y-108712000D01*
X153797000Y-108712000D01*
X153543000Y-108712000D01*
X152293750Y-108712000D01*
X152135000Y-108870750D01*
X152131928Y-109485000D01*
X89027000Y-109485000D01*
X89027000Y-107685000D01*
X152131928Y-107685000D01*
X152135000Y-108299250D01*
X152293750Y-108458000D01*
X153543000Y-108458000D01*
X153543000Y-108438000D01*
X153797000Y-108438000D01*
X153797000Y-108458000D01*
X155046250Y-108458000D01*
X155205000Y-108299250D01*
X155208072Y-107685000D01*
X155195812Y-107560518D01*
X155159502Y-107440820D01*
X155100537Y-107330506D01*
X155021185Y-107233815D01*
X154924494Y-107154463D01*
X154814180Y-107095498D01*
X154795873Y-107089944D01*
X154862312Y-107023505D01*
X155030299Y-106772095D01*
X155146011Y-106492743D01*
X155205000Y-106196184D01*
X155205000Y-105893816D01*
X155146011Y-105597257D01*
X155030299Y-105317905D01*
X154862312Y-105066495D01*
X154648505Y-104852688D01*
X154397095Y-104684701D01*
X154117743Y-104568989D01*
X153821184Y-104510000D01*
X153518816Y-104510000D01*
X153222257Y-104568989D01*
X152942905Y-104684701D01*
X152691495Y-104852688D01*
X152477688Y-105066495D01*
X152309701Y-105317905D01*
X152193989Y-105597257D01*
X152135000Y-105893816D01*
X152135000Y-106196184D01*
X152193989Y-106492743D01*
X152309701Y-106772095D01*
X152477688Y-107023505D01*
X152544127Y-107089944D01*
X152525820Y-107095498D01*
X152415506Y-107154463D01*
X152318815Y-107233815D01*
X152239463Y-107330506D01*
X152180498Y-107440820D01*
X152144188Y-107560518D01*
X152131928Y-107685000D01*
X89027000Y-107685000D01*
X89027000Y-97560000D01*
X91206928Y-97560000D01*
X91206928Y-100560000D01*
X91219188Y-100684482D01*
X91255498Y-100804180D01*
X91314463Y-100914494D01*
X91393815Y-101011185D01*
X91490506Y-101090537D01*
X91600820Y-101149502D01*
X91720518Y-101185812D01*
X91845000Y-101198072D01*
X94845000Y-101198072D01*
X94969482Y-101185812D01*
X95089180Y-101149502D01*
X95199494Y-101090537D01*
X95296185Y-101011185D01*
X95375537Y-100914494D01*
X95434502Y-100804180D01*
X95470812Y-100684482D01*
X95483072Y-100560000D01*
X95483072Y-97670000D01*
X102651928Y-97670000D01*
X102651928Y-99370000D01*
X102664188Y-99494482D01*
X102700498Y-99614180D01*
X102759463Y-99724494D01*
X102838815Y-99821185D01*
X102935506Y-99900537D01*
X103045820Y-99959502D01*
X103165518Y-99995812D01*
X103290000Y-100008072D01*
X104990000Y-100008072D01*
X105114482Y-99995812D01*
X105234180Y-99959502D01*
X105344494Y-99900537D01*
X105441185Y-99821185D01*
X105520537Y-99724494D01*
X105579502Y-99614180D01*
X105600393Y-99545313D01*
X105624866Y-99575134D01*
X105850986Y-99760706D01*
X106108966Y-99898599D01*
X106388889Y-99983513D01*
X106607050Y-100005000D01*
X106752950Y-100005000D01*
X106971111Y-99983513D01*
X107251034Y-99898599D01*
X107509014Y-99760706D01*
X107735134Y-99575134D01*
X107920706Y-99349014D01*
X107950000Y-99294209D01*
X107979294Y-99349014D01*
X108164866Y-99575134D01*
X108390986Y-99760706D01*
X108648966Y-99898599D01*
X108928889Y-99983513D01*
X109147050Y-100005000D01*
X109292950Y-100005000D01*
X109511111Y-99983513D01*
X109791034Y-99898599D01*
X110049014Y-99760706D01*
X110275134Y-99575134D01*
X110460706Y-99349014D01*
X110490000Y-99294209D01*
X110519294Y-99349014D01*
X110704866Y-99575134D01*
X110930986Y-99760706D01*
X111188966Y-99898599D01*
X111468889Y-99983513D01*
X111687050Y-100005000D01*
X111832950Y-100005000D01*
X112051111Y-99983513D01*
X112331034Y-99898599D01*
X112589014Y-99760706D01*
X112815134Y-99575134D01*
X113000706Y-99349014D01*
X113030000Y-99294209D01*
X113059294Y-99349014D01*
X113244866Y-99575134D01*
X113470986Y-99760706D01*
X113728966Y-99898599D01*
X114008889Y-99983513D01*
X114227050Y-100005000D01*
X114372950Y-100005000D01*
X114591111Y-99983513D01*
X114871034Y-99898599D01*
X115129014Y-99760706D01*
X115355134Y-99575134D01*
X115540706Y-99349014D01*
X115570000Y-99294209D01*
X115599294Y-99349014D01*
X115784866Y-99575134D01*
X116010986Y-99760706D01*
X116268966Y-99898599D01*
X116548889Y-99983513D01*
X116767050Y-100005000D01*
X116912950Y-100005000D01*
X117131111Y-99983513D01*
X117411034Y-99898599D01*
X117669014Y-99760706D01*
X117895134Y-99575134D01*
X118080706Y-99349014D01*
X118110000Y-99294209D01*
X118139294Y-99349014D01*
X118324866Y-99575134D01*
X118550986Y-99760706D01*
X118808966Y-99898599D01*
X119088889Y-99983513D01*
X119307050Y-100005000D01*
X119452950Y-100005000D01*
X119671111Y-99983513D01*
X119951034Y-99898599D01*
X120209014Y-99760706D01*
X120435134Y-99575134D01*
X120620706Y-99349014D01*
X120650000Y-99294209D01*
X120679294Y-99349014D01*
X120864866Y-99575134D01*
X121090986Y-99760706D01*
X121348966Y-99898599D01*
X121628889Y-99983513D01*
X121847050Y-100005000D01*
X121992950Y-100005000D01*
X122211111Y-99983513D01*
X122491034Y-99898599D01*
X122749014Y-99760706D01*
X122975134Y-99575134D01*
X123160706Y-99349014D01*
X123190000Y-99294209D01*
X123219294Y-99349014D01*
X123404866Y-99575134D01*
X123630986Y-99760706D01*
X123888966Y-99898599D01*
X124168889Y-99983513D01*
X124387050Y-100005000D01*
X124532950Y-100005000D01*
X124751111Y-99983513D01*
X125031034Y-99898599D01*
X125289014Y-99760706D01*
X125515134Y-99575134D01*
X125700706Y-99349014D01*
X125730000Y-99294209D01*
X125759294Y-99349014D01*
X125944866Y-99575134D01*
X126170986Y-99760706D01*
X126428966Y-99898599D01*
X126708889Y-99983513D01*
X126927050Y-100005000D01*
X127072950Y-100005000D01*
X127291111Y-99983513D01*
X127571034Y-99898599D01*
X127829014Y-99760706D01*
X128055134Y-99575134D01*
X128240706Y-99349014D01*
X128270000Y-99294209D01*
X128299294Y-99349014D01*
X128484866Y-99575134D01*
X128710986Y-99760706D01*
X128968966Y-99898599D01*
X129248889Y-99983513D01*
X129467050Y-100005000D01*
X129612950Y-100005000D01*
X129831111Y-99983513D01*
X130111034Y-99898599D01*
X130369014Y-99760706D01*
X130595134Y-99575134D01*
X130780706Y-99349014D01*
X130810000Y-99294209D01*
X130839294Y-99349014D01*
X131024866Y-99575134D01*
X131250986Y-99760706D01*
X131508966Y-99898599D01*
X131788889Y-99983513D01*
X132007050Y-100005000D01*
X132152950Y-100005000D01*
X132371111Y-99983513D01*
X132651034Y-99898599D01*
X132909014Y-99760706D01*
X133135134Y-99575134D01*
X133320706Y-99349014D01*
X133350000Y-99294209D01*
X133379294Y-99349014D01*
X133564866Y-99575134D01*
X133790986Y-99760706D01*
X134048966Y-99898599D01*
X134328889Y-99983513D01*
X134547050Y-100005000D01*
X134692950Y-100005000D01*
X134911111Y-99983513D01*
X135191034Y-99898599D01*
X135449014Y-99760706D01*
X135675134Y-99575134D01*
X135860706Y-99349014D01*
X135895201Y-99284477D01*
X135964822Y-99401355D01*
X136159731Y-99617588D01*
X136393080Y-99791641D01*
X136655901Y-99916825D01*
X136803110Y-99961476D01*
X137033000Y-99840155D01*
X137033000Y-98647000D01*
X137013000Y-98647000D01*
X137013000Y-98393000D01*
X137033000Y-98393000D01*
X137033000Y-97199845D01*
X137287000Y-97199845D01*
X137287000Y-98393000D01*
X137307000Y-98393000D01*
X137307000Y-98647000D01*
X137287000Y-98647000D01*
X137287000Y-99840155D01*
X137516890Y-99961476D01*
X137664099Y-99916825D01*
X137926920Y-99791641D01*
X138160269Y-99617588D01*
X138355178Y-99401355D01*
X138424799Y-99284477D01*
X138459294Y-99349014D01*
X138644866Y-99575134D01*
X138870986Y-99760706D01*
X139128966Y-99898599D01*
X139408889Y-99983513D01*
X139627050Y-100005000D01*
X139772950Y-100005000D01*
X139991111Y-99983513D01*
X140271034Y-99898599D01*
X140529014Y-99760706D01*
X140755134Y-99575134D01*
X140940706Y-99349014D01*
X140970000Y-99294209D01*
X140999294Y-99349014D01*
X141184866Y-99575134D01*
X141410986Y-99760706D01*
X141668966Y-99898599D01*
X141948889Y-99983513D01*
X142167050Y-100005000D01*
X142312950Y-100005000D01*
X142531111Y-99983513D01*
X142811034Y-99898599D01*
X143069014Y-99760706D01*
X143295134Y-99575134D01*
X143480706Y-99349014D01*
X143510000Y-99294209D01*
X143539294Y-99349014D01*
X143724866Y-99575134D01*
X143950986Y-99760706D01*
X144208966Y-99898599D01*
X144488889Y-99983513D01*
X144707050Y-100005000D01*
X144852950Y-100005000D01*
X145071111Y-99983513D01*
X145351034Y-99898599D01*
X145609014Y-99760706D01*
X145835134Y-99575134D01*
X146020706Y-99349014D01*
X146050000Y-99294209D01*
X146079294Y-99349014D01*
X146264866Y-99575134D01*
X146490986Y-99760706D01*
X146748966Y-99898599D01*
X147028889Y-99983513D01*
X147247050Y-100005000D01*
X147392950Y-100005000D01*
X147611111Y-99983513D01*
X147891034Y-99898599D01*
X148149014Y-99760706D01*
X148375134Y-99575134D01*
X148560706Y-99349014D01*
X148590000Y-99294209D01*
X148619294Y-99349014D01*
X148804866Y-99575134D01*
X149030986Y-99760706D01*
X149288966Y-99898599D01*
X149568889Y-99983513D01*
X149787050Y-100005000D01*
X149932950Y-100005000D01*
X150151111Y-99983513D01*
X150431034Y-99898599D01*
X150689014Y-99760706D01*
X150915134Y-99575134D01*
X151100706Y-99349014D01*
X151238599Y-99091034D01*
X151323513Y-98811111D01*
X151352185Y-98520000D01*
X151323513Y-98228889D01*
X151238599Y-97948966D01*
X151100706Y-97690986D01*
X150915134Y-97464866D01*
X150689014Y-97279294D01*
X150431034Y-97141401D01*
X150151111Y-97056487D01*
X149932950Y-97035000D01*
X149787050Y-97035000D01*
X149568889Y-97056487D01*
X149288966Y-97141401D01*
X149030986Y-97279294D01*
X148804866Y-97464866D01*
X148619294Y-97690986D01*
X148590000Y-97745791D01*
X148560706Y-97690986D01*
X148375134Y-97464866D01*
X148149014Y-97279294D01*
X147891034Y-97141401D01*
X147611111Y-97056487D01*
X147392950Y-97035000D01*
X147247050Y-97035000D01*
X147028889Y-97056487D01*
X146748966Y-97141401D01*
X146490986Y-97279294D01*
X146264866Y-97464866D01*
X146079294Y-97690986D01*
X146050000Y-97745791D01*
X146020706Y-97690986D01*
X145835134Y-97464866D01*
X145609014Y-97279294D01*
X145351034Y-97141401D01*
X145071111Y-97056487D01*
X144852950Y-97035000D01*
X144707050Y-97035000D01*
X144488889Y-97056487D01*
X144208966Y-97141401D01*
X143950986Y-97279294D01*
X143724866Y-97464866D01*
X143539294Y-97690986D01*
X143510000Y-97745791D01*
X143480706Y-97690986D01*
X143295134Y-97464866D01*
X143069014Y-97279294D01*
X142811034Y-97141401D01*
X142531111Y-97056487D01*
X142312950Y-97035000D01*
X142167050Y-97035000D01*
X141948889Y-97056487D01*
X141668966Y-97141401D01*
X141410986Y-97279294D01*
X141184866Y-97464866D01*
X140999294Y-97690986D01*
X140970000Y-97745791D01*
X140940706Y-97690986D01*
X140755134Y-97464866D01*
X140529014Y-97279294D01*
X140271034Y-97141401D01*
X139991111Y-97056487D01*
X139772950Y-97035000D01*
X139627050Y-97035000D01*
X139408889Y-97056487D01*
X139128966Y-97141401D01*
X138870986Y-97279294D01*
X138644866Y-97464866D01*
X138459294Y-97690986D01*
X138424799Y-97755523D01*
X138355178Y-97638645D01*
X138160269Y-97422412D01*
X137926920Y-97248359D01*
X137664099Y-97123175D01*
X137516890Y-97078524D01*
X137287000Y-97199845D01*
X137033000Y-97199845D01*
X136803110Y-97078524D01*
X136655901Y-97123175D01*
X136393080Y-97248359D01*
X136159731Y-97422412D01*
X135964822Y-97638645D01*
X135895201Y-97755523D01*
X135860706Y-97690986D01*
X135675134Y-97464866D01*
X135449014Y-97279294D01*
X135191034Y-97141401D01*
X134911111Y-97056487D01*
X134692950Y-97035000D01*
X134547050Y-97035000D01*
X134328889Y-97056487D01*
X134048966Y-97141401D01*
X133790986Y-97279294D01*
X133564866Y-97464866D01*
X133379294Y-97690986D01*
X133350000Y-97745791D01*
X133320706Y-97690986D01*
X133135134Y-97464866D01*
X132909014Y-97279294D01*
X132651034Y-97141401D01*
X132371111Y-97056487D01*
X132152950Y-97035000D01*
X132007050Y-97035000D01*
X131788889Y-97056487D01*
X131508966Y-97141401D01*
X131250986Y-97279294D01*
X131024866Y-97464866D01*
X130839294Y-97690986D01*
X130810000Y-97745791D01*
X130780706Y-97690986D01*
X130595134Y-97464866D01*
X130369014Y-97279294D01*
X130111034Y-97141401D01*
X129831111Y-97056487D01*
X129612950Y-97035000D01*
X129467050Y-97035000D01*
X129248889Y-97056487D01*
X128968966Y-97141401D01*
X128710986Y-97279294D01*
X128484866Y-97464866D01*
X128299294Y-97690986D01*
X128270000Y-97745791D01*
X128240706Y-97690986D01*
X128055134Y-97464866D01*
X127829014Y-97279294D01*
X127571034Y-97141401D01*
X127291111Y-97056487D01*
X127072950Y-97035000D01*
X126927050Y-97035000D01*
X126708889Y-97056487D01*
X126428966Y-97141401D01*
X126170986Y-97279294D01*
X125944866Y-97464866D01*
X125759294Y-97690986D01*
X125730000Y-97745791D01*
X125700706Y-97690986D01*
X125515134Y-97464866D01*
X125289014Y-97279294D01*
X125031034Y-97141401D01*
X124751111Y-97056487D01*
X124532950Y-97035000D01*
X124387050Y-97035000D01*
X124168889Y-97056487D01*
X123888966Y-97141401D01*
X123630986Y-97279294D01*
X123404866Y-97464866D01*
X123219294Y-97690986D01*
X123190000Y-97745791D01*
X123160706Y-97690986D01*
X122975134Y-97464866D01*
X122749014Y-97279294D01*
X122491034Y-97141401D01*
X122211111Y-97056487D01*
X121992950Y-97035000D01*
X121847050Y-97035000D01*
X121628889Y-97056487D01*
X121348966Y-97141401D01*
X121090986Y-97279294D01*
X120864866Y-97464866D01*
X120679294Y-97690986D01*
X120650000Y-97745791D01*
X120620706Y-97690986D01*
X120435134Y-97464866D01*
X120209014Y-97279294D01*
X119951034Y-97141401D01*
X119671111Y-97056487D01*
X119452950Y-97035000D01*
X119307050Y-97035000D01*
X119088889Y-97056487D01*
X118808966Y-97141401D01*
X118550986Y-97279294D01*
X118324866Y-97464866D01*
X118139294Y-97690986D01*
X118110000Y-97745791D01*
X118080706Y-97690986D01*
X117895134Y-97464866D01*
X117669014Y-97279294D01*
X117411034Y-97141401D01*
X117131111Y-97056487D01*
X116912950Y-97035000D01*
X116767050Y-97035000D01*
X116548889Y-97056487D01*
X116268966Y-97141401D01*
X116010986Y-97279294D01*
X115784866Y-97464866D01*
X115599294Y-97690986D01*
X115570000Y-97745791D01*
X115540706Y-97690986D01*
X115355134Y-97464866D01*
X115129014Y-97279294D01*
X114871034Y-97141401D01*
X114591111Y-97056487D01*
X114372950Y-97035000D01*
X114227050Y-97035000D01*
X114008889Y-97056487D01*
X113728966Y-97141401D01*
X113470986Y-97279294D01*
X113244866Y-97464866D01*
X113059294Y-97690986D01*
X113030000Y-97745791D01*
X113000706Y-97690986D01*
X112815134Y-97464866D01*
X112589014Y-97279294D01*
X112331034Y-97141401D01*
X112051111Y-97056487D01*
X111832950Y-97035000D01*
X111687050Y-97035000D01*
X111468889Y-97056487D01*
X111188966Y-97141401D01*
X110930986Y-97279294D01*
X110704866Y-97464866D01*
X110519294Y-97690986D01*
X110490000Y-97745791D01*
X110460706Y-97690986D01*
X110275134Y-97464866D01*
X110049014Y-97279294D01*
X109791034Y-97141401D01*
X109511111Y-97056487D01*
X109292950Y-97035000D01*
X109147050Y-97035000D01*
X108928889Y-97056487D01*
X108648966Y-97141401D01*
X108390986Y-97279294D01*
X108164866Y-97464866D01*
X107979294Y-97690986D01*
X107950000Y-97745791D01*
X107920706Y-97690986D01*
X107735134Y-97464866D01*
X107509014Y-97279294D01*
X107251034Y-97141401D01*
X106971111Y-97056487D01*
X106752950Y-97035000D01*
X106607050Y-97035000D01*
X106388889Y-97056487D01*
X106108966Y-97141401D01*
X105850986Y-97279294D01*
X105624866Y-97464866D01*
X105600393Y-97494687D01*
X105579502Y-97425820D01*
X105520537Y-97315506D01*
X105441185Y-97218815D01*
X105344494Y-97139463D01*
X105234180Y-97080498D01*
X105114482Y-97044188D01*
X104990000Y-97031928D01*
X103290000Y-97031928D01*
X103165518Y-97044188D01*
X103045820Y-97080498D01*
X102935506Y-97139463D01*
X102838815Y-97218815D01*
X102759463Y-97315506D01*
X102700498Y-97425820D01*
X102664188Y-97545518D01*
X102651928Y-97670000D01*
X95483072Y-97670000D01*
X95483072Y-97560000D01*
X95470812Y-97435518D01*
X95434502Y-97315820D01*
X95375537Y-97205506D01*
X95296185Y-97108815D01*
X95199494Y-97029463D01*
X95089180Y-96970498D01*
X94969482Y-96934188D01*
X94845000Y-96921928D01*
X91845000Y-96921928D01*
X91720518Y-96934188D01*
X91600820Y-96970498D01*
X91490506Y-97029463D01*
X91393815Y-97108815D01*
X91314463Y-97205506D01*
X91255498Y-97315820D01*
X91219188Y-97435518D01*
X91206928Y-97560000D01*
X89027000Y-97560000D01*
X89027000Y-95471653D01*
X92032952Y-95471653D01*
X92188962Y-95787214D01*
X92563745Y-95978020D01*
X92968551Y-96092044D01*
X93387824Y-96124902D01*
X93805451Y-96075334D01*
X94205383Y-95945243D01*
X94501038Y-95787214D01*
X94657048Y-95471653D01*
X93345000Y-94159605D01*
X92032952Y-95471653D01*
X89027000Y-95471653D01*
X89027000Y-94022824D01*
X91200098Y-94022824D01*
X91249666Y-94440451D01*
X91379757Y-94840383D01*
X91537786Y-95136038D01*
X91853347Y-95292048D01*
X93165395Y-93980000D01*
X93524605Y-93980000D01*
X94836653Y-95292048D01*
X95152214Y-95136038D01*
X95343020Y-94761255D01*
X95457044Y-94356449D01*
X95489902Y-93937176D01*
X95440334Y-93519549D01*
X95310243Y-93119617D01*
X95152214Y-92823962D01*
X94836653Y-92667952D01*
X93524605Y-93980000D01*
X93165395Y-93980000D01*
X91853347Y-92667952D01*
X91537786Y-92823962D01*
X91346980Y-93198745D01*
X91232956Y-93603551D01*
X91200098Y-94022824D01*
X89027000Y-94022824D01*
X89027000Y-92488347D01*
X92032952Y-92488347D01*
X93345000Y-93800395D01*
X94657048Y-92488347D01*
X94501038Y-92172786D01*
X94126255Y-91981980D01*
X93721449Y-91867956D01*
X93302176Y-91835098D01*
X92884549Y-91884666D01*
X92484617Y-92014757D01*
X92188962Y-92172786D01*
X92032952Y-92488347D01*
X89027000Y-92488347D01*
X89027000Y-84455000D01*
X91852815Y-84455000D01*
X91881487Y-84746111D01*
X91966401Y-85026034D01*
X92104294Y-85284014D01*
X92289866Y-85510134D01*
X92515986Y-85695706D01*
X92773966Y-85833599D01*
X93053889Y-85918513D01*
X93272050Y-85940000D01*
X93417950Y-85940000D01*
X93636111Y-85918513D01*
X93916034Y-85833599D01*
X94174014Y-85695706D01*
X94400134Y-85510134D01*
X94585706Y-85284014D01*
X94723599Y-85026034D01*
X94808513Y-84746111D01*
X94837185Y-84455000D01*
X94808513Y-84163889D01*
X94723599Y-83883966D01*
X94585706Y-83625986D01*
X94400134Y-83399866D01*
X94174014Y-83214294D01*
X94109477Y-83179799D01*
X94226355Y-83110178D01*
X94442588Y-82915269D01*
X94616641Y-82681920D01*
X94741825Y-82419099D01*
X94786476Y-82271890D01*
X94665155Y-82042000D01*
X93472000Y-82042000D01*
X93472000Y-82062000D01*
X93218000Y-82062000D01*
X93218000Y-82042000D01*
X92024845Y-82042000D01*
X91903524Y-82271890D01*
X91948175Y-82419099D01*
X92073359Y-82681920D01*
X92247412Y-82915269D01*
X92463645Y-83110178D01*
X92580523Y-83179799D01*
X92515986Y-83214294D01*
X92289866Y-83399866D01*
X92104294Y-83625986D01*
X91966401Y-83883966D01*
X91881487Y-84163889D01*
X91852815Y-84455000D01*
X89027000Y-84455000D01*
X89027000Y-78525000D01*
X91856928Y-78525000D01*
X91856928Y-80225000D01*
X91869188Y-80349482D01*
X91905498Y-80469180D01*
X91964463Y-80579494D01*
X92043815Y-80676185D01*
X92140506Y-80755537D01*
X92250820Y-80814502D01*
X92331466Y-80838966D01*
X92247412Y-80914731D01*
X92073359Y-81148080D01*
X91948175Y-81410901D01*
X91903524Y-81558110D01*
X92024845Y-81788000D01*
X93218000Y-81788000D01*
X93218000Y-81768000D01*
X93472000Y-81768000D01*
X93472000Y-81788000D01*
X94665155Y-81788000D01*
X94786476Y-81558110D01*
X94741825Y-81410901D01*
X94616641Y-81148080D01*
X94442588Y-80914731D01*
X94358534Y-80838966D01*
X94439180Y-80814502D01*
X94549494Y-80755537D01*
X94646185Y-80676185D01*
X94725537Y-80579494D01*
X94784502Y-80469180D01*
X94820812Y-80349482D01*
X94833072Y-80225000D01*
X94833072Y-78525000D01*
X94820812Y-78400518D01*
X94784502Y-78280820D01*
X94725537Y-78170506D01*
X94646185Y-78073815D01*
X94549494Y-77994463D01*
X94439180Y-77935498D01*
X94319482Y-77899188D01*
X94195000Y-77886928D01*
X92495000Y-77886928D01*
X92370518Y-77899188D01*
X92250820Y-77935498D01*
X92140506Y-77994463D01*
X92043815Y-78073815D01*
X91964463Y-78170506D01*
X91905498Y-78280820D01*
X91869188Y-78400518D01*
X91856928Y-78525000D01*
X89027000Y-78525000D01*
X89027000Y-72762323D01*
X90043000Y-72762323D01*
X90043000Y-73287677D01*
X90145492Y-73802935D01*
X90346536Y-74288298D01*
X90638406Y-74725113D01*
X91009887Y-75096594D01*
X91446702Y-75388464D01*
X91932065Y-75589508D01*
X92447323Y-75692000D01*
X92972677Y-75692000D01*
X93487935Y-75589508D01*
X93973298Y-75388464D01*
X94410113Y-75096594D01*
X94781594Y-74725113D01*
X95073464Y-74288298D01*
X95244657Y-73875000D01*
X102651928Y-73875000D01*
X102664188Y-73999482D01*
X102700498Y-74119180D01*
X102759463Y-74229494D01*
X102838815Y-74326185D01*
X102935506Y-74405537D01*
X103045820Y-74464502D01*
X103165518Y-74500812D01*
X103290000Y-74513072D01*
X103854250Y-74510000D01*
X104013000Y-74351250D01*
X104013000Y-73152000D01*
X102813750Y-73152000D01*
X102655000Y-73310750D01*
X102651928Y-73875000D01*
X95244657Y-73875000D01*
X95274508Y-73802935D01*
X95377000Y-73287677D01*
X95377000Y-72762323D01*
X95274508Y-72247065D01*
X95244658Y-72175000D01*
X102651928Y-72175000D01*
X102655000Y-72739250D01*
X102813750Y-72898000D01*
X104013000Y-72898000D01*
X104013000Y-71698750D01*
X104267000Y-71698750D01*
X104267000Y-72898000D01*
X104287000Y-72898000D01*
X104287000Y-73152000D01*
X104267000Y-73152000D01*
X104267000Y-74351250D01*
X104425750Y-74510000D01*
X104990000Y-74513072D01*
X105114482Y-74500812D01*
X105234180Y-74464502D01*
X105344494Y-74405537D01*
X105441185Y-74326185D01*
X105520537Y-74229494D01*
X105579502Y-74119180D01*
X105600393Y-74050313D01*
X105624866Y-74080134D01*
X105850986Y-74265706D01*
X106108966Y-74403599D01*
X106388889Y-74488513D01*
X106607050Y-74510000D01*
X106752950Y-74510000D01*
X106971111Y-74488513D01*
X107251034Y-74403599D01*
X107509014Y-74265706D01*
X107735134Y-74080134D01*
X107920706Y-73854014D01*
X107950000Y-73799209D01*
X107979294Y-73854014D01*
X108164866Y-74080134D01*
X108390986Y-74265706D01*
X108648966Y-74403599D01*
X108928889Y-74488513D01*
X109147050Y-74510000D01*
X109292950Y-74510000D01*
X109511111Y-74488513D01*
X109791034Y-74403599D01*
X110049014Y-74265706D01*
X110275134Y-74080134D01*
X110460706Y-73854014D01*
X110490000Y-73799209D01*
X110519294Y-73854014D01*
X110704866Y-74080134D01*
X110930986Y-74265706D01*
X111188966Y-74403599D01*
X111468889Y-74488513D01*
X111687050Y-74510000D01*
X111832950Y-74510000D01*
X112051111Y-74488513D01*
X112331034Y-74403599D01*
X112589014Y-74265706D01*
X112815134Y-74080134D01*
X113000706Y-73854014D01*
X113030000Y-73799209D01*
X113059294Y-73854014D01*
X113244866Y-74080134D01*
X113470986Y-74265706D01*
X113728966Y-74403599D01*
X114008889Y-74488513D01*
X114227050Y-74510000D01*
X114372950Y-74510000D01*
X114591111Y-74488513D01*
X114871034Y-74403599D01*
X115129014Y-74265706D01*
X115355134Y-74080134D01*
X115540706Y-73854014D01*
X115570000Y-73799209D01*
X115599294Y-73854014D01*
X115784866Y-74080134D01*
X116010986Y-74265706D01*
X116268966Y-74403599D01*
X116548889Y-74488513D01*
X116767050Y-74510000D01*
X116912950Y-74510000D01*
X117131111Y-74488513D01*
X117411034Y-74403599D01*
X117669014Y-74265706D01*
X117895134Y-74080134D01*
X118080706Y-73854014D01*
X118115201Y-73789477D01*
X118184822Y-73906355D01*
X118379731Y-74122588D01*
X118613080Y-74296641D01*
X118875901Y-74421825D01*
X119023110Y-74466476D01*
X119253000Y-74345155D01*
X119253000Y-73152000D01*
X119233000Y-73152000D01*
X119233000Y-72898000D01*
X119253000Y-72898000D01*
X119253000Y-71704845D01*
X119507000Y-71704845D01*
X119507000Y-72898000D01*
X119527000Y-72898000D01*
X119527000Y-73152000D01*
X119507000Y-73152000D01*
X119507000Y-74345155D01*
X119736890Y-74466476D01*
X119884099Y-74421825D01*
X120146920Y-74296641D01*
X120380269Y-74122588D01*
X120575178Y-73906355D01*
X120644799Y-73789477D01*
X120679294Y-73854014D01*
X120864866Y-74080134D01*
X121090986Y-74265706D01*
X121348966Y-74403599D01*
X121628889Y-74488513D01*
X121847050Y-74510000D01*
X121992950Y-74510000D01*
X122211111Y-74488513D01*
X122491034Y-74403599D01*
X122749014Y-74265706D01*
X122975134Y-74080134D01*
X123160706Y-73854014D01*
X123190000Y-73799209D01*
X123219294Y-73854014D01*
X123404866Y-74080134D01*
X123630986Y-74265706D01*
X123888966Y-74403599D01*
X124168889Y-74488513D01*
X124387050Y-74510000D01*
X124532950Y-74510000D01*
X124751111Y-74488513D01*
X125031034Y-74403599D01*
X125289014Y-74265706D01*
X125515134Y-74080134D01*
X125700706Y-73854014D01*
X125730000Y-73799209D01*
X125759294Y-73854014D01*
X125944866Y-74080134D01*
X126170986Y-74265706D01*
X126428966Y-74403599D01*
X126708889Y-74488513D01*
X126927050Y-74510000D01*
X127072950Y-74510000D01*
X127291111Y-74488513D01*
X127571034Y-74403599D01*
X127829014Y-74265706D01*
X128055134Y-74080134D01*
X128240706Y-73854014D01*
X128270000Y-73799209D01*
X128299294Y-73854014D01*
X128484866Y-74080134D01*
X128710986Y-74265706D01*
X128968966Y-74403599D01*
X129248889Y-74488513D01*
X129467050Y-74510000D01*
X129612950Y-74510000D01*
X129831111Y-74488513D01*
X130111034Y-74403599D01*
X130369014Y-74265706D01*
X130595134Y-74080134D01*
X130780706Y-73854014D01*
X130816681Y-73786709D01*
X130839294Y-73829014D01*
X131024866Y-74055134D01*
X131250986Y-74240706D01*
X131508966Y-74378599D01*
X131788889Y-74463513D01*
X132007050Y-74485000D01*
X132152950Y-74485000D01*
X132371111Y-74463513D01*
X132651034Y-74378599D01*
X132909014Y-74240706D01*
X133135134Y-74055134D01*
X133320706Y-73829014D01*
X133343319Y-73786709D01*
X133379294Y-73854014D01*
X133564866Y-74080134D01*
X133790986Y-74265706D01*
X134048966Y-74403599D01*
X134328889Y-74488513D01*
X134547050Y-74510000D01*
X134692950Y-74510000D01*
X134911111Y-74488513D01*
X135191034Y-74403599D01*
X135449014Y-74265706D01*
X135675134Y-74080134D01*
X135860706Y-73854014D01*
X135890000Y-73799209D01*
X135919294Y-73854014D01*
X136104866Y-74080134D01*
X136330986Y-74265706D01*
X136588966Y-74403599D01*
X136868889Y-74488513D01*
X137087050Y-74510000D01*
X137232950Y-74510000D01*
X137451111Y-74488513D01*
X137731034Y-74403599D01*
X137989014Y-74265706D01*
X138215134Y-74080134D01*
X138400706Y-73854014D01*
X138430000Y-73799209D01*
X138459294Y-73854014D01*
X138644866Y-74080134D01*
X138870986Y-74265706D01*
X139128966Y-74403599D01*
X139408889Y-74488513D01*
X139627050Y-74510000D01*
X139772950Y-74510000D01*
X139991111Y-74488513D01*
X140271034Y-74403599D01*
X140529014Y-74265706D01*
X140755134Y-74080134D01*
X140940706Y-73854014D01*
X140970000Y-73799209D01*
X140999294Y-73854014D01*
X141184866Y-74080134D01*
X141410986Y-74265706D01*
X141668966Y-74403599D01*
X141948889Y-74488513D01*
X142167050Y-74510000D01*
X142312950Y-74510000D01*
X142531111Y-74488513D01*
X142811034Y-74403599D01*
X143069014Y-74265706D01*
X143295134Y-74080134D01*
X143480706Y-73854014D01*
X143510000Y-73799209D01*
X143539294Y-73854014D01*
X143724866Y-74080134D01*
X143950986Y-74265706D01*
X144208966Y-74403599D01*
X144488889Y-74488513D01*
X144707050Y-74510000D01*
X144852950Y-74510000D01*
X145071111Y-74488513D01*
X145351034Y-74403599D01*
X145609014Y-74265706D01*
X145835134Y-74080134D01*
X146020706Y-73854014D01*
X146050000Y-73799209D01*
X146079294Y-73854014D01*
X146264866Y-74080134D01*
X146490986Y-74265706D01*
X146748966Y-74403599D01*
X147028889Y-74488513D01*
X147247050Y-74510000D01*
X147392950Y-74510000D01*
X147611111Y-74488513D01*
X147891034Y-74403599D01*
X148149014Y-74265706D01*
X148375134Y-74080134D01*
X148560706Y-73854014D01*
X148590000Y-73799209D01*
X148619294Y-73854014D01*
X148804866Y-74080134D01*
X149030986Y-74265706D01*
X149288966Y-74403599D01*
X149568889Y-74488513D01*
X149787050Y-74510000D01*
X149932950Y-74510000D01*
X150151111Y-74488513D01*
X150431034Y-74403599D01*
X150689014Y-74265706D01*
X150915134Y-74080134D01*
X151100706Y-73854014D01*
X151238599Y-73596034D01*
X151323513Y-73316111D01*
X151352185Y-73025000D01*
X151326314Y-72762323D01*
X152908000Y-72762323D01*
X152908000Y-73287677D01*
X153010492Y-73802935D01*
X153211536Y-74288298D01*
X153503406Y-74725113D01*
X153874887Y-75096594D01*
X154311702Y-75388464D01*
X154797065Y-75589508D01*
X155312323Y-75692000D01*
X155837677Y-75692000D01*
X156352935Y-75589508D01*
X156838298Y-75388464D01*
X157275113Y-75096594D01*
X157646594Y-74725113D01*
X157938464Y-74288298D01*
X158139508Y-73802935D01*
X158242000Y-73287677D01*
X158242000Y-72762323D01*
X158139508Y-72247065D01*
X157938464Y-71761702D01*
X157646594Y-71324887D01*
X157275113Y-70953406D01*
X156838298Y-70661536D01*
X156352935Y-70460492D01*
X155837677Y-70358000D01*
X155312323Y-70358000D01*
X154797065Y-70460492D01*
X154311702Y-70661536D01*
X153874887Y-70953406D01*
X153503406Y-71324887D01*
X153211536Y-71761702D01*
X153010492Y-72247065D01*
X152908000Y-72762323D01*
X151326314Y-72762323D01*
X151323513Y-72733889D01*
X151238599Y-72453966D01*
X151100706Y-72195986D01*
X150915134Y-71969866D01*
X150689014Y-71784294D01*
X150431034Y-71646401D01*
X150151111Y-71561487D01*
X149932950Y-71540000D01*
X149787050Y-71540000D01*
X149568889Y-71561487D01*
X149288966Y-71646401D01*
X149030986Y-71784294D01*
X148804866Y-71969866D01*
X148619294Y-72195986D01*
X148590000Y-72250791D01*
X148560706Y-72195986D01*
X148375134Y-71969866D01*
X148149014Y-71784294D01*
X147891034Y-71646401D01*
X147611111Y-71561487D01*
X147392950Y-71540000D01*
X147247050Y-71540000D01*
X147028889Y-71561487D01*
X146748966Y-71646401D01*
X146490986Y-71784294D01*
X146264866Y-71969866D01*
X146079294Y-72195986D01*
X146050000Y-72250791D01*
X146020706Y-72195986D01*
X145835134Y-71969866D01*
X145609014Y-71784294D01*
X145351034Y-71646401D01*
X145071111Y-71561487D01*
X144852950Y-71540000D01*
X144707050Y-71540000D01*
X144488889Y-71561487D01*
X144208966Y-71646401D01*
X143950986Y-71784294D01*
X143724866Y-71969866D01*
X143539294Y-72195986D01*
X143510000Y-72250791D01*
X143480706Y-72195986D01*
X143295134Y-71969866D01*
X143069014Y-71784294D01*
X142811034Y-71646401D01*
X142531111Y-71561487D01*
X142312950Y-71540000D01*
X142167050Y-71540000D01*
X141948889Y-71561487D01*
X141668966Y-71646401D01*
X141410986Y-71784294D01*
X141184866Y-71969866D01*
X140999294Y-72195986D01*
X140970000Y-72250791D01*
X140940706Y-72195986D01*
X140755134Y-71969866D01*
X140529014Y-71784294D01*
X140271034Y-71646401D01*
X139991111Y-71561487D01*
X139772950Y-71540000D01*
X139627050Y-71540000D01*
X139408889Y-71561487D01*
X139128966Y-71646401D01*
X138870986Y-71784294D01*
X138644866Y-71969866D01*
X138459294Y-72195986D01*
X138430000Y-72250791D01*
X138400706Y-72195986D01*
X138215134Y-71969866D01*
X137989014Y-71784294D01*
X137731034Y-71646401D01*
X137451111Y-71561487D01*
X137232950Y-71540000D01*
X137087050Y-71540000D01*
X136868889Y-71561487D01*
X136588966Y-71646401D01*
X136330986Y-71784294D01*
X136104866Y-71969866D01*
X135919294Y-72195986D01*
X135890000Y-72250791D01*
X135860706Y-72195986D01*
X135675134Y-71969866D01*
X135449014Y-71784294D01*
X135191034Y-71646401D01*
X134911111Y-71561487D01*
X134692950Y-71540000D01*
X134547050Y-71540000D01*
X134328889Y-71561487D01*
X134048966Y-71646401D01*
X133790986Y-71784294D01*
X133564866Y-71969866D01*
X133379294Y-72195986D01*
X133356681Y-72238291D01*
X133320706Y-72170986D01*
X133135134Y-71944866D01*
X132909014Y-71759294D01*
X132651034Y-71621401D01*
X132371111Y-71536487D01*
X132152950Y-71515000D01*
X132007050Y-71515000D01*
X131788889Y-71536487D01*
X131508966Y-71621401D01*
X131250986Y-71759294D01*
X131024866Y-71944866D01*
X130839294Y-72170986D01*
X130803319Y-72238291D01*
X130780706Y-72195986D01*
X130595134Y-71969866D01*
X130369014Y-71784294D01*
X130111034Y-71646401D01*
X129831111Y-71561487D01*
X129612950Y-71540000D01*
X129467050Y-71540000D01*
X129248889Y-71561487D01*
X128968966Y-71646401D01*
X128710986Y-71784294D01*
X128484866Y-71969866D01*
X128299294Y-72195986D01*
X128270000Y-72250791D01*
X128240706Y-72195986D01*
X128055134Y-71969866D01*
X127829014Y-71784294D01*
X127571034Y-71646401D01*
X127291111Y-71561487D01*
X127072950Y-71540000D01*
X126927050Y-71540000D01*
X126708889Y-71561487D01*
X126428966Y-71646401D01*
X126170986Y-71784294D01*
X125944866Y-71969866D01*
X125759294Y-72195986D01*
X125730000Y-72250791D01*
X125700706Y-72195986D01*
X125515134Y-71969866D01*
X125289014Y-71784294D01*
X125031034Y-71646401D01*
X124751111Y-71561487D01*
X124532950Y-71540000D01*
X124387050Y-71540000D01*
X124168889Y-71561487D01*
X123888966Y-71646401D01*
X123630986Y-71784294D01*
X123404866Y-71969866D01*
X123219294Y-72195986D01*
X123190000Y-72250791D01*
X123160706Y-72195986D01*
X122975134Y-71969866D01*
X122749014Y-71784294D01*
X122491034Y-71646401D01*
X122211111Y-71561487D01*
X121992950Y-71540000D01*
X121847050Y-71540000D01*
X121628889Y-71561487D01*
X121348966Y-71646401D01*
X121090986Y-71784294D01*
X120864866Y-71969866D01*
X120679294Y-72195986D01*
X120644799Y-72260523D01*
X120575178Y-72143645D01*
X120380269Y-71927412D01*
X120146920Y-71753359D01*
X119884099Y-71628175D01*
X119736890Y-71583524D01*
X119507000Y-71704845D01*
X119253000Y-71704845D01*
X119023110Y-71583524D01*
X118875901Y-71628175D01*
X118613080Y-71753359D01*
X118379731Y-71927412D01*
X118184822Y-72143645D01*
X118115201Y-72260523D01*
X118080706Y-72195986D01*
X117895134Y-71969866D01*
X117669014Y-71784294D01*
X117411034Y-71646401D01*
X117131111Y-71561487D01*
X116912950Y-71540000D01*
X116767050Y-71540000D01*
X116548889Y-71561487D01*
X116268966Y-71646401D01*
X116010986Y-71784294D01*
X115784866Y-71969866D01*
X115599294Y-72195986D01*
X115570000Y-72250791D01*
X115540706Y-72195986D01*
X115355134Y-71969866D01*
X115129014Y-71784294D01*
X114871034Y-71646401D01*
X114591111Y-71561487D01*
X114372950Y-71540000D01*
X114227050Y-71540000D01*
X114008889Y-71561487D01*
X113728966Y-71646401D01*
X113470986Y-71784294D01*
X113244866Y-71969866D01*
X113059294Y-72195986D01*
X113030000Y-72250791D01*
X113000706Y-72195986D01*
X112815134Y-71969866D01*
X112589014Y-71784294D01*
X112331034Y-71646401D01*
X112051111Y-71561487D01*
X111832950Y-71540000D01*
X111687050Y-71540000D01*
X111468889Y-71561487D01*
X111188966Y-71646401D01*
X110930986Y-71784294D01*
X110704866Y-71969866D01*
X110519294Y-72195986D01*
X110490000Y-72250791D01*
X110460706Y-72195986D01*
X110275134Y-71969866D01*
X110049014Y-71784294D01*
X109791034Y-71646401D01*
X109511111Y-71561487D01*
X109292950Y-71540000D01*
X109147050Y-71540000D01*
X108928889Y-71561487D01*
X108648966Y-71646401D01*
X108390986Y-71784294D01*
X108164866Y-71969866D01*
X107979294Y-72195986D01*
X107950000Y-72250791D01*
X107920706Y-72195986D01*
X107735134Y-71969866D01*
X107509014Y-71784294D01*
X107251034Y-71646401D01*
X106971111Y-71561487D01*
X106752950Y-71540000D01*
X106607050Y-71540000D01*
X106388889Y-71561487D01*
X106108966Y-71646401D01*
X105850986Y-71784294D01*
X105624866Y-71969866D01*
X105600393Y-71999687D01*
X105579502Y-71930820D01*
X105520537Y-71820506D01*
X105441185Y-71723815D01*
X105344494Y-71644463D01*
X105234180Y-71585498D01*
X105114482Y-71549188D01*
X104990000Y-71536928D01*
X104425750Y-71540000D01*
X104267000Y-71698750D01*
X104013000Y-71698750D01*
X103854250Y-71540000D01*
X103290000Y-71536928D01*
X103165518Y-71549188D01*
X103045820Y-71585498D01*
X102935506Y-71644463D01*
X102838815Y-71723815D01*
X102759463Y-71820506D01*
X102700498Y-71930820D01*
X102664188Y-72050518D01*
X102651928Y-72175000D01*
X95244658Y-72175000D01*
X95073464Y-71761702D01*
X94781594Y-71324887D01*
X94410113Y-70953406D01*
X93973298Y-70661536D01*
X93487935Y-70460492D01*
X92972677Y-70358000D01*
X92447323Y-70358000D01*
X91932065Y-70460492D01*
X91446702Y-70661536D01*
X91009887Y-70953406D01*
X90638406Y-71324887D01*
X90346536Y-71761702D01*
X90145492Y-72247065D01*
X90043000Y-72762323D01*
X89027000Y-72762323D01*
X89027000Y-69977000D01*
X158623000Y-69977000D01*
X158623000Y-120523000D01*
X158623000Y-120523000D01*
G37*
X158623000Y-120523000D02*
X89027000Y-120523000D01*
X89027000Y-116577323D01*
X90043000Y-116577323D01*
X90043000Y-117102677D01*
X90145492Y-117617935D01*
X90346536Y-118103298D01*
X90638406Y-118540113D01*
X91009887Y-118911594D01*
X91446702Y-119203464D01*
X91932065Y-119404508D01*
X92447323Y-119507000D01*
X92972677Y-119507000D01*
X93487935Y-119404508D01*
X93973298Y-119203464D01*
X94410113Y-118911594D01*
X94781594Y-118540113D01*
X95073464Y-118103298D01*
X95274508Y-117617935D01*
X95377000Y-117102677D01*
X95377000Y-116577323D01*
X95355652Y-116470000D01*
X152131928Y-116470000D01*
X152144188Y-116594482D01*
X152180498Y-116714180D01*
X152239463Y-116824494D01*
X152318815Y-116921185D01*
X152415506Y-117000537D01*
X152525820Y-117059502D01*
X152645518Y-117095812D01*
X152770000Y-117108072D01*
X153384250Y-117105000D01*
X153543000Y-116946250D01*
X153543000Y-115697000D01*
X153797000Y-115697000D01*
X153797000Y-116946250D01*
X153955750Y-117105000D01*
X154570000Y-117108072D01*
X154694482Y-117095812D01*
X154814180Y-117059502D01*
X154924494Y-117000537D01*
X155021185Y-116921185D01*
X155100537Y-116824494D01*
X155159502Y-116714180D01*
X155195812Y-116594482D01*
X155208072Y-116470000D01*
X155205000Y-115855750D01*
X155046250Y-115697000D01*
X153797000Y-115697000D01*
X153543000Y-115697000D01*
X152293750Y-115697000D01*
X152135000Y-115855750D01*
X152131928Y-116470000D01*
X95355652Y-116470000D01*
X95274508Y-116062065D01*
X95073464Y-115576702D01*
X94781594Y-115139887D01*
X94410113Y-114768406D01*
X94262838Y-114670000D01*
X152131928Y-114670000D01*
X152135000Y-115284250D01*
X152293750Y-115443000D01*
X153543000Y-115443000D01*
X153543000Y-115423000D01*
X153797000Y-115423000D01*
X153797000Y-115443000D01*
X155046250Y-115443000D01*
X155205000Y-115284250D01*
X155208072Y-114670000D01*
X155195812Y-114545518D01*
X155159502Y-114425820D01*
X155100537Y-114315506D01*
X155021185Y-114218815D01*
X154924494Y-114139463D01*
X154814180Y-114080498D01*
X154795873Y-114074944D01*
X154862312Y-114008505D01*
X155030299Y-113757095D01*
X155146011Y-113477743D01*
X155205000Y-113181184D01*
X155205000Y-112878816D01*
X155146011Y-112582257D01*
X155030299Y-112302905D01*
X154862312Y-112051495D01*
X154648505Y-111837688D01*
X154397095Y-111669701D01*
X154117743Y-111553989D01*
X153821184Y-111495000D01*
X153518816Y-111495000D01*
X153222257Y-111553989D01*
X152942905Y-111669701D01*
X152691495Y-111837688D01*
X152477688Y-112051495D01*
X152309701Y-112302905D01*
X152193989Y-112582257D01*
X152135000Y-112878816D01*
X152135000Y-113181184D01*
X152193989Y-113477743D01*
X152309701Y-113757095D01*
X152477688Y-114008505D01*
X152544127Y-114074944D01*
X152525820Y-114080498D01*
X152415506Y-114139463D01*
X152318815Y-114218815D01*
X152239463Y-114315506D01*
X152180498Y-114425820D01*
X152144188Y-114545518D01*
X152131928Y-114670000D01*
X94262838Y-114670000D01*
X93973298Y-114476536D01*
X93487935Y-114275492D01*
X92972677Y-114173000D01*
X92447323Y-114173000D01*
X91932065Y-114275492D01*
X91446702Y-114476536D01*
X91009887Y-114768406D01*
X90638406Y-115139887D01*
X90346536Y-115576702D01*
X90145492Y-116062065D01*
X90043000Y-116577323D01*
X89027000Y-116577323D01*
X89027000Y-111545000D01*
X114716928Y-111545000D01*
X114716928Y-113245000D01*
X114729188Y-113369482D01*
X114765498Y-113489180D01*
X114824463Y-113599494D01*
X114903815Y-113696185D01*
X115000506Y-113775537D01*
X115110820Y-113834502D01*
X115230518Y-113870812D01*
X115355000Y-113883072D01*
X117055000Y-113883072D01*
X117179482Y-113870812D01*
X117299180Y-113834502D01*
X117409494Y-113775537D01*
X117506185Y-113696185D01*
X117585537Y-113599494D01*
X117644502Y-113489180D01*
X117665393Y-113420313D01*
X117689866Y-113450134D01*
X117915986Y-113635706D01*
X118173966Y-113773599D01*
X118453889Y-113858513D01*
X118672050Y-113880000D01*
X118817950Y-113880000D01*
X119036111Y-113858513D01*
X119316034Y-113773599D01*
X119574014Y-113635706D01*
X119800134Y-113450134D01*
X119985706Y-113224014D01*
X120020201Y-113159477D01*
X120089822Y-113276355D01*
X120284731Y-113492588D01*
X120518080Y-113666641D01*
X120780901Y-113791825D01*
X120928110Y-113836476D01*
X121158000Y-113715155D01*
X121158000Y-112522000D01*
X121138000Y-112522000D01*
X121138000Y-112268000D01*
X121158000Y-112268000D01*
X121158000Y-111074845D01*
X121412000Y-111074845D01*
X121412000Y-112268000D01*
X121432000Y-112268000D01*
X121432000Y-112522000D01*
X121412000Y-112522000D01*
X121412000Y-113715155D01*
X121641890Y-113836476D01*
X121789099Y-113791825D01*
X122051920Y-113666641D01*
X122285269Y-113492588D01*
X122480178Y-113276355D01*
X122549799Y-113159477D01*
X122584294Y-113224014D01*
X122769866Y-113450134D01*
X122995986Y-113635706D01*
X123253966Y-113773599D01*
X123533889Y-113858513D01*
X123752050Y-113880000D01*
X123897950Y-113880000D01*
X124116111Y-113858513D01*
X124396034Y-113773599D01*
X124654014Y-113635706D01*
X124880134Y-113450134D01*
X125065706Y-113224014D01*
X125095000Y-113169209D01*
X125124294Y-113224014D01*
X125309866Y-113450134D01*
X125535986Y-113635706D01*
X125793966Y-113773599D01*
X126073889Y-113858513D01*
X126292050Y-113880000D01*
X126437950Y-113880000D01*
X126656111Y-113858513D01*
X126936034Y-113773599D01*
X127194014Y-113635706D01*
X127420134Y-113450134D01*
X127605706Y-113224014D01*
X127635000Y-113169209D01*
X127664294Y-113224014D01*
X127849866Y-113450134D01*
X128075986Y-113635706D01*
X128333966Y-113773599D01*
X128613889Y-113858513D01*
X128832050Y-113880000D01*
X128977950Y-113880000D01*
X129196111Y-113858513D01*
X129476034Y-113773599D01*
X129734014Y-113635706D01*
X129960134Y-113450134D01*
X130145706Y-113224014D01*
X130175000Y-113169209D01*
X130204294Y-113224014D01*
X130389866Y-113450134D01*
X130615986Y-113635706D01*
X130873966Y-113773599D01*
X131153889Y-113858513D01*
X131372050Y-113880000D01*
X131517950Y-113880000D01*
X131736111Y-113858513D01*
X132016034Y-113773599D01*
X132274014Y-113635706D01*
X132500134Y-113450134D01*
X132685706Y-113224014D01*
X132715000Y-113169209D01*
X132744294Y-113224014D01*
X132929866Y-113450134D01*
X133155986Y-113635706D01*
X133413966Y-113773599D01*
X133693889Y-113858513D01*
X133912050Y-113880000D01*
X134057950Y-113880000D01*
X134276111Y-113858513D01*
X134556034Y-113773599D01*
X134814014Y-113635706D01*
X135040134Y-113450134D01*
X135225706Y-113224014D01*
X135255000Y-113169209D01*
X135284294Y-113224014D01*
X135469866Y-113450134D01*
X135695986Y-113635706D01*
X135953966Y-113773599D01*
X136233889Y-113858513D01*
X136452050Y-113880000D01*
X136597950Y-113880000D01*
X136816111Y-113858513D01*
X137096034Y-113773599D01*
X137354014Y-113635706D01*
X137580134Y-113450134D01*
X137765706Y-113224014D01*
X137800201Y-113159477D01*
X137869822Y-113276355D01*
X138064731Y-113492588D01*
X138298080Y-113666641D01*
X138560901Y-113791825D01*
X138708110Y-113836476D01*
X138938000Y-113715155D01*
X138938000Y-112522000D01*
X139192000Y-112522000D01*
X139192000Y-113715155D01*
X139421890Y-113836476D01*
X139569099Y-113791825D01*
X139831920Y-113666641D01*
X140065269Y-113492588D01*
X140260178Y-113276355D01*
X140409157Y-113026252D01*
X140506481Y-112751891D01*
X140385814Y-112522000D01*
X139192000Y-112522000D01*
X138938000Y-112522000D01*
X138918000Y-112522000D01*
X138918000Y-112268000D01*
X138938000Y-112268000D01*
X138938000Y-111074845D01*
X139192000Y-111074845D01*
X139192000Y-112268000D01*
X140385814Y-112268000D01*
X140506481Y-112038109D01*
X140409157Y-111763748D01*
X140260178Y-111513645D01*
X140065269Y-111297412D01*
X139831920Y-111123359D01*
X139569099Y-110998175D01*
X139421890Y-110953524D01*
X139192000Y-111074845D01*
X138938000Y-111074845D01*
X138708110Y-110953524D01*
X138560901Y-110998175D01*
X138298080Y-111123359D01*
X138064731Y-111297412D01*
X137869822Y-111513645D01*
X137800201Y-111630523D01*
X137765706Y-111565986D01*
X137580134Y-111339866D01*
X137354014Y-111154294D01*
X137096034Y-111016401D01*
X136816111Y-110931487D01*
X136597950Y-110910000D01*
X136452050Y-110910000D01*
X136233889Y-110931487D01*
X135953966Y-111016401D01*
X135695986Y-111154294D01*
X135469866Y-111339866D01*
X135284294Y-111565986D01*
X135255000Y-111620791D01*
X135225706Y-111565986D01*
X135040134Y-111339866D01*
X134814014Y-111154294D01*
X134556034Y-111016401D01*
X134276111Y-110931487D01*
X134057950Y-110910000D01*
X133912050Y-110910000D01*
X133693889Y-110931487D01*
X133413966Y-111016401D01*
X133155986Y-111154294D01*
X132929866Y-111339866D01*
X132744294Y-111565986D01*
X132715000Y-111620791D01*
X132685706Y-111565986D01*
X132500134Y-111339866D01*
X132274014Y-111154294D01*
X132016034Y-111016401D01*
X131736111Y-110931487D01*
X131517950Y-110910000D01*
X131372050Y-110910000D01*
X131153889Y-110931487D01*
X130873966Y-111016401D01*
X130615986Y-111154294D01*
X130389866Y-111339866D01*
X130204294Y-111565986D01*
X130175000Y-111620791D01*
X130145706Y-111565986D01*
X129960134Y-111339866D01*
X129734014Y-111154294D01*
X129476034Y-111016401D01*
X129196111Y-110931487D01*
X128977950Y-110910000D01*
X128832050Y-110910000D01*
X128613889Y-110931487D01*
X128333966Y-111016401D01*
X128075986Y-111154294D01*
X127849866Y-111339866D01*
X127664294Y-111565986D01*
X127635000Y-111620791D01*
X127605706Y-111565986D01*
X127420134Y-111339866D01*
X127194014Y-111154294D01*
X126936034Y-111016401D01*
X126656111Y-110931487D01*
X126437950Y-110910000D01*
X126292050Y-110910000D01*
X126073889Y-110931487D01*
X125793966Y-111016401D01*
X125535986Y-111154294D01*
X125309866Y-111339866D01*
X125124294Y-111565986D01*
X125095000Y-111620791D01*
X125065706Y-111565986D01*
X124880134Y-111339866D01*
X124654014Y-111154294D01*
X124396034Y-111016401D01*
X124116111Y-110931487D01*
X123897950Y-110910000D01*
X123752050Y-110910000D01*
X123533889Y-110931487D01*
X123253966Y-111016401D01*
X122995986Y-111154294D01*
X122769866Y-111339866D01*
X122584294Y-111565986D01*
X122549799Y-111630523D01*
X122480178Y-111513645D01*
X122285269Y-111297412D01*
X122051920Y-111123359D01*
X121789099Y-110998175D01*
X121641890Y-110953524D01*
X121412000Y-111074845D01*
X121158000Y-111074845D01*
X120928110Y-110953524D01*
X120780901Y-110998175D01*
X120518080Y-111123359D01*
X120284731Y-111297412D01*
X120089822Y-111513645D01*
X120020201Y-111630523D01*
X119985706Y-111565986D01*
X119800134Y-111339866D01*
X119574014Y-111154294D01*
X119316034Y-111016401D01*
X119036111Y-110931487D01*
X118817950Y-110910000D01*
X118672050Y-110910000D01*
X118453889Y-110931487D01*
X118173966Y-111016401D01*
X117915986Y-111154294D01*
X117689866Y-111339866D01*
X117665393Y-111369687D01*
X117644502Y-111300820D01*
X117585537Y-111190506D01*
X117506185Y-111093815D01*
X117409494Y-111014463D01*
X117299180Y-110955498D01*
X117179482Y-110919188D01*
X117055000Y-110906928D01*
X115355000Y-110906928D01*
X115230518Y-110919188D01*
X115110820Y-110955498D01*
X115000506Y-111014463D01*
X114903815Y-111093815D01*
X114824463Y-111190506D01*
X114765498Y-111300820D01*
X114729188Y-111420518D01*
X114716928Y-111545000D01*
X89027000Y-111545000D01*
X89027000Y-109485000D01*
X152131928Y-109485000D01*
X152144188Y-109609482D01*
X152180498Y-109729180D01*
X152239463Y-109839494D01*
X152318815Y-109936185D01*
X152415506Y-110015537D01*
X152525820Y-110074502D01*
X152645518Y-110110812D01*
X152770000Y-110123072D01*
X153384250Y-110120000D01*
X153543000Y-109961250D01*
X153543000Y-108712000D01*
X153797000Y-108712000D01*
X153797000Y-109961250D01*
X153955750Y-110120000D01*
X154570000Y-110123072D01*
X154694482Y-110110812D01*
X154814180Y-110074502D01*
X154924494Y-110015537D01*
X155021185Y-109936185D01*
X155100537Y-109839494D01*
X155159502Y-109729180D01*
X155195812Y-109609482D01*
X155208072Y-109485000D01*
X155205000Y-108870750D01*
X155046250Y-108712000D01*
X153797000Y-108712000D01*
X153543000Y-108712000D01*
X152293750Y-108712000D01*
X152135000Y-108870750D01*
X152131928Y-109485000D01*
X89027000Y-109485000D01*
X89027000Y-107685000D01*
X152131928Y-107685000D01*
X152135000Y-108299250D01*
X152293750Y-108458000D01*
X153543000Y-108458000D01*
X153543000Y-108438000D01*
X153797000Y-108438000D01*
X153797000Y-108458000D01*
X155046250Y-108458000D01*
X155205000Y-108299250D01*
X155208072Y-107685000D01*
X155195812Y-107560518D01*
X155159502Y-107440820D01*
X155100537Y-107330506D01*
X155021185Y-107233815D01*
X154924494Y-107154463D01*
X154814180Y-107095498D01*
X154795873Y-107089944D01*
X154862312Y-107023505D01*
X155030299Y-106772095D01*
X155146011Y-106492743D01*
X155205000Y-106196184D01*
X155205000Y-105893816D01*
X155146011Y-105597257D01*
X155030299Y-105317905D01*
X154862312Y-105066495D01*
X154648505Y-104852688D01*
X154397095Y-104684701D01*
X154117743Y-104568989D01*
X153821184Y-104510000D01*
X153518816Y-104510000D01*
X153222257Y-104568989D01*
X152942905Y-104684701D01*
X152691495Y-104852688D01*
X152477688Y-105066495D01*
X152309701Y-105317905D01*
X152193989Y-105597257D01*
X152135000Y-105893816D01*
X152135000Y-106196184D01*
X152193989Y-106492743D01*
X152309701Y-106772095D01*
X152477688Y-107023505D01*
X152544127Y-107089944D01*
X152525820Y-107095498D01*
X152415506Y-107154463D01*
X152318815Y-107233815D01*
X152239463Y-107330506D01*
X152180498Y-107440820D01*
X152144188Y-107560518D01*
X152131928Y-107685000D01*
X89027000Y-107685000D01*
X89027000Y-97560000D01*
X91206928Y-97560000D01*
X91206928Y-100560000D01*
X91219188Y-100684482D01*
X91255498Y-100804180D01*
X91314463Y-100914494D01*
X91393815Y-101011185D01*
X91490506Y-101090537D01*
X91600820Y-101149502D01*
X91720518Y-101185812D01*
X91845000Y-101198072D01*
X94845000Y-101198072D01*
X94969482Y-101185812D01*
X95089180Y-101149502D01*
X95199494Y-101090537D01*
X95296185Y-101011185D01*
X95375537Y-100914494D01*
X95434502Y-100804180D01*
X95470812Y-100684482D01*
X95483072Y-100560000D01*
X95483072Y-97670000D01*
X102651928Y-97670000D01*
X102651928Y-99370000D01*
X102664188Y-99494482D01*
X102700498Y-99614180D01*
X102759463Y-99724494D01*
X102838815Y-99821185D01*
X102935506Y-99900537D01*
X103045820Y-99959502D01*
X103165518Y-99995812D01*
X103290000Y-100008072D01*
X104990000Y-100008072D01*
X105114482Y-99995812D01*
X105234180Y-99959502D01*
X105344494Y-99900537D01*
X105441185Y-99821185D01*
X105520537Y-99724494D01*
X105579502Y-99614180D01*
X105600393Y-99545313D01*
X105624866Y-99575134D01*
X105850986Y-99760706D01*
X106108966Y-99898599D01*
X106388889Y-99983513D01*
X106607050Y-100005000D01*
X106752950Y-100005000D01*
X106971111Y-99983513D01*
X107251034Y-99898599D01*
X107509014Y-99760706D01*
X107735134Y-99575134D01*
X107920706Y-99349014D01*
X107950000Y-99294209D01*
X107979294Y-99349014D01*
X108164866Y-99575134D01*
X108390986Y-99760706D01*
X108648966Y-99898599D01*
X108928889Y-99983513D01*
X109147050Y-100005000D01*
X109292950Y-100005000D01*
X109511111Y-99983513D01*
X109791034Y-99898599D01*
X110049014Y-99760706D01*
X110275134Y-99575134D01*
X110460706Y-99349014D01*
X110490000Y-99294209D01*
X110519294Y-99349014D01*
X110704866Y-99575134D01*
X110930986Y-99760706D01*
X111188966Y-99898599D01*
X111468889Y-99983513D01*
X111687050Y-100005000D01*
X111832950Y-100005000D01*
X112051111Y-99983513D01*
X112331034Y-99898599D01*
X112589014Y-99760706D01*
X112815134Y-99575134D01*
X113000706Y-99349014D01*
X113030000Y-99294209D01*
X113059294Y-99349014D01*
X113244866Y-99575134D01*
X113470986Y-99760706D01*
X113728966Y-99898599D01*
X114008889Y-99983513D01*
X114227050Y-100005000D01*
X114372950Y-100005000D01*
X114591111Y-99983513D01*
X114871034Y-99898599D01*
X115129014Y-99760706D01*
X115355134Y-99575134D01*
X115540706Y-99349014D01*
X115570000Y-99294209D01*
X115599294Y-99349014D01*
X115784866Y-99575134D01*
X116010986Y-99760706D01*
X116268966Y-99898599D01*
X116548889Y-99983513D01*
X116767050Y-100005000D01*
X116912950Y-100005000D01*
X117131111Y-99983513D01*
X117411034Y-99898599D01*
X117669014Y-99760706D01*
X117895134Y-99575134D01*
X118080706Y-99349014D01*
X118110000Y-99294209D01*
X118139294Y-99349014D01*
X118324866Y-99575134D01*
X118550986Y-99760706D01*
X118808966Y-99898599D01*
X119088889Y-99983513D01*
X119307050Y-100005000D01*
X119452950Y-100005000D01*
X119671111Y-99983513D01*
X119951034Y-99898599D01*
X120209014Y-99760706D01*
X120435134Y-99575134D01*
X120620706Y-99349014D01*
X120650000Y-99294209D01*
X120679294Y-99349014D01*
X120864866Y-99575134D01*
X121090986Y-99760706D01*
X121348966Y-99898599D01*
X121628889Y-99983513D01*
X121847050Y-100005000D01*
X121992950Y-100005000D01*
X122211111Y-99983513D01*
X122491034Y-99898599D01*
X122749014Y-99760706D01*
X122975134Y-99575134D01*
X123160706Y-99349014D01*
X123190000Y-99294209D01*
X123219294Y-99349014D01*
X123404866Y-99575134D01*
X123630986Y-99760706D01*
X123888966Y-99898599D01*
X124168889Y-99983513D01*
X124387050Y-100005000D01*
X124532950Y-100005000D01*
X124751111Y-99983513D01*
X125031034Y-99898599D01*
X125289014Y-99760706D01*
X125515134Y-99575134D01*
X125700706Y-99349014D01*
X125730000Y-99294209D01*
X125759294Y-99349014D01*
X125944866Y-99575134D01*
X126170986Y-99760706D01*
X126428966Y-99898599D01*
X126708889Y-99983513D01*
X126927050Y-100005000D01*
X127072950Y-100005000D01*
X127291111Y-99983513D01*
X127571034Y-99898599D01*
X127829014Y-99760706D01*
X128055134Y-99575134D01*
X128240706Y-99349014D01*
X128270000Y-99294209D01*
X128299294Y-99349014D01*
X128484866Y-99575134D01*
X128710986Y-99760706D01*
X128968966Y-99898599D01*
X129248889Y-99983513D01*
X129467050Y-100005000D01*
X129612950Y-100005000D01*
X129831111Y-99983513D01*
X130111034Y-99898599D01*
X130369014Y-99760706D01*
X130595134Y-99575134D01*
X130780706Y-99349014D01*
X130810000Y-99294209D01*
X130839294Y-99349014D01*
X131024866Y-99575134D01*
X131250986Y-99760706D01*
X131508966Y-99898599D01*
X131788889Y-99983513D01*
X132007050Y-100005000D01*
X132152950Y-100005000D01*
X132371111Y-99983513D01*
X132651034Y-99898599D01*
X132909014Y-99760706D01*
X133135134Y-99575134D01*
X133320706Y-99349014D01*
X133350000Y-99294209D01*
X133379294Y-99349014D01*
X133564866Y-99575134D01*
X133790986Y-99760706D01*
X134048966Y-99898599D01*
X134328889Y-99983513D01*
X134547050Y-100005000D01*
X134692950Y-100005000D01*
X134911111Y-99983513D01*
X135191034Y-99898599D01*
X135449014Y-99760706D01*
X135675134Y-99575134D01*
X135860706Y-99349014D01*
X135895201Y-99284477D01*
X135964822Y-99401355D01*
X136159731Y-99617588D01*
X136393080Y-99791641D01*
X136655901Y-99916825D01*
X136803110Y-99961476D01*
X137033000Y-99840155D01*
X137033000Y-98647000D01*
X137013000Y-98647000D01*
X137013000Y-98393000D01*
X137033000Y-98393000D01*
X137033000Y-97199845D01*
X137287000Y-97199845D01*
X137287000Y-98393000D01*
X137307000Y-98393000D01*
X137307000Y-98647000D01*
X137287000Y-98647000D01*
X137287000Y-99840155D01*
X137516890Y-99961476D01*
X137664099Y-99916825D01*
X137926920Y-99791641D01*
X138160269Y-99617588D01*
X138355178Y-99401355D01*
X138424799Y-99284477D01*
X138459294Y-99349014D01*
X138644866Y-99575134D01*
X138870986Y-99760706D01*
X139128966Y-99898599D01*
X139408889Y-99983513D01*
X139627050Y-100005000D01*
X139772950Y-100005000D01*
X139991111Y-99983513D01*
X140271034Y-99898599D01*
X140529014Y-99760706D01*
X140755134Y-99575134D01*
X140940706Y-99349014D01*
X140970000Y-99294209D01*
X140999294Y-99349014D01*
X141184866Y-99575134D01*
X141410986Y-99760706D01*
X141668966Y-99898599D01*
X141948889Y-99983513D01*
X142167050Y-100005000D01*
X142312950Y-100005000D01*
X142531111Y-99983513D01*
X142811034Y-99898599D01*
X143069014Y-99760706D01*
X143295134Y-99575134D01*
X143480706Y-99349014D01*
X143510000Y-99294209D01*
X143539294Y-99349014D01*
X143724866Y-99575134D01*
X143950986Y-99760706D01*
X144208966Y-99898599D01*
X144488889Y-99983513D01*
X144707050Y-100005000D01*
X144852950Y-100005000D01*
X145071111Y-99983513D01*
X145351034Y-99898599D01*
X145609014Y-99760706D01*
X145835134Y-99575134D01*
X146020706Y-99349014D01*
X146050000Y-99294209D01*
X146079294Y-99349014D01*
X146264866Y-99575134D01*
X146490986Y-99760706D01*
X146748966Y-99898599D01*
X147028889Y-99983513D01*
X147247050Y-100005000D01*
X147392950Y-100005000D01*
X147611111Y-99983513D01*
X147891034Y-99898599D01*
X148149014Y-99760706D01*
X148375134Y-99575134D01*
X148560706Y-99349014D01*
X148590000Y-99294209D01*
X148619294Y-99349014D01*
X148804866Y-99575134D01*
X149030986Y-99760706D01*
X149288966Y-99898599D01*
X149568889Y-99983513D01*
X149787050Y-100005000D01*
X149932950Y-100005000D01*
X150151111Y-99983513D01*
X150431034Y-99898599D01*
X150689014Y-99760706D01*
X150915134Y-99575134D01*
X151100706Y-99349014D01*
X151238599Y-99091034D01*
X151323513Y-98811111D01*
X151352185Y-98520000D01*
X151323513Y-98228889D01*
X151238599Y-97948966D01*
X151100706Y-97690986D01*
X150915134Y-97464866D01*
X150689014Y-97279294D01*
X150431034Y-97141401D01*
X150151111Y-97056487D01*
X149932950Y-97035000D01*
X149787050Y-97035000D01*
X149568889Y-97056487D01*
X149288966Y-97141401D01*
X149030986Y-97279294D01*
X148804866Y-97464866D01*
X148619294Y-97690986D01*
X148590000Y-97745791D01*
X148560706Y-97690986D01*
X148375134Y-97464866D01*
X148149014Y-97279294D01*
X147891034Y-97141401D01*
X147611111Y-97056487D01*
X147392950Y-97035000D01*
X147247050Y-97035000D01*
X147028889Y-97056487D01*
X146748966Y-97141401D01*
X146490986Y-97279294D01*
X146264866Y-97464866D01*
X146079294Y-97690986D01*
X146050000Y-97745791D01*
X146020706Y-97690986D01*
X145835134Y-97464866D01*
X145609014Y-97279294D01*
X145351034Y-97141401D01*
X145071111Y-97056487D01*
X144852950Y-97035000D01*
X144707050Y-97035000D01*
X144488889Y-97056487D01*
X144208966Y-97141401D01*
X143950986Y-97279294D01*
X143724866Y-97464866D01*
X143539294Y-97690986D01*
X143510000Y-97745791D01*
X143480706Y-97690986D01*
X143295134Y-97464866D01*
X143069014Y-97279294D01*
X142811034Y-97141401D01*
X142531111Y-97056487D01*
X142312950Y-97035000D01*
X142167050Y-97035000D01*
X141948889Y-97056487D01*
X141668966Y-97141401D01*
X141410986Y-97279294D01*
X141184866Y-97464866D01*
X140999294Y-97690986D01*
X140970000Y-97745791D01*
X140940706Y-97690986D01*
X140755134Y-97464866D01*
X140529014Y-97279294D01*
X140271034Y-97141401D01*
X139991111Y-97056487D01*
X139772950Y-97035000D01*
X139627050Y-97035000D01*
X139408889Y-97056487D01*
X139128966Y-97141401D01*
X138870986Y-97279294D01*
X138644866Y-97464866D01*
X138459294Y-97690986D01*
X138424799Y-97755523D01*
X138355178Y-97638645D01*
X138160269Y-97422412D01*
X137926920Y-97248359D01*
X137664099Y-97123175D01*
X137516890Y-97078524D01*
X137287000Y-97199845D01*
X137033000Y-97199845D01*
X136803110Y-97078524D01*
X136655901Y-97123175D01*
X136393080Y-97248359D01*
X136159731Y-97422412D01*
X135964822Y-97638645D01*
X135895201Y-97755523D01*
X135860706Y-97690986D01*
X135675134Y-97464866D01*
X135449014Y-97279294D01*
X135191034Y-97141401D01*
X134911111Y-97056487D01*
X134692950Y-97035000D01*
X134547050Y-97035000D01*
X134328889Y-97056487D01*
X134048966Y-97141401D01*
X133790986Y-97279294D01*
X133564866Y-97464866D01*
X133379294Y-97690986D01*
X133350000Y-97745791D01*
X133320706Y-97690986D01*
X133135134Y-97464866D01*
X132909014Y-97279294D01*
X132651034Y-97141401D01*
X132371111Y-97056487D01*
X132152950Y-97035000D01*
X132007050Y-97035000D01*
X131788889Y-97056487D01*
X131508966Y-97141401D01*
X131250986Y-97279294D01*
X131024866Y-97464866D01*
X130839294Y-97690986D01*
X130810000Y-97745791D01*
X130780706Y-97690986D01*
X130595134Y-97464866D01*
X130369014Y-97279294D01*
X130111034Y-97141401D01*
X129831111Y-97056487D01*
X129612950Y-97035000D01*
X129467050Y-97035000D01*
X129248889Y-97056487D01*
X128968966Y-97141401D01*
X128710986Y-97279294D01*
X128484866Y-97464866D01*
X128299294Y-97690986D01*
X128270000Y-97745791D01*
X128240706Y-97690986D01*
X128055134Y-97464866D01*
X127829014Y-97279294D01*
X127571034Y-97141401D01*
X127291111Y-97056487D01*
X127072950Y-97035000D01*
X126927050Y-97035000D01*
X126708889Y-97056487D01*
X126428966Y-97141401D01*
X126170986Y-97279294D01*
X125944866Y-97464866D01*
X125759294Y-97690986D01*
X125730000Y-97745791D01*
X125700706Y-97690986D01*
X125515134Y-97464866D01*
X125289014Y-97279294D01*
X125031034Y-97141401D01*
X124751111Y-97056487D01*
X124532950Y-97035000D01*
X124387050Y-97035000D01*
X124168889Y-97056487D01*
X123888966Y-97141401D01*
X123630986Y-97279294D01*
X123404866Y-97464866D01*
X123219294Y-97690986D01*
X123190000Y-97745791D01*
X123160706Y-97690986D01*
X122975134Y-97464866D01*
X122749014Y-97279294D01*
X122491034Y-97141401D01*
X122211111Y-97056487D01*
X121992950Y-97035000D01*
X121847050Y-97035000D01*
X121628889Y-97056487D01*
X121348966Y-97141401D01*
X121090986Y-97279294D01*
X120864866Y-97464866D01*
X120679294Y-97690986D01*
X120650000Y-97745791D01*
X120620706Y-97690986D01*
X120435134Y-97464866D01*
X120209014Y-97279294D01*
X119951034Y-97141401D01*
X119671111Y-97056487D01*
X119452950Y-97035000D01*
X119307050Y-97035000D01*
X119088889Y-97056487D01*
X118808966Y-97141401D01*
X118550986Y-97279294D01*
X118324866Y-97464866D01*
X118139294Y-97690986D01*
X118110000Y-97745791D01*
X118080706Y-97690986D01*
X117895134Y-97464866D01*
X117669014Y-97279294D01*
X117411034Y-97141401D01*
X117131111Y-97056487D01*
X116912950Y-97035000D01*
X116767050Y-97035000D01*
X116548889Y-97056487D01*
X116268966Y-97141401D01*
X116010986Y-97279294D01*
X115784866Y-97464866D01*
X115599294Y-97690986D01*
X115570000Y-97745791D01*
X115540706Y-97690986D01*
X115355134Y-97464866D01*
X115129014Y-97279294D01*
X114871034Y-97141401D01*
X114591111Y-97056487D01*
X114372950Y-97035000D01*
X114227050Y-97035000D01*
X114008889Y-97056487D01*
X113728966Y-97141401D01*
X113470986Y-97279294D01*
X113244866Y-97464866D01*
X113059294Y-97690986D01*
X113030000Y-97745791D01*
X113000706Y-97690986D01*
X112815134Y-97464866D01*
X112589014Y-97279294D01*
X112331034Y-97141401D01*
X112051111Y-97056487D01*
X111832950Y-97035000D01*
X111687050Y-97035000D01*
X111468889Y-97056487D01*
X111188966Y-97141401D01*
X110930986Y-97279294D01*
X110704866Y-97464866D01*
X110519294Y-97690986D01*
X110490000Y-97745791D01*
X110460706Y-97690986D01*
X110275134Y-97464866D01*
X110049014Y-97279294D01*
X109791034Y-97141401D01*
X109511111Y-97056487D01*
X109292950Y-97035000D01*
X109147050Y-97035000D01*
X108928889Y-97056487D01*
X108648966Y-97141401D01*
X108390986Y-97279294D01*
X108164866Y-97464866D01*
X107979294Y-97690986D01*
X107950000Y-97745791D01*
X107920706Y-97690986D01*
X107735134Y-97464866D01*
X107509014Y-97279294D01*
X107251034Y-97141401D01*
X106971111Y-97056487D01*
X106752950Y-97035000D01*
X106607050Y-97035000D01*
X106388889Y-97056487D01*
X106108966Y-97141401D01*
X105850986Y-97279294D01*
X105624866Y-97464866D01*
X105600393Y-97494687D01*
X105579502Y-97425820D01*
X105520537Y-97315506D01*
X105441185Y-97218815D01*
X105344494Y-97139463D01*
X105234180Y-97080498D01*
X105114482Y-97044188D01*
X104990000Y-97031928D01*
X103290000Y-97031928D01*
X103165518Y-97044188D01*
X103045820Y-97080498D01*
X102935506Y-97139463D01*
X102838815Y-97218815D01*
X102759463Y-97315506D01*
X102700498Y-97425820D01*
X102664188Y-97545518D01*
X102651928Y-97670000D01*
X95483072Y-97670000D01*
X95483072Y-97560000D01*
X95470812Y-97435518D01*
X95434502Y-97315820D01*
X95375537Y-97205506D01*
X95296185Y-97108815D01*
X95199494Y-97029463D01*
X95089180Y-96970498D01*
X94969482Y-96934188D01*
X94845000Y-96921928D01*
X91845000Y-96921928D01*
X91720518Y-96934188D01*
X91600820Y-96970498D01*
X91490506Y-97029463D01*
X91393815Y-97108815D01*
X91314463Y-97205506D01*
X91255498Y-97315820D01*
X91219188Y-97435518D01*
X91206928Y-97560000D01*
X89027000Y-97560000D01*
X89027000Y-95471653D01*
X92032952Y-95471653D01*
X92188962Y-95787214D01*
X92563745Y-95978020D01*
X92968551Y-96092044D01*
X93387824Y-96124902D01*
X93805451Y-96075334D01*
X94205383Y-95945243D01*
X94501038Y-95787214D01*
X94657048Y-95471653D01*
X93345000Y-94159605D01*
X92032952Y-95471653D01*
X89027000Y-95471653D01*
X89027000Y-94022824D01*
X91200098Y-94022824D01*
X91249666Y-94440451D01*
X91379757Y-94840383D01*
X91537786Y-95136038D01*
X91853347Y-95292048D01*
X93165395Y-93980000D01*
X93524605Y-93980000D01*
X94836653Y-95292048D01*
X95152214Y-95136038D01*
X95343020Y-94761255D01*
X95457044Y-94356449D01*
X95489902Y-93937176D01*
X95440334Y-93519549D01*
X95310243Y-93119617D01*
X95152214Y-92823962D01*
X94836653Y-92667952D01*
X93524605Y-93980000D01*
X93165395Y-93980000D01*
X91853347Y-92667952D01*
X91537786Y-92823962D01*
X91346980Y-93198745D01*
X91232956Y-93603551D01*
X91200098Y-94022824D01*
X89027000Y-94022824D01*
X89027000Y-92488347D01*
X92032952Y-92488347D01*
X93345000Y-93800395D01*
X94657048Y-92488347D01*
X94501038Y-92172786D01*
X94126255Y-91981980D01*
X93721449Y-91867956D01*
X93302176Y-91835098D01*
X92884549Y-91884666D01*
X92484617Y-92014757D01*
X92188962Y-92172786D01*
X92032952Y-92488347D01*
X89027000Y-92488347D01*
X89027000Y-84455000D01*
X91852815Y-84455000D01*
X91881487Y-84746111D01*
X91966401Y-85026034D01*
X92104294Y-85284014D01*
X92289866Y-85510134D01*
X92515986Y-85695706D01*
X92773966Y-85833599D01*
X93053889Y-85918513D01*
X93272050Y-85940000D01*
X93417950Y-85940000D01*
X93636111Y-85918513D01*
X93916034Y-85833599D01*
X94174014Y-85695706D01*
X94400134Y-85510134D01*
X94585706Y-85284014D01*
X94723599Y-85026034D01*
X94808513Y-84746111D01*
X94837185Y-84455000D01*
X94808513Y-84163889D01*
X94723599Y-83883966D01*
X94585706Y-83625986D01*
X94400134Y-83399866D01*
X94174014Y-83214294D01*
X94109477Y-83179799D01*
X94226355Y-83110178D01*
X94442588Y-82915269D01*
X94616641Y-82681920D01*
X94741825Y-82419099D01*
X94786476Y-82271890D01*
X94665155Y-82042000D01*
X93472000Y-82042000D01*
X93472000Y-82062000D01*
X93218000Y-82062000D01*
X93218000Y-82042000D01*
X92024845Y-82042000D01*
X91903524Y-82271890D01*
X91948175Y-82419099D01*
X92073359Y-82681920D01*
X92247412Y-82915269D01*
X92463645Y-83110178D01*
X92580523Y-83179799D01*
X92515986Y-83214294D01*
X92289866Y-83399866D01*
X92104294Y-83625986D01*
X91966401Y-83883966D01*
X91881487Y-84163889D01*
X91852815Y-84455000D01*
X89027000Y-84455000D01*
X89027000Y-78525000D01*
X91856928Y-78525000D01*
X91856928Y-80225000D01*
X91869188Y-80349482D01*
X91905498Y-80469180D01*
X91964463Y-80579494D01*
X92043815Y-80676185D01*
X92140506Y-80755537D01*
X92250820Y-80814502D01*
X92331466Y-80838966D01*
X92247412Y-80914731D01*
X92073359Y-81148080D01*
X91948175Y-81410901D01*
X91903524Y-81558110D01*
X92024845Y-81788000D01*
X93218000Y-81788000D01*
X93218000Y-81768000D01*
X93472000Y-81768000D01*
X93472000Y-81788000D01*
X94665155Y-81788000D01*
X94786476Y-81558110D01*
X94741825Y-81410901D01*
X94616641Y-81148080D01*
X94442588Y-80914731D01*
X94358534Y-80838966D01*
X94439180Y-80814502D01*
X94549494Y-80755537D01*
X94646185Y-80676185D01*
X94725537Y-80579494D01*
X94784502Y-80469180D01*
X94820812Y-80349482D01*
X94833072Y-80225000D01*
X94833072Y-78525000D01*
X94820812Y-78400518D01*
X94784502Y-78280820D01*
X94725537Y-78170506D01*
X94646185Y-78073815D01*
X94549494Y-77994463D01*
X94439180Y-77935498D01*
X94319482Y-77899188D01*
X94195000Y-77886928D01*
X92495000Y-77886928D01*
X92370518Y-77899188D01*
X92250820Y-77935498D01*
X92140506Y-77994463D01*
X92043815Y-78073815D01*
X91964463Y-78170506D01*
X91905498Y-78280820D01*
X91869188Y-78400518D01*
X91856928Y-78525000D01*
X89027000Y-78525000D01*
X89027000Y-72762323D01*
X90043000Y-72762323D01*
X90043000Y-73287677D01*
X90145492Y-73802935D01*
X90346536Y-74288298D01*
X90638406Y-74725113D01*
X91009887Y-75096594D01*
X91446702Y-75388464D01*
X91932065Y-75589508D01*
X92447323Y-75692000D01*
X92972677Y-75692000D01*
X93487935Y-75589508D01*
X93973298Y-75388464D01*
X94410113Y-75096594D01*
X94781594Y-74725113D01*
X95073464Y-74288298D01*
X95244657Y-73875000D01*
X102651928Y-73875000D01*
X102664188Y-73999482D01*
X102700498Y-74119180D01*
X102759463Y-74229494D01*
X102838815Y-74326185D01*
X102935506Y-74405537D01*
X103045820Y-74464502D01*
X103165518Y-74500812D01*
X103290000Y-74513072D01*
X103854250Y-74510000D01*
X104013000Y-74351250D01*
X104013000Y-73152000D01*
X102813750Y-73152000D01*
X102655000Y-73310750D01*
X102651928Y-73875000D01*
X95244657Y-73875000D01*
X95274508Y-73802935D01*
X95377000Y-73287677D01*
X95377000Y-72762323D01*
X95274508Y-72247065D01*
X95244658Y-72175000D01*
X102651928Y-72175000D01*
X102655000Y-72739250D01*
X102813750Y-72898000D01*
X104013000Y-72898000D01*
X104013000Y-71698750D01*
X104267000Y-71698750D01*
X104267000Y-72898000D01*
X104287000Y-72898000D01*
X104287000Y-73152000D01*
X104267000Y-73152000D01*
X104267000Y-74351250D01*
X104425750Y-74510000D01*
X104990000Y-74513072D01*
X105114482Y-74500812D01*
X105234180Y-74464502D01*
X105344494Y-74405537D01*
X105441185Y-74326185D01*
X105520537Y-74229494D01*
X105579502Y-74119180D01*
X105600393Y-74050313D01*
X105624866Y-74080134D01*
X105850986Y-74265706D01*
X106108966Y-74403599D01*
X106388889Y-74488513D01*
X106607050Y-74510000D01*
X106752950Y-74510000D01*
X106971111Y-74488513D01*
X107251034Y-74403599D01*
X107509014Y-74265706D01*
X107735134Y-74080134D01*
X107920706Y-73854014D01*
X107950000Y-73799209D01*
X107979294Y-73854014D01*
X108164866Y-74080134D01*
X108390986Y-74265706D01*
X108648966Y-74403599D01*
X108928889Y-74488513D01*
X109147050Y-74510000D01*
X109292950Y-74510000D01*
X109511111Y-74488513D01*
X109791034Y-74403599D01*
X110049014Y-74265706D01*
X110275134Y-74080134D01*
X110460706Y-73854014D01*
X110490000Y-73799209D01*
X110519294Y-73854014D01*
X110704866Y-74080134D01*
X110930986Y-74265706D01*
X111188966Y-74403599D01*
X111468889Y-74488513D01*
X111687050Y-74510000D01*
X111832950Y-74510000D01*
X112051111Y-74488513D01*
X112331034Y-74403599D01*
X112589014Y-74265706D01*
X112815134Y-74080134D01*
X113000706Y-73854014D01*
X113030000Y-73799209D01*
X113059294Y-73854014D01*
X113244866Y-74080134D01*
X113470986Y-74265706D01*
X113728966Y-74403599D01*
X114008889Y-74488513D01*
X114227050Y-74510000D01*
X114372950Y-74510000D01*
X114591111Y-74488513D01*
X114871034Y-74403599D01*
X115129014Y-74265706D01*
X115355134Y-74080134D01*
X115540706Y-73854014D01*
X115570000Y-73799209D01*
X115599294Y-73854014D01*
X115784866Y-74080134D01*
X116010986Y-74265706D01*
X116268966Y-74403599D01*
X116548889Y-74488513D01*
X116767050Y-74510000D01*
X116912950Y-74510000D01*
X117131111Y-74488513D01*
X117411034Y-74403599D01*
X117669014Y-74265706D01*
X117895134Y-74080134D01*
X118080706Y-73854014D01*
X118115201Y-73789477D01*
X118184822Y-73906355D01*
X118379731Y-74122588D01*
X118613080Y-74296641D01*
X118875901Y-74421825D01*
X119023110Y-74466476D01*
X119253000Y-74345155D01*
X119253000Y-73152000D01*
X119233000Y-73152000D01*
X119233000Y-72898000D01*
X119253000Y-72898000D01*
X119253000Y-71704845D01*
X119507000Y-71704845D01*
X119507000Y-72898000D01*
X119527000Y-72898000D01*
X119527000Y-73152000D01*
X119507000Y-73152000D01*
X119507000Y-74345155D01*
X119736890Y-74466476D01*
X119884099Y-74421825D01*
X120146920Y-74296641D01*
X120380269Y-74122588D01*
X120575178Y-73906355D01*
X120644799Y-73789477D01*
X120679294Y-73854014D01*
X120864866Y-74080134D01*
X121090986Y-74265706D01*
X121348966Y-74403599D01*
X121628889Y-74488513D01*
X121847050Y-74510000D01*
X121992950Y-74510000D01*
X122211111Y-74488513D01*
X122491034Y-74403599D01*
X122749014Y-74265706D01*
X122975134Y-74080134D01*
X123160706Y-73854014D01*
X123190000Y-73799209D01*
X123219294Y-73854014D01*
X123404866Y-74080134D01*
X123630986Y-74265706D01*
X123888966Y-74403599D01*
X124168889Y-74488513D01*
X124387050Y-74510000D01*
X124532950Y-74510000D01*
X124751111Y-74488513D01*
X125031034Y-74403599D01*
X125289014Y-74265706D01*
X125515134Y-74080134D01*
X125700706Y-73854014D01*
X125730000Y-73799209D01*
X125759294Y-73854014D01*
X125944866Y-74080134D01*
X126170986Y-74265706D01*
X126428966Y-74403599D01*
X126708889Y-74488513D01*
X126927050Y-74510000D01*
X127072950Y-74510000D01*
X127291111Y-74488513D01*
X127571034Y-74403599D01*
X127829014Y-74265706D01*
X128055134Y-74080134D01*
X128240706Y-73854014D01*
X128270000Y-73799209D01*
X128299294Y-73854014D01*
X128484866Y-74080134D01*
X128710986Y-74265706D01*
X128968966Y-74403599D01*
X129248889Y-74488513D01*
X129467050Y-74510000D01*
X129612950Y-74510000D01*
X129831111Y-74488513D01*
X130111034Y-74403599D01*
X130369014Y-74265706D01*
X130595134Y-74080134D01*
X130780706Y-73854014D01*
X130816681Y-73786709D01*
X130839294Y-73829014D01*
X131024866Y-74055134D01*
X131250986Y-74240706D01*
X131508966Y-74378599D01*
X131788889Y-74463513D01*
X132007050Y-74485000D01*
X132152950Y-74485000D01*
X132371111Y-74463513D01*
X132651034Y-74378599D01*
X132909014Y-74240706D01*
X133135134Y-74055134D01*
X133320706Y-73829014D01*
X133343319Y-73786709D01*
X133379294Y-73854014D01*
X133564866Y-74080134D01*
X133790986Y-74265706D01*
X134048966Y-74403599D01*
X134328889Y-74488513D01*
X134547050Y-74510000D01*
X134692950Y-74510000D01*
X134911111Y-74488513D01*
X135191034Y-74403599D01*
X135449014Y-74265706D01*
X135675134Y-74080134D01*
X135860706Y-73854014D01*
X135890000Y-73799209D01*
X135919294Y-73854014D01*
X136104866Y-74080134D01*
X136330986Y-74265706D01*
X136588966Y-74403599D01*
X136868889Y-74488513D01*
X137087050Y-74510000D01*
X137232950Y-74510000D01*
X137451111Y-74488513D01*
X137731034Y-74403599D01*
X137989014Y-74265706D01*
X138215134Y-74080134D01*
X138400706Y-73854014D01*
X138430000Y-73799209D01*
X138459294Y-73854014D01*
X138644866Y-74080134D01*
X138870986Y-74265706D01*
X139128966Y-74403599D01*
X139408889Y-74488513D01*
X139627050Y-74510000D01*
X139772950Y-74510000D01*
X139991111Y-74488513D01*
X140271034Y-74403599D01*
X140529014Y-74265706D01*
X140755134Y-74080134D01*
X140940706Y-73854014D01*
X140970000Y-73799209D01*
X140999294Y-73854014D01*
X141184866Y-74080134D01*
X141410986Y-74265706D01*
X141668966Y-74403599D01*
X141948889Y-74488513D01*
X142167050Y-74510000D01*
X142312950Y-74510000D01*
X142531111Y-74488513D01*
X142811034Y-74403599D01*
X143069014Y-74265706D01*
X143295134Y-74080134D01*
X143480706Y-73854014D01*
X143510000Y-73799209D01*
X143539294Y-73854014D01*
X143724866Y-74080134D01*
X143950986Y-74265706D01*
X144208966Y-74403599D01*
X144488889Y-74488513D01*
X144707050Y-74510000D01*
X144852950Y-74510000D01*
X145071111Y-74488513D01*
X145351034Y-74403599D01*
X145609014Y-74265706D01*
X145835134Y-74080134D01*
X146020706Y-73854014D01*
X146050000Y-73799209D01*
X146079294Y-73854014D01*
X146264866Y-74080134D01*
X146490986Y-74265706D01*
X146748966Y-74403599D01*
X147028889Y-74488513D01*
X147247050Y-74510000D01*
X147392950Y-74510000D01*
X147611111Y-74488513D01*
X147891034Y-74403599D01*
X148149014Y-74265706D01*
X148375134Y-74080134D01*
X148560706Y-73854014D01*
X148590000Y-73799209D01*
X148619294Y-73854014D01*
X148804866Y-74080134D01*
X149030986Y-74265706D01*
X149288966Y-74403599D01*
X149568889Y-74488513D01*
X149787050Y-74510000D01*
X149932950Y-74510000D01*
X150151111Y-74488513D01*
X150431034Y-74403599D01*
X150689014Y-74265706D01*
X150915134Y-74080134D01*
X151100706Y-73854014D01*
X151238599Y-73596034D01*
X151323513Y-73316111D01*
X151352185Y-73025000D01*
X151326314Y-72762323D01*
X152908000Y-72762323D01*
X152908000Y-73287677D01*
X153010492Y-73802935D01*
X153211536Y-74288298D01*
X153503406Y-74725113D01*
X153874887Y-75096594D01*
X154311702Y-75388464D01*
X154797065Y-75589508D01*
X155312323Y-75692000D01*
X155837677Y-75692000D01*
X156352935Y-75589508D01*
X156838298Y-75388464D01*
X157275113Y-75096594D01*
X157646594Y-74725113D01*
X157938464Y-74288298D01*
X158139508Y-73802935D01*
X158242000Y-73287677D01*
X158242000Y-72762323D01*
X158139508Y-72247065D01*
X157938464Y-71761702D01*
X157646594Y-71324887D01*
X157275113Y-70953406D01*
X156838298Y-70661536D01*
X156352935Y-70460492D01*
X155837677Y-70358000D01*
X155312323Y-70358000D01*
X154797065Y-70460492D01*
X154311702Y-70661536D01*
X153874887Y-70953406D01*
X153503406Y-71324887D01*
X153211536Y-71761702D01*
X153010492Y-72247065D01*
X152908000Y-72762323D01*
X151326314Y-72762323D01*
X151323513Y-72733889D01*
X151238599Y-72453966D01*
X151100706Y-72195986D01*
X150915134Y-71969866D01*
X150689014Y-71784294D01*
X150431034Y-71646401D01*
X150151111Y-71561487D01*
X149932950Y-71540000D01*
X149787050Y-71540000D01*
X149568889Y-71561487D01*
X149288966Y-71646401D01*
X149030986Y-71784294D01*
X148804866Y-71969866D01*
X148619294Y-72195986D01*
X148590000Y-72250791D01*
X148560706Y-72195986D01*
X148375134Y-71969866D01*
X148149014Y-71784294D01*
X147891034Y-71646401D01*
X147611111Y-71561487D01*
X147392950Y-71540000D01*
X147247050Y-71540000D01*
X147028889Y-71561487D01*
X146748966Y-71646401D01*
X146490986Y-71784294D01*
X146264866Y-71969866D01*
X146079294Y-72195986D01*
X146050000Y-72250791D01*
X146020706Y-72195986D01*
X145835134Y-71969866D01*
X145609014Y-71784294D01*
X145351034Y-71646401D01*
X145071111Y-71561487D01*
X144852950Y-71540000D01*
X144707050Y-71540000D01*
X144488889Y-71561487D01*
X144208966Y-71646401D01*
X143950986Y-71784294D01*
X143724866Y-71969866D01*
X143539294Y-72195986D01*
X143510000Y-72250791D01*
X143480706Y-72195986D01*
X143295134Y-71969866D01*
X143069014Y-71784294D01*
X142811034Y-71646401D01*
X142531111Y-71561487D01*
X142312950Y-71540000D01*
X142167050Y-71540000D01*
X141948889Y-71561487D01*
X141668966Y-71646401D01*
X141410986Y-71784294D01*
X141184866Y-71969866D01*
X140999294Y-72195986D01*
X140970000Y-72250791D01*
X140940706Y-72195986D01*
X140755134Y-71969866D01*
X140529014Y-71784294D01*
X140271034Y-71646401D01*
X139991111Y-71561487D01*
X139772950Y-71540000D01*
X139627050Y-71540000D01*
X139408889Y-71561487D01*
X139128966Y-71646401D01*
X138870986Y-71784294D01*
X138644866Y-71969866D01*
X138459294Y-72195986D01*
X138430000Y-72250791D01*
X138400706Y-72195986D01*
X138215134Y-71969866D01*
X137989014Y-71784294D01*
X137731034Y-71646401D01*
X137451111Y-71561487D01*
X137232950Y-71540000D01*
X137087050Y-71540000D01*
X136868889Y-71561487D01*
X136588966Y-71646401D01*
X136330986Y-71784294D01*
X136104866Y-71969866D01*
X135919294Y-72195986D01*
X135890000Y-72250791D01*
X135860706Y-72195986D01*
X135675134Y-71969866D01*
X135449014Y-71784294D01*
X135191034Y-71646401D01*
X134911111Y-71561487D01*
X134692950Y-71540000D01*
X134547050Y-71540000D01*
X134328889Y-71561487D01*
X134048966Y-71646401D01*
X133790986Y-71784294D01*
X133564866Y-71969866D01*
X133379294Y-72195986D01*
X133356681Y-72238291D01*
X133320706Y-72170986D01*
X133135134Y-71944866D01*
X132909014Y-71759294D01*
X132651034Y-71621401D01*
X132371111Y-71536487D01*
X132152950Y-71515000D01*
X132007050Y-71515000D01*
X131788889Y-71536487D01*
X131508966Y-71621401D01*
X131250986Y-71759294D01*
X131024866Y-71944866D01*
X130839294Y-72170986D01*
X130803319Y-72238291D01*
X130780706Y-72195986D01*
X130595134Y-71969866D01*
X130369014Y-71784294D01*
X130111034Y-71646401D01*
X129831111Y-71561487D01*
X129612950Y-71540000D01*
X129467050Y-71540000D01*
X129248889Y-71561487D01*
X128968966Y-71646401D01*
X128710986Y-71784294D01*
X128484866Y-71969866D01*
X128299294Y-72195986D01*
X128270000Y-72250791D01*
X128240706Y-72195986D01*
X128055134Y-71969866D01*
X127829014Y-71784294D01*
X127571034Y-71646401D01*
X127291111Y-71561487D01*
X127072950Y-71540000D01*
X126927050Y-71540000D01*
X126708889Y-71561487D01*
X126428966Y-71646401D01*
X126170986Y-71784294D01*
X125944866Y-71969866D01*
X125759294Y-72195986D01*
X125730000Y-72250791D01*
X125700706Y-72195986D01*
X125515134Y-71969866D01*
X125289014Y-71784294D01*
X125031034Y-71646401D01*
X124751111Y-71561487D01*
X124532950Y-71540000D01*
X124387050Y-71540000D01*
X124168889Y-71561487D01*
X123888966Y-71646401D01*
X123630986Y-71784294D01*
X123404866Y-71969866D01*
X123219294Y-72195986D01*
X123190000Y-72250791D01*
X123160706Y-72195986D01*
X122975134Y-71969866D01*
X122749014Y-71784294D01*
X122491034Y-71646401D01*
X122211111Y-71561487D01*
X121992950Y-71540000D01*
X121847050Y-71540000D01*
X121628889Y-71561487D01*
X121348966Y-71646401D01*
X121090986Y-71784294D01*
X120864866Y-71969866D01*
X120679294Y-72195986D01*
X120644799Y-72260523D01*
X120575178Y-72143645D01*
X120380269Y-71927412D01*
X120146920Y-71753359D01*
X119884099Y-71628175D01*
X119736890Y-71583524D01*
X119507000Y-71704845D01*
X119253000Y-71704845D01*
X119023110Y-71583524D01*
X118875901Y-71628175D01*
X118613080Y-71753359D01*
X118379731Y-71927412D01*
X118184822Y-72143645D01*
X118115201Y-72260523D01*
X118080706Y-72195986D01*
X117895134Y-71969866D01*
X117669014Y-71784294D01*
X117411034Y-71646401D01*
X117131111Y-71561487D01*
X116912950Y-71540000D01*
X116767050Y-71540000D01*
X116548889Y-71561487D01*
X116268966Y-71646401D01*
X116010986Y-71784294D01*
X115784866Y-71969866D01*
X115599294Y-72195986D01*
X115570000Y-72250791D01*
X115540706Y-72195986D01*
X115355134Y-71969866D01*
X115129014Y-71784294D01*
X114871034Y-71646401D01*
X114591111Y-71561487D01*
X114372950Y-71540000D01*
X114227050Y-71540000D01*
X114008889Y-71561487D01*
X113728966Y-71646401D01*
X113470986Y-71784294D01*
X113244866Y-71969866D01*
X113059294Y-72195986D01*
X113030000Y-72250791D01*
X113000706Y-72195986D01*
X112815134Y-71969866D01*
X112589014Y-71784294D01*
X112331034Y-71646401D01*
X112051111Y-71561487D01*
X111832950Y-71540000D01*
X111687050Y-71540000D01*
X111468889Y-71561487D01*
X111188966Y-71646401D01*
X110930986Y-71784294D01*
X110704866Y-71969866D01*
X110519294Y-72195986D01*
X110490000Y-72250791D01*
X110460706Y-72195986D01*
X110275134Y-71969866D01*
X110049014Y-71784294D01*
X109791034Y-71646401D01*
X109511111Y-71561487D01*
X109292950Y-71540000D01*
X109147050Y-71540000D01*
X108928889Y-71561487D01*
X108648966Y-71646401D01*
X108390986Y-71784294D01*
X108164866Y-71969866D01*
X107979294Y-72195986D01*
X107950000Y-72250791D01*
X107920706Y-72195986D01*
X107735134Y-71969866D01*
X107509014Y-71784294D01*
X107251034Y-71646401D01*
X106971111Y-71561487D01*
X106752950Y-71540000D01*
X106607050Y-71540000D01*
X106388889Y-71561487D01*
X106108966Y-71646401D01*
X105850986Y-71784294D01*
X105624866Y-71969866D01*
X105600393Y-71999687D01*
X105579502Y-71930820D01*
X105520537Y-71820506D01*
X105441185Y-71723815D01*
X105344494Y-71644463D01*
X105234180Y-71585498D01*
X105114482Y-71549188D01*
X104990000Y-71536928D01*
X104425750Y-71540000D01*
X104267000Y-71698750D01*
X104013000Y-71698750D01*
X103854250Y-71540000D01*
X103290000Y-71536928D01*
X103165518Y-71549188D01*
X103045820Y-71585498D01*
X102935506Y-71644463D01*
X102838815Y-71723815D01*
X102759463Y-71820506D01*
X102700498Y-71930820D01*
X102664188Y-72050518D01*
X102651928Y-72175000D01*
X95244658Y-72175000D01*
X95073464Y-71761702D01*
X94781594Y-71324887D01*
X94410113Y-70953406D01*
X93973298Y-70661536D01*
X93487935Y-70460492D01*
X92972677Y-70358000D01*
X92447323Y-70358000D01*
X91932065Y-70460492D01*
X91446702Y-70661536D01*
X91009887Y-70953406D01*
X90638406Y-71324887D01*
X90346536Y-71761702D01*
X90145492Y-72247065D01*
X90043000Y-72762323D01*
X89027000Y-72762323D01*
X89027000Y-69977000D01*
X158623000Y-69977000D01*
X158623000Y-120523000D01*
M02*
