G04 #@! TF.GenerationSoftware,KiCad,Pcbnew,(5.1.2)-2*
G04 #@! TF.CreationDate,2019-10-27T20:23:59-05:00*
G04 #@! TF.ProjectId,ESP_board,4553505f-626f-4617-9264-2e6b69636164,rev?*
G04 #@! TF.SameCoordinates,Original*
G04 #@! TF.FileFunction,Soldermask,Bot*
G04 #@! TF.FilePolarity,Negative*
%FSLAX46Y46*%
G04 Gerber Fmt 4.6, Leading zero omitted, Abs format (unit mm)*
G04 Created by KiCad (PCBNEW (5.1.2)-2) date 2019-10-27 20:23:59*
%MOMM*%
%LPD*%
G04 APERTURE LIST*
%ADD10C,0.100000*%
G04 APERTURE END LIST*
D10*
G36*
X93317589Y-114837048D02*
G01*
X93696671Y-114994069D01*
X94037835Y-115222028D01*
X94327972Y-115512165D01*
X94555931Y-115853329D01*
X94712952Y-116232411D01*
X94793000Y-116634842D01*
X94793000Y-117045158D01*
X94712952Y-117447589D01*
X94555931Y-117826671D01*
X94327972Y-118167835D01*
X94037835Y-118457972D01*
X93696671Y-118685931D01*
X93317589Y-118842952D01*
X92915159Y-118923000D01*
X92504841Y-118923000D01*
X92102411Y-118842952D01*
X91723329Y-118685931D01*
X91382165Y-118457972D01*
X91092028Y-118167835D01*
X90864069Y-117826671D01*
X90707048Y-117447589D01*
X90627000Y-117045158D01*
X90627000Y-116634842D01*
X90707048Y-116232411D01*
X90864069Y-115853329D01*
X91092028Y-115512165D01*
X91382165Y-115222028D01*
X91723329Y-114994069D01*
X92102411Y-114837048D01*
X92504841Y-114757000D01*
X92915159Y-114757000D01*
X93317589Y-114837048D01*
X93317589Y-114837048D01*
G37*
G36*
X154621000Y-116521000D02*
G01*
X152719000Y-116521000D01*
X152719000Y-114619000D01*
X154621000Y-114619000D01*
X154621000Y-116521000D01*
X154621000Y-116521000D01*
G37*
G36*
X153947395Y-112115546D02*
G01*
X154120466Y-112187234D01*
X154120467Y-112187235D01*
X154276227Y-112291310D01*
X154408690Y-112423773D01*
X154408691Y-112423775D01*
X154512766Y-112579534D01*
X154584454Y-112752605D01*
X154621000Y-112936333D01*
X154621000Y-113123667D01*
X154584454Y-113307395D01*
X154512766Y-113480466D01*
X154512765Y-113480467D01*
X154408690Y-113636227D01*
X154276227Y-113768690D01*
X154197818Y-113821081D01*
X154120466Y-113872766D01*
X153947395Y-113944454D01*
X153763667Y-113981000D01*
X153576333Y-113981000D01*
X153392605Y-113944454D01*
X153219534Y-113872766D01*
X153142182Y-113821081D01*
X153063773Y-113768690D01*
X152931310Y-113636227D01*
X152827235Y-113480467D01*
X152827234Y-113480466D01*
X152755546Y-113307395D01*
X152719000Y-113123667D01*
X152719000Y-112936333D01*
X152755546Y-112752605D01*
X152827234Y-112579534D01*
X152931309Y-112423775D01*
X152931310Y-112423773D01*
X153063773Y-112291310D01*
X153219533Y-112187235D01*
X153219534Y-112187234D01*
X153392605Y-112115546D01*
X153576333Y-112079000D01*
X153763667Y-112079000D01*
X153947395Y-112115546D01*
X153947395Y-112115546D01*
G37*
G36*
X118855443Y-111500519D02*
G01*
X118921627Y-111507037D01*
X119091466Y-111558557D01*
X119247991Y-111642222D01*
X119283729Y-111671552D01*
X119385186Y-111754814D01*
X119468448Y-111856271D01*
X119497778Y-111892009D01*
X119581443Y-112048534D01*
X119632963Y-112218373D01*
X119650359Y-112395000D01*
X119632963Y-112571627D01*
X119581443Y-112741466D01*
X119497778Y-112897991D01*
X119468448Y-112933729D01*
X119385186Y-113035186D01*
X119283729Y-113118448D01*
X119247991Y-113147778D01*
X119091466Y-113231443D01*
X118921627Y-113282963D01*
X118855443Y-113289481D01*
X118789260Y-113296000D01*
X118700740Y-113296000D01*
X118634557Y-113289481D01*
X118568373Y-113282963D01*
X118398534Y-113231443D01*
X118242009Y-113147778D01*
X118206271Y-113118448D01*
X118104814Y-113035186D01*
X118021552Y-112933729D01*
X117992222Y-112897991D01*
X117908557Y-112741466D01*
X117857037Y-112571627D01*
X117839641Y-112395000D01*
X117857037Y-112218373D01*
X117908557Y-112048534D01*
X117992222Y-111892009D01*
X118021552Y-111856271D01*
X118104814Y-111754814D01*
X118206271Y-111671552D01*
X118242009Y-111642222D01*
X118398534Y-111558557D01*
X118568373Y-111507037D01*
X118634557Y-111500519D01*
X118700740Y-111494000D01*
X118789260Y-111494000D01*
X118855443Y-111500519D01*
X118855443Y-111500519D01*
G37*
G36*
X121395443Y-111500519D02*
G01*
X121461627Y-111507037D01*
X121631466Y-111558557D01*
X121787991Y-111642222D01*
X121823729Y-111671552D01*
X121925186Y-111754814D01*
X122008448Y-111856271D01*
X122037778Y-111892009D01*
X122121443Y-112048534D01*
X122172963Y-112218373D01*
X122190359Y-112395000D01*
X122172963Y-112571627D01*
X122121443Y-112741466D01*
X122037778Y-112897991D01*
X122008448Y-112933729D01*
X121925186Y-113035186D01*
X121823729Y-113118448D01*
X121787991Y-113147778D01*
X121631466Y-113231443D01*
X121461627Y-113282963D01*
X121395443Y-113289481D01*
X121329260Y-113296000D01*
X121240740Y-113296000D01*
X121174557Y-113289481D01*
X121108373Y-113282963D01*
X120938534Y-113231443D01*
X120782009Y-113147778D01*
X120746271Y-113118448D01*
X120644814Y-113035186D01*
X120561552Y-112933729D01*
X120532222Y-112897991D01*
X120448557Y-112741466D01*
X120397037Y-112571627D01*
X120379641Y-112395000D01*
X120397037Y-112218373D01*
X120448557Y-112048534D01*
X120532222Y-111892009D01*
X120561552Y-111856271D01*
X120644814Y-111754814D01*
X120746271Y-111671552D01*
X120782009Y-111642222D01*
X120938534Y-111558557D01*
X121108373Y-111507037D01*
X121174557Y-111500519D01*
X121240740Y-111494000D01*
X121329260Y-111494000D01*
X121395443Y-111500519D01*
X121395443Y-111500519D01*
G37*
G36*
X123935443Y-111500519D02*
G01*
X124001627Y-111507037D01*
X124171466Y-111558557D01*
X124327991Y-111642222D01*
X124363729Y-111671552D01*
X124465186Y-111754814D01*
X124548448Y-111856271D01*
X124577778Y-111892009D01*
X124661443Y-112048534D01*
X124712963Y-112218373D01*
X124730359Y-112395000D01*
X124712963Y-112571627D01*
X124661443Y-112741466D01*
X124577778Y-112897991D01*
X124548448Y-112933729D01*
X124465186Y-113035186D01*
X124363729Y-113118448D01*
X124327991Y-113147778D01*
X124171466Y-113231443D01*
X124001627Y-113282963D01*
X123935443Y-113289481D01*
X123869260Y-113296000D01*
X123780740Y-113296000D01*
X123714557Y-113289481D01*
X123648373Y-113282963D01*
X123478534Y-113231443D01*
X123322009Y-113147778D01*
X123286271Y-113118448D01*
X123184814Y-113035186D01*
X123101552Y-112933729D01*
X123072222Y-112897991D01*
X122988557Y-112741466D01*
X122937037Y-112571627D01*
X122919641Y-112395000D01*
X122937037Y-112218373D01*
X122988557Y-112048534D01*
X123072222Y-111892009D01*
X123101552Y-111856271D01*
X123184814Y-111754814D01*
X123286271Y-111671552D01*
X123322009Y-111642222D01*
X123478534Y-111558557D01*
X123648373Y-111507037D01*
X123714557Y-111500519D01*
X123780740Y-111494000D01*
X123869260Y-111494000D01*
X123935443Y-111500519D01*
X123935443Y-111500519D01*
G37*
G36*
X126475443Y-111500519D02*
G01*
X126541627Y-111507037D01*
X126711466Y-111558557D01*
X126867991Y-111642222D01*
X126903729Y-111671552D01*
X127005186Y-111754814D01*
X127088448Y-111856271D01*
X127117778Y-111892009D01*
X127201443Y-112048534D01*
X127252963Y-112218373D01*
X127270359Y-112395000D01*
X127252963Y-112571627D01*
X127201443Y-112741466D01*
X127117778Y-112897991D01*
X127088448Y-112933729D01*
X127005186Y-113035186D01*
X126903729Y-113118448D01*
X126867991Y-113147778D01*
X126711466Y-113231443D01*
X126541627Y-113282963D01*
X126475443Y-113289481D01*
X126409260Y-113296000D01*
X126320740Y-113296000D01*
X126254557Y-113289481D01*
X126188373Y-113282963D01*
X126018534Y-113231443D01*
X125862009Y-113147778D01*
X125826271Y-113118448D01*
X125724814Y-113035186D01*
X125641552Y-112933729D01*
X125612222Y-112897991D01*
X125528557Y-112741466D01*
X125477037Y-112571627D01*
X125459641Y-112395000D01*
X125477037Y-112218373D01*
X125528557Y-112048534D01*
X125612222Y-111892009D01*
X125641552Y-111856271D01*
X125724814Y-111754814D01*
X125826271Y-111671552D01*
X125862009Y-111642222D01*
X126018534Y-111558557D01*
X126188373Y-111507037D01*
X126254557Y-111500519D01*
X126320740Y-111494000D01*
X126409260Y-111494000D01*
X126475443Y-111500519D01*
X126475443Y-111500519D01*
G37*
G36*
X129015443Y-111500519D02*
G01*
X129081627Y-111507037D01*
X129251466Y-111558557D01*
X129407991Y-111642222D01*
X129443729Y-111671552D01*
X129545186Y-111754814D01*
X129628448Y-111856271D01*
X129657778Y-111892009D01*
X129741443Y-112048534D01*
X129792963Y-112218373D01*
X129810359Y-112395000D01*
X129792963Y-112571627D01*
X129741443Y-112741466D01*
X129657778Y-112897991D01*
X129628448Y-112933729D01*
X129545186Y-113035186D01*
X129443729Y-113118448D01*
X129407991Y-113147778D01*
X129251466Y-113231443D01*
X129081627Y-113282963D01*
X129015443Y-113289481D01*
X128949260Y-113296000D01*
X128860740Y-113296000D01*
X128794557Y-113289481D01*
X128728373Y-113282963D01*
X128558534Y-113231443D01*
X128402009Y-113147778D01*
X128366271Y-113118448D01*
X128264814Y-113035186D01*
X128181552Y-112933729D01*
X128152222Y-112897991D01*
X128068557Y-112741466D01*
X128017037Y-112571627D01*
X127999641Y-112395000D01*
X128017037Y-112218373D01*
X128068557Y-112048534D01*
X128152222Y-111892009D01*
X128181552Y-111856271D01*
X128264814Y-111754814D01*
X128366271Y-111671552D01*
X128402009Y-111642222D01*
X128558534Y-111558557D01*
X128728373Y-111507037D01*
X128794557Y-111500519D01*
X128860740Y-111494000D01*
X128949260Y-111494000D01*
X129015443Y-111500519D01*
X129015443Y-111500519D01*
G37*
G36*
X134095443Y-111500519D02*
G01*
X134161627Y-111507037D01*
X134331466Y-111558557D01*
X134487991Y-111642222D01*
X134523729Y-111671552D01*
X134625186Y-111754814D01*
X134708448Y-111856271D01*
X134737778Y-111892009D01*
X134821443Y-112048534D01*
X134872963Y-112218373D01*
X134890359Y-112395000D01*
X134872963Y-112571627D01*
X134821443Y-112741466D01*
X134737778Y-112897991D01*
X134708448Y-112933729D01*
X134625186Y-113035186D01*
X134523729Y-113118448D01*
X134487991Y-113147778D01*
X134331466Y-113231443D01*
X134161627Y-113282963D01*
X134095443Y-113289481D01*
X134029260Y-113296000D01*
X133940740Y-113296000D01*
X133874557Y-113289481D01*
X133808373Y-113282963D01*
X133638534Y-113231443D01*
X133482009Y-113147778D01*
X133446271Y-113118448D01*
X133344814Y-113035186D01*
X133261552Y-112933729D01*
X133232222Y-112897991D01*
X133148557Y-112741466D01*
X133097037Y-112571627D01*
X133079641Y-112395000D01*
X133097037Y-112218373D01*
X133148557Y-112048534D01*
X133232222Y-111892009D01*
X133261552Y-111856271D01*
X133344814Y-111754814D01*
X133446271Y-111671552D01*
X133482009Y-111642222D01*
X133638534Y-111558557D01*
X133808373Y-111507037D01*
X133874557Y-111500519D01*
X133940740Y-111494000D01*
X134029260Y-111494000D01*
X134095443Y-111500519D01*
X134095443Y-111500519D01*
G37*
G36*
X136635443Y-111500519D02*
G01*
X136701627Y-111507037D01*
X136871466Y-111558557D01*
X137027991Y-111642222D01*
X137063729Y-111671552D01*
X137165186Y-111754814D01*
X137248448Y-111856271D01*
X137277778Y-111892009D01*
X137361443Y-112048534D01*
X137412963Y-112218373D01*
X137430359Y-112395000D01*
X137412963Y-112571627D01*
X137361443Y-112741466D01*
X137277778Y-112897991D01*
X137248448Y-112933729D01*
X137165186Y-113035186D01*
X137063729Y-113118448D01*
X137027991Y-113147778D01*
X136871466Y-113231443D01*
X136701627Y-113282963D01*
X136635443Y-113289481D01*
X136569260Y-113296000D01*
X136480740Y-113296000D01*
X136414557Y-113289481D01*
X136348373Y-113282963D01*
X136178534Y-113231443D01*
X136022009Y-113147778D01*
X135986271Y-113118448D01*
X135884814Y-113035186D01*
X135801552Y-112933729D01*
X135772222Y-112897991D01*
X135688557Y-112741466D01*
X135637037Y-112571627D01*
X135619641Y-112395000D01*
X135637037Y-112218373D01*
X135688557Y-112048534D01*
X135772222Y-111892009D01*
X135801552Y-111856271D01*
X135884814Y-111754814D01*
X135986271Y-111671552D01*
X136022009Y-111642222D01*
X136178534Y-111558557D01*
X136348373Y-111507037D01*
X136414557Y-111500519D01*
X136480740Y-111494000D01*
X136569260Y-111494000D01*
X136635443Y-111500519D01*
X136635443Y-111500519D01*
G37*
G36*
X139175443Y-111500519D02*
G01*
X139241627Y-111507037D01*
X139411466Y-111558557D01*
X139567991Y-111642222D01*
X139603729Y-111671552D01*
X139705186Y-111754814D01*
X139788448Y-111856271D01*
X139817778Y-111892009D01*
X139901443Y-112048534D01*
X139952963Y-112218373D01*
X139970359Y-112395000D01*
X139952963Y-112571627D01*
X139901443Y-112741466D01*
X139817778Y-112897991D01*
X139788448Y-112933729D01*
X139705186Y-113035186D01*
X139603729Y-113118448D01*
X139567991Y-113147778D01*
X139411466Y-113231443D01*
X139241627Y-113282963D01*
X139175443Y-113289481D01*
X139109260Y-113296000D01*
X139020740Y-113296000D01*
X138954557Y-113289481D01*
X138888373Y-113282963D01*
X138718534Y-113231443D01*
X138562009Y-113147778D01*
X138526271Y-113118448D01*
X138424814Y-113035186D01*
X138341552Y-112933729D01*
X138312222Y-112897991D01*
X138228557Y-112741466D01*
X138177037Y-112571627D01*
X138159641Y-112395000D01*
X138177037Y-112218373D01*
X138228557Y-112048534D01*
X138312222Y-111892009D01*
X138341552Y-111856271D01*
X138424814Y-111754814D01*
X138526271Y-111671552D01*
X138562009Y-111642222D01*
X138718534Y-111558557D01*
X138888373Y-111507037D01*
X138954557Y-111500519D01*
X139020740Y-111494000D01*
X139109260Y-111494000D01*
X139175443Y-111500519D01*
X139175443Y-111500519D01*
G37*
G36*
X131555443Y-111500519D02*
G01*
X131621627Y-111507037D01*
X131791466Y-111558557D01*
X131947991Y-111642222D01*
X131983729Y-111671552D01*
X132085186Y-111754814D01*
X132168448Y-111856271D01*
X132197778Y-111892009D01*
X132281443Y-112048534D01*
X132332963Y-112218373D01*
X132350359Y-112395000D01*
X132332963Y-112571627D01*
X132281443Y-112741466D01*
X132197778Y-112897991D01*
X132168448Y-112933729D01*
X132085186Y-113035186D01*
X131983729Y-113118448D01*
X131947991Y-113147778D01*
X131791466Y-113231443D01*
X131621627Y-113282963D01*
X131555443Y-113289481D01*
X131489260Y-113296000D01*
X131400740Y-113296000D01*
X131334557Y-113289481D01*
X131268373Y-113282963D01*
X131098534Y-113231443D01*
X130942009Y-113147778D01*
X130906271Y-113118448D01*
X130804814Y-113035186D01*
X130721552Y-112933729D01*
X130692222Y-112897991D01*
X130608557Y-112741466D01*
X130557037Y-112571627D01*
X130539641Y-112395000D01*
X130557037Y-112218373D01*
X130608557Y-112048534D01*
X130692222Y-111892009D01*
X130721552Y-111856271D01*
X130804814Y-111754814D01*
X130906271Y-111671552D01*
X130942009Y-111642222D01*
X131098534Y-111558557D01*
X131268373Y-111507037D01*
X131334557Y-111500519D01*
X131400740Y-111494000D01*
X131489260Y-111494000D01*
X131555443Y-111500519D01*
X131555443Y-111500519D01*
G37*
G36*
X117106000Y-113296000D02*
G01*
X115304000Y-113296000D01*
X115304000Y-111494000D01*
X117106000Y-111494000D01*
X117106000Y-113296000D01*
X117106000Y-113296000D01*
G37*
G36*
X154621000Y-109536000D02*
G01*
X152719000Y-109536000D01*
X152719000Y-107634000D01*
X154621000Y-107634000D01*
X154621000Y-109536000D01*
X154621000Y-109536000D01*
G37*
G36*
X153947395Y-105130546D02*
G01*
X154120466Y-105202234D01*
X154120467Y-105202235D01*
X154276227Y-105306310D01*
X154408690Y-105438773D01*
X154408691Y-105438775D01*
X154512766Y-105594534D01*
X154584454Y-105767605D01*
X154621000Y-105951333D01*
X154621000Y-106138667D01*
X154584454Y-106322395D01*
X154512766Y-106495466D01*
X154512765Y-106495467D01*
X154408690Y-106651227D01*
X154276227Y-106783690D01*
X154197818Y-106836081D01*
X154120466Y-106887766D01*
X153947395Y-106959454D01*
X153763667Y-106996000D01*
X153576333Y-106996000D01*
X153392605Y-106959454D01*
X153219534Y-106887766D01*
X153142182Y-106836081D01*
X153063773Y-106783690D01*
X152931310Y-106651227D01*
X152827235Y-106495467D01*
X152827234Y-106495466D01*
X152755546Y-106322395D01*
X152719000Y-106138667D01*
X152719000Y-105951333D01*
X152755546Y-105767605D01*
X152827234Y-105594534D01*
X152931309Y-105438775D01*
X152931310Y-105438773D01*
X153063773Y-105306310D01*
X153219533Y-105202235D01*
X153219534Y-105202234D01*
X153392605Y-105130546D01*
X153576333Y-105094000D01*
X153763667Y-105094000D01*
X153947395Y-105130546D01*
X153947395Y-105130546D01*
G37*
G36*
X94896000Y-100611000D02*
G01*
X91794000Y-100611000D01*
X91794000Y-97509000D01*
X94896000Y-97509000D01*
X94896000Y-100611000D01*
X94896000Y-100611000D01*
G37*
G36*
X127110442Y-97625518D02*
G01*
X127176627Y-97632037D01*
X127346466Y-97683557D01*
X127502991Y-97767222D01*
X127538729Y-97796552D01*
X127640186Y-97879814D01*
X127723448Y-97981271D01*
X127752778Y-98017009D01*
X127836443Y-98173534D01*
X127887963Y-98343373D01*
X127905359Y-98520000D01*
X127887963Y-98696627D01*
X127836443Y-98866466D01*
X127752778Y-99022991D01*
X127723448Y-99058729D01*
X127640186Y-99160186D01*
X127538729Y-99243448D01*
X127502991Y-99272778D01*
X127346466Y-99356443D01*
X127176627Y-99407963D01*
X127110443Y-99414481D01*
X127044260Y-99421000D01*
X126955740Y-99421000D01*
X126889558Y-99414482D01*
X126823373Y-99407963D01*
X126653534Y-99356443D01*
X126497009Y-99272778D01*
X126461271Y-99243448D01*
X126359814Y-99160186D01*
X126276552Y-99058729D01*
X126247222Y-99022991D01*
X126163557Y-98866466D01*
X126112037Y-98696627D01*
X126094641Y-98520000D01*
X126112037Y-98343373D01*
X126163557Y-98173534D01*
X126247222Y-98017009D01*
X126276552Y-97981271D01*
X126359814Y-97879814D01*
X126461271Y-97796552D01*
X126497009Y-97767222D01*
X126653534Y-97683557D01*
X126823373Y-97632037D01*
X126889558Y-97625518D01*
X126955740Y-97619000D01*
X127044260Y-97619000D01*
X127110442Y-97625518D01*
X127110442Y-97625518D01*
G37*
G36*
X124570442Y-97625518D02*
G01*
X124636627Y-97632037D01*
X124806466Y-97683557D01*
X124962991Y-97767222D01*
X124998729Y-97796552D01*
X125100186Y-97879814D01*
X125183448Y-97981271D01*
X125212778Y-98017009D01*
X125296443Y-98173534D01*
X125347963Y-98343373D01*
X125365359Y-98520000D01*
X125347963Y-98696627D01*
X125296443Y-98866466D01*
X125212778Y-99022991D01*
X125183448Y-99058729D01*
X125100186Y-99160186D01*
X124998729Y-99243448D01*
X124962991Y-99272778D01*
X124806466Y-99356443D01*
X124636627Y-99407963D01*
X124570443Y-99414481D01*
X124504260Y-99421000D01*
X124415740Y-99421000D01*
X124349558Y-99414482D01*
X124283373Y-99407963D01*
X124113534Y-99356443D01*
X123957009Y-99272778D01*
X123921271Y-99243448D01*
X123819814Y-99160186D01*
X123736552Y-99058729D01*
X123707222Y-99022991D01*
X123623557Y-98866466D01*
X123572037Y-98696627D01*
X123554641Y-98520000D01*
X123572037Y-98343373D01*
X123623557Y-98173534D01*
X123707222Y-98017009D01*
X123736552Y-97981271D01*
X123819814Y-97879814D01*
X123921271Y-97796552D01*
X123957009Y-97767222D01*
X124113534Y-97683557D01*
X124283373Y-97632037D01*
X124349558Y-97625518D01*
X124415740Y-97619000D01*
X124504260Y-97619000D01*
X124570442Y-97625518D01*
X124570442Y-97625518D01*
G37*
G36*
X122030442Y-97625518D02*
G01*
X122096627Y-97632037D01*
X122266466Y-97683557D01*
X122422991Y-97767222D01*
X122458729Y-97796552D01*
X122560186Y-97879814D01*
X122643448Y-97981271D01*
X122672778Y-98017009D01*
X122756443Y-98173534D01*
X122807963Y-98343373D01*
X122825359Y-98520000D01*
X122807963Y-98696627D01*
X122756443Y-98866466D01*
X122672778Y-99022991D01*
X122643448Y-99058729D01*
X122560186Y-99160186D01*
X122458729Y-99243448D01*
X122422991Y-99272778D01*
X122266466Y-99356443D01*
X122096627Y-99407963D01*
X122030443Y-99414481D01*
X121964260Y-99421000D01*
X121875740Y-99421000D01*
X121809558Y-99414482D01*
X121743373Y-99407963D01*
X121573534Y-99356443D01*
X121417009Y-99272778D01*
X121381271Y-99243448D01*
X121279814Y-99160186D01*
X121196552Y-99058729D01*
X121167222Y-99022991D01*
X121083557Y-98866466D01*
X121032037Y-98696627D01*
X121014641Y-98520000D01*
X121032037Y-98343373D01*
X121083557Y-98173534D01*
X121167222Y-98017009D01*
X121196552Y-97981271D01*
X121279814Y-97879814D01*
X121381271Y-97796552D01*
X121417009Y-97767222D01*
X121573534Y-97683557D01*
X121743373Y-97632037D01*
X121809558Y-97625518D01*
X121875740Y-97619000D01*
X121964260Y-97619000D01*
X122030442Y-97625518D01*
X122030442Y-97625518D01*
G37*
G36*
X119490442Y-97625518D02*
G01*
X119556627Y-97632037D01*
X119726466Y-97683557D01*
X119882991Y-97767222D01*
X119918729Y-97796552D01*
X120020186Y-97879814D01*
X120103448Y-97981271D01*
X120132778Y-98017009D01*
X120216443Y-98173534D01*
X120267963Y-98343373D01*
X120285359Y-98520000D01*
X120267963Y-98696627D01*
X120216443Y-98866466D01*
X120132778Y-99022991D01*
X120103448Y-99058729D01*
X120020186Y-99160186D01*
X119918729Y-99243448D01*
X119882991Y-99272778D01*
X119726466Y-99356443D01*
X119556627Y-99407963D01*
X119490443Y-99414481D01*
X119424260Y-99421000D01*
X119335740Y-99421000D01*
X119269558Y-99414482D01*
X119203373Y-99407963D01*
X119033534Y-99356443D01*
X118877009Y-99272778D01*
X118841271Y-99243448D01*
X118739814Y-99160186D01*
X118656552Y-99058729D01*
X118627222Y-99022991D01*
X118543557Y-98866466D01*
X118492037Y-98696627D01*
X118474641Y-98520000D01*
X118492037Y-98343373D01*
X118543557Y-98173534D01*
X118627222Y-98017009D01*
X118656552Y-97981271D01*
X118739814Y-97879814D01*
X118841271Y-97796552D01*
X118877009Y-97767222D01*
X119033534Y-97683557D01*
X119203373Y-97632037D01*
X119269558Y-97625518D01*
X119335740Y-97619000D01*
X119424260Y-97619000D01*
X119490442Y-97625518D01*
X119490442Y-97625518D01*
G37*
G36*
X105041000Y-99421000D02*
G01*
X103239000Y-99421000D01*
X103239000Y-97619000D01*
X105041000Y-97619000D01*
X105041000Y-99421000D01*
X105041000Y-99421000D01*
G37*
G36*
X106790442Y-97625518D02*
G01*
X106856627Y-97632037D01*
X107026466Y-97683557D01*
X107182991Y-97767222D01*
X107218729Y-97796552D01*
X107320186Y-97879814D01*
X107403448Y-97981271D01*
X107432778Y-98017009D01*
X107516443Y-98173534D01*
X107567963Y-98343373D01*
X107585359Y-98520000D01*
X107567963Y-98696627D01*
X107516443Y-98866466D01*
X107432778Y-99022991D01*
X107403448Y-99058729D01*
X107320186Y-99160186D01*
X107218729Y-99243448D01*
X107182991Y-99272778D01*
X107026466Y-99356443D01*
X106856627Y-99407963D01*
X106790443Y-99414481D01*
X106724260Y-99421000D01*
X106635740Y-99421000D01*
X106569558Y-99414482D01*
X106503373Y-99407963D01*
X106333534Y-99356443D01*
X106177009Y-99272778D01*
X106141271Y-99243448D01*
X106039814Y-99160186D01*
X105956552Y-99058729D01*
X105927222Y-99022991D01*
X105843557Y-98866466D01*
X105792037Y-98696627D01*
X105774641Y-98520000D01*
X105792037Y-98343373D01*
X105843557Y-98173534D01*
X105927222Y-98017009D01*
X105956552Y-97981271D01*
X106039814Y-97879814D01*
X106141271Y-97796552D01*
X106177009Y-97767222D01*
X106333534Y-97683557D01*
X106503373Y-97632037D01*
X106569558Y-97625518D01*
X106635740Y-97619000D01*
X106724260Y-97619000D01*
X106790442Y-97625518D01*
X106790442Y-97625518D01*
G37*
G36*
X109330442Y-97625518D02*
G01*
X109396627Y-97632037D01*
X109566466Y-97683557D01*
X109722991Y-97767222D01*
X109758729Y-97796552D01*
X109860186Y-97879814D01*
X109943448Y-97981271D01*
X109972778Y-98017009D01*
X110056443Y-98173534D01*
X110107963Y-98343373D01*
X110125359Y-98520000D01*
X110107963Y-98696627D01*
X110056443Y-98866466D01*
X109972778Y-99022991D01*
X109943448Y-99058729D01*
X109860186Y-99160186D01*
X109758729Y-99243448D01*
X109722991Y-99272778D01*
X109566466Y-99356443D01*
X109396627Y-99407963D01*
X109330443Y-99414481D01*
X109264260Y-99421000D01*
X109175740Y-99421000D01*
X109109558Y-99414482D01*
X109043373Y-99407963D01*
X108873534Y-99356443D01*
X108717009Y-99272778D01*
X108681271Y-99243448D01*
X108579814Y-99160186D01*
X108496552Y-99058729D01*
X108467222Y-99022991D01*
X108383557Y-98866466D01*
X108332037Y-98696627D01*
X108314641Y-98520000D01*
X108332037Y-98343373D01*
X108383557Y-98173534D01*
X108467222Y-98017009D01*
X108496552Y-97981271D01*
X108579814Y-97879814D01*
X108681271Y-97796552D01*
X108717009Y-97767222D01*
X108873534Y-97683557D01*
X109043373Y-97632037D01*
X109109558Y-97625518D01*
X109175740Y-97619000D01*
X109264260Y-97619000D01*
X109330442Y-97625518D01*
X109330442Y-97625518D01*
G37*
G36*
X111870442Y-97625518D02*
G01*
X111936627Y-97632037D01*
X112106466Y-97683557D01*
X112262991Y-97767222D01*
X112298729Y-97796552D01*
X112400186Y-97879814D01*
X112483448Y-97981271D01*
X112512778Y-98017009D01*
X112596443Y-98173534D01*
X112647963Y-98343373D01*
X112665359Y-98520000D01*
X112647963Y-98696627D01*
X112596443Y-98866466D01*
X112512778Y-99022991D01*
X112483448Y-99058729D01*
X112400186Y-99160186D01*
X112298729Y-99243448D01*
X112262991Y-99272778D01*
X112106466Y-99356443D01*
X111936627Y-99407963D01*
X111870443Y-99414481D01*
X111804260Y-99421000D01*
X111715740Y-99421000D01*
X111649558Y-99414482D01*
X111583373Y-99407963D01*
X111413534Y-99356443D01*
X111257009Y-99272778D01*
X111221271Y-99243448D01*
X111119814Y-99160186D01*
X111036552Y-99058729D01*
X111007222Y-99022991D01*
X110923557Y-98866466D01*
X110872037Y-98696627D01*
X110854641Y-98520000D01*
X110872037Y-98343373D01*
X110923557Y-98173534D01*
X111007222Y-98017009D01*
X111036552Y-97981271D01*
X111119814Y-97879814D01*
X111221271Y-97796552D01*
X111257009Y-97767222D01*
X111413534Y-97683557D01*
X111583373Y-97632037D01*
X111649558Y-97625518D01*
X111715740Y-97619000D01*
X111804260Y-97619000D01*
X111870442Y-97625518D01*
X111870442Y-97625518D01*
G37*
G36*
X116950442Y-97625518D02*
G01*
X117016627Y-97632037D01*
X117186466Y-97683557D01*
X117342991Y-97767222D01*
X117378729Y-97796552D01*
X117480186Y-97879814D01*
X117563448Y-97981271D01*
X117592778Y-98017009D01*
X117676443Y-98173534D01*
X117727963Y-98343373D01*
X117745359Y-98520000D01*
X117727963Y-98696627D01*
X117676443Y-98866466D01*
X117592778Y-99022991D01*
X117563448Y-99058729D01*
X117480186Y-99160186D01*
X117378729Y-99243448D01*
X117342991Y-99272778D01*
X117186466Y-99356443D01*
X117016627Y-99407963D01*
X116950443Y-99414481D01*
X116884260Y-99421000D01*
X116795740Y-99421000D01*
X116729558Y-99414482D01*
X116663373Y-99407963D01*
X116493534Y-99356443D01*
X116337009Y-99272778D01*
X116301271Y-99243448D01*
X116199814Y-99160186D01*
X116116552Y-99058729D01*
X116087222Y-99022991D01*
X116003557Y-98866466D01*
X115952037Y-98696627D01*
X115934641Y-98520000D01*
X115952037Y-98343373D01*
X116003557Y-98173534D01*
X116087222Y-98017009D01*
X116116552Y-97981271D01*
X116199814Y-97879814D01*
X116301271Y-97796552D01*
X116337009Y-97767222D01*
X116493534Y-97683557D01*
X116663373Y-97632037D01*
X116729558Y-97625518D01*
X116795740Y-97619000D01*
X116884260Y-97619000D01*
X116950442Y-97625518D01*
X116950442Y-97625518D01*
G37*
G36*
X132190442Y-97625518D02*
G01*
X132256627Y-97632037D01*
X132426466Y-97683557D01*
X132582991Y-97767222D01*
X132618729Y-97796552D01*
X132720186Y-97879814D01*
X132803448Y-97981271D01*
X132832778Y-98017009D01*
X132916443Y-98173534D01*
X132967963Y-98343373D01*
X132985359Y-98520000D01*
X132967963Y-98696627D01*
X132916443Y-98866466D01*
X132832778Y-99022991D01*
X132803448Y-99058729D01*
X132720186Y-99160186D01*
X132618729Y-99243448D01*
X132582991Y-99272778D01*
X132426466Y-99356443D01*
X132256627Y-99407963D01*
X132190443Y-99414481D01*
X132124260Y-99421000D01*
X132035740Y-99421000D01*
X131969558Y-99414482D01*
X131903373Y-99407963D01*
X131733534Y-99356443D01*
X131577009Y-99272778D01*
X131541271Y-99243448D01*
X131439814Y-99160186D01*
X131356552Y-99058729D01*
X131327222Y-99022991D01*
X131243557Y-98866466D01*
X131192037Y-98696627D01*
X131174641Y-98520000D01*
X131192037Y-98343373D01*
X131243557Y-98173534D01*
X131327222Y-98017009D01*
X131356552Y-97981271D01*
X131439814Y-97879814D01*
X131541271Y-97796552D01*
X131577009Y-97767222D01*
X131733534Y-97683557D01*
X131903373Y-97632037D01*
X131969558Y-97625518D01*
X132035740Y-97619000D01*
X132124260Y-97619000D01*
X132190442Y-97625518D01*
X132190442Y-97625518D01*
G37*
G36*
X134730442Y-97625518D02*
G01*
X134796627Y-97632037D01*
X134966466Y-97683557D01*
X135122991Y-97767222D01*
X135158729Y-97796552D01*
X135260186Y-97879814D01*
X135343448Y-97981271D01*
X135372778Y-98017009D01*
X135456443Y-98173534D01*
X135507963Y-98343373D01*
X135525359Y-98520000D01*
X135507963Y-98696627D01*
X135456443Y-98866466D01*
X135372778Y-99022991D01*
X135343448Y-99058729D01*
X135260186Y-99160186D01*
X135158729Y-99243448D01*
X135122991Y-99272778D01*
X134966466Y-99356443D01*
X134796627Y-99407963D01*
X134730443Y-99414481D01*
X134664260Y-99421000D01*
X134575740Y-99421000D01*
X134509558Y-99414482D01*
X134443373Y-99407963D01*
X134273534Y-99356443D01*
X134117009Y-99272778D01*
X134081271Y-99243448D01*
X133979814Y-99160186D01*
X133896552Y-99058729D01*
X133867222Y-99022991D01*
X133783557Y-98866466D01*
X133732037Y-98696627D01*
X133714641Y-98520000D01*
X133732037Y-98343373D01*
X133783557Y-98173534D01*
X133867222Y-98017009D01*
X133896552Y-97981271D01*
X133979814Y-97879814D01*
X134081271Y-97796552D01*
X134117009Y-97767222D01*
X134273534Y-97683557D01*
X134443373Y-97632037D01*
X134509558Y-97625518D01*
X134575740Y-97619000D01*
X134664260Y-97619000D01*
X134730442Y-97625518D01*
X134730442Y-97625518D01*
G37*
G36*
X137270442Y-97625518D02*
G01*
X137336627Y-97632037D01*
X137506466Y-97683557D01*
X137662991Y-97767222D01*
X137698729Y-97796552D01*
X137800186Y-97879814D01*
X137883448Y-97981271D01*
X137912778Y-98017009D01*
X137996443Y-98173534D01*
X138047963Y-98343373D01*
X138065359Y-98520000D01*
X138047963Y-98696627D01*
X137996443Y-98866466D01*
X137912778Y-99022991D01*
X137883448Y-99058729D01*
X137800186Y-99160186D01*
X137698729Y-99243448D01*
X137662991Y-99272778D01*
X137506466Y-99356443D01*
X137336627Y-99407963D01*
X137270443Y-99414481D01*
X137204260Y-99421000D01*
X137115740Y-99421000D01*
X137049558Y-99414482D01*
X136983373Y-99407963D01*
X136813534Y-99356443D01*
X136657009Y-99272778D01*
X136621271Y-99243448D01*
X136519814Y-99160186D01*
X136436552Y-99058729D01*
X136407222Y-99022991D01*
X136323557Y-98866466D01*
X136272037Y-98696627D01*
X136254641Y-98520000D01*
X136272037Y-98343373D01*
X136323557Y-98173534D01*
X136407222Y-98017009D01*
X136436552Y-97981271D01*
X136519814Y-97879814D01*
X136621271Y-97796552D01*
X136657009Y-97767222D01*
X136813534Y-97683557D01*
X136983373Y-97632037D01*
X137049558Y-97625518D01*
X137115740Y-97619000D01*
X137204260Y-97619000D01*
X137270442Y-97625518D01*
X137270442Y-97625518D01*
G37*
G36*
X139810442Y-97625518D02*
G01*
X139876627Y-97632037D01*
X140046466Y-97683557D01*
X140202991Y-97767222D01*
X140238729Y-97796552D01*
X140340186Y-97879814D01*
X140423448Y-97981271D01*
X140452778Y-98017009D01*
X140536443Y-98173534D01*
X140587963Y-98343373D01*
X140605359Y-98520000D01*
X140587963Y-98696627D01*
X140536443Y-98866466D01*
X140452778Y-99022991D01*
X140423448Y-99058729D01*
X140340186Y-99160186D01*
X140238729Y-99243448D01*
X140202991Y-99272778D01*
X140046466Y-99356443D01*
X139876627Y-99407963D01*
X139810443Y-99414481D01*
X139744260Y-99421000D01*
X139655740Y-99421000D01*
X139589558Y-99414482D01*
X139523373Y-99407963D01*
X139353534Y-99356443D01*
X139197009Y-99272778D01*
X139161271Y-99243448D01*
X139059814Y-99160186D01*
X138976552Y-99058729D01*
X138947222Y-99022991D01*
X138863557Y-98866466D01*
X138812037Y-98696627D01*
X138794641Y-98520000D01*
X138812037Y-98343373D01*
X138863557Y-98173534D01*
X138947222Y-98017009D01*
X138976552Y-97981271D01*
X139059814Y-97879814D01*
X139161271Y-97796552D01*
X139197009Y-97767222D01*
X139353534Y-97683557D01*
X139523373Y-97632037D01*
X139589558Y-97625518D01*
X139655740Y-97619000D01*
X139744260Y-97619000D01*
X139810442Y-97625518D01*
X139810442Y-97625518D01*
G37*
G36*
X142350442Y-97625518D02*
G01*
X142416627Y-97632037D01*
X142586466Y-97683557D01*
X142742991Y-97767222D01*
X142778729Y-97796552D01*
X142880186Y-97879814D01*
X142963448Y-97981271D01*
X142992778Y-98017009D01*
X143076443Y-98173534D01*
X143127963Y-98343373D01*
X143145359Y-98520000D01*
X143127963Y-98696627D01*
X143076443Y-98866466D01*
X142992778Y-99022991D01*
X142963448Y-99058729D01*
X142880186Y-99160186D01*
X142778729Y-99243448D01*
X142742991Y-99272778D01*
X142586466Y-99356443D01*
X142416627Y-99407963D01*
X142350443Y-99414481D01*
X142284260Y-99421000D01*
X142195740Y-99421000D01*
X142129558Y-99414482D01*
X142063373Y-99407963D01*
X141893534Y-99356443D01*
X141737009Y-99272778D01*
X141701271Y-99243448D01*
X141599814Y-99160186D01*
X141516552Y-99058729D01*
X141487222Y-99022991D01*
X141403557Y-98866466D01*
X141352037Y-98696627D01*
X141334641Y-98520000D01*
X141352037Y-98343373D01*
X141403557Y-98173534D01*
X141487222Y-98017009D01*
X141516552Y-97981271D01*
X141599814Y-97879814D01*
X141701271Y-97796552D01*
X141737009Y-97767222D01*
X141893534Y-97683557D01*
X142063373Y-97632037D01*
X142129558Y-97625518D01*
X142195740Y-97619000D01*
X142284260Y-97619000D01*
X142350442Y-97625518D01*
X142350442Y-97625518D01*
G37*
G36*
X144890442Y-97625518D02*
G01*
X144956627Y-97632037D01*
X145126466Y-97683557D01*
X145282991Y-97767222D01*
X145318729Y-97796552D01*
X145420186Y-97879814D01*
X145503448Y-97981271D01*
X145532778Y-98017009D01*
X145616443Y-98173534D01*
X145667963Y-98343373D01*
X145685359Y-98520000D01*
X145667963Y-98696627D01*
X145616443Y-98866466D01*
X145532778Y-99022991D01*
X145503448Y-99058729D01*
X145420186Y-99160186D01*
X145318729Y-99243448D01*
X145282991Y-99272778D01*
X145126466Y-99356443D01*
X144956627Y-99407963D01*
X144890443Y-99414481D01*
X144824260Y-99421000D01*
X144735740Y-99421000D01*
X144669558Y-99414482D01*
X144603373Y-99407963D01*
X144433534Y-99356443D01*
X144277009Y-99272778D01*
X144241271Y-99243448D01*
X144139814Y-99160186D01*
X144056552Y-99058729D01*
X144027222Y-99022991D01*
X143943557Y-98866466D01*
X143892037Y-98696627D01*
X143874641Y-98520000D01*
X143892037Y-98343373D01*
X143943557Y-98173534D01*
X144027222Y-98017009D01*
X144056552Y-97981271D01*
X144139814Y-97879814D01*
X144241271Y-97796552D01*
X144277009Y-97767222D01*
X144433534Y-97683557D01*
X144603373Y-97632037D01*
X144669558Y-97625518D01*
X144735740Y-97619000D01*
X144824260Y-97619000D01*
X144890442Y-97625518D01*
X144890442Y-97625518D01*
G37*
G36*
X149970442Y-97625518D02*
G01*
X150036627Y-97632037D01*
X150206466Y-97683557D01*
X150362991Y-97767222D01*
X150398729Y-97796552D01*
X150500186Y-97879814D01*
X150583448Y-97981271D01*
X150612778Y-98017009D01*
X150696443Y-98173534D01*
X150747963Y-98343373D01*
X150765359Y-98520000D01*
X150747963Y-98696627D01*
X150696443Y-98866466D01*
X150612778Y-99022991D01*
X150583448Y-99058729D01*
X150500186Y-99160186D01*
X150398729Y-99243448D01*
X150362991Y-99272778D01*
X150206466Y-99356443D01*
X150036627Y-99407963D01*
X149970443Y-99414481D01*
X149904260Y-99421000D01*
X149815740Y-99421000D01*
X149749558Y-99414482D01*
X149683373Y-99407963D01*
X149513534Y-99356443D01*
X149357009Y-99272778D01*
X149321271Y-99243448D01*
X149219814Y-99160186D01*
X149136552Y-99058729D01*
X149107222Y-99022991D01*
X149023557Y-98866466D01*
X148972037Y-98696627D01*
X148954641Y-98520000D01*
X148972037Y-98343373D01*
X149023557Y-98173534D01*
X149107222Y-98017009D01*
X149136552Y-97981271D01*
X149219814Y-97879814D01*
X149321271Y-97796552D01*
X149357009Y-97767222D01*
X149513534Y-97683557D01*
X149683373Y-97632037D01*
X149749558Y-97625518D01*
X149815740Y-97619000D01*
X149904260Y-97619000D01*
X149970442Y-97625518D01*
X149970442Y-97625518D01*
G37*
G36*
X147430442Y-97625518D02*
G01*
X147496627Y-97632037D01*
X147666466Y-97683557D01*
X147822991Y-97767222D01*
X147858729Y-97796552D01*
X147960186Y-97879814D01*
X148043448Y-97981271D01*
X148072778Y-98017009D01*
X148156443Y-98173534D01*
X148207963Y-98343373D01*
X148225359Y-98520000D01*
X148207963Y-98696627D01*
X148156443Y-98866466D01*
X148072778Y-99022991D01*
X148043448Y-99058729D01*
X147960186Y-99160186D01*
X147858729Y-99243448D01*
X147822991Y-99272778D01*
X147666466Y-99356443D01*
X147496627Y-99407963D01*
X147430443Y-99414481D01*
X147364260Y-99421000D01*
X147275740Y-99421000D01*
X147209558Y-99414482D01*
X147143373Y-99407963D01*
X146973534Y-99356443D01*
X146817009Y-99272778D01*
X146781271Y-99243448D01*
X146679814Y-99160186D01*
X146596552Y-99058729D01*
X146567222Y-99022991D01*
X146483557Y-98866466D01*
X146432037Y-98696627D01*
X146414641Y-98520000D01*
X146432037Y-98343373D01*
X146483557Y-98173534D01*
X146567222Y-98017009D01*
X146596552Y-97981271D01*
X146679814Y-97879814D01*
X146781271Y-97796552D01*
X146817009Y-97767222D01*
X146973534Y-97683557D01*
X147143373Y-97632037D01*
X147209558Y-97625518D01*
X147275740Y-97619000D01*
X147364260Y-97619000D01*
X147430442Y-97625518D01*
X147430442Y-97625518D01*
G37*
G36*
X129650442Y-97625518D02*
G01*
X129716627Y-97632037D01*
X129886466Y-97683557D01*
X130042991Y-97767222D01*
X130078729Y-97796552D01*
X130180186Y-97879814D01*
X130263448Y-97981271D01*
X130292778Y-98017009D01*
X130376443Y-98173534D01*
X130427963Y-98343373D01*
X130445359Y-98520000D01*
X130427963Y-98696627D01*
X130376443Y-98866466D01*
X130292778Y-99022991D01*
X130263448Y-99058729D01*
X130180186Y-99160186D01*
X130078729Y-99243448D01*
X130042991Y-99272778D01*
X129886466Y-99356443D01*
X129716627Y-99407963D01*
X129650443Y-99414481D01*
X129584260Y-99421000D01*
X129495740Y-99421000D01*
X129429558Y-99414482D01*
X129363373Y-99407963D01*
X129193534Y-99356443D01*
X129037009Y-99272778D01*
X129001271Y-99243448D01*
X128899814Y-99160186D01*
X128816552Y-99058729D01*
X128787222Y-99022991D01*
X128703557Y-98866466D01*
X128652037Y-98696627D01*
X128634641Y-98520000D01*
X128652037Y-98343373D01*
X128703557Y-98173534D01*
X128787222Y-98017009D01*
X128816552Y-97981271D01*
X128899814Y-97879814D01*
X129001271Y-97796552D01*
X129037009Y-97767222D01*
X129193534Y-97683557D01*
X129363373Y-97632037D01*
X129429558Y-97625518D01*
X129495740Y-97619000D01*
X129584260Y-97619000D01*
X129650442Y-97625518D01*
X129650442Y-97625518D01*
G37*
G36*
X114410442Y-97625518D02*
G01*
X114476627Y-97632037D01*
X114646466Y-97683557D01*
X114802991Y-97767222D01*
X114838729Y-97796552D01*
X114940186Y-97879814D01*
X115023448Y-97981271D01*
X115052778Y-98017009D01*
X115136443Y-98173534D01*
X115187963Y-98343373D01*
X115205359Y-98520000D01*
X115187963Y-98696627D01*
X115136443Y-98866466D01*
X115052778Y-99022991D01*
X115023448Y-99058729D01*
X114940186Y-99160186D01*
X114838729Y-99243448D01*
X114802991Y-99272778D01*
X114646466Y-99356443D01*
X114476627Y-99407963D01*
X114410443Y-99414481D01*
X114344260Y-99421000D01*
X114255740Y-99421000D01*
X114189558Y-99414482D01*
X114123373Y-99407963D01*
X113953534Y-99356443D01*
X113797009Y-99272778D01*
X113761271Y-99243448D01*
X113659814Y-99160186D01*
X113576552Y-99058729D01*
X113547222Y-99022991D01*
X113463557Y-98866466D01*
X113412037Y-98696627D01*
X113394641Y-98520000D01*
X113412037Y-98343373D01*
X113463557Y-98173534D01*
X113547222Y-98017009D01*
X113576552Y-97981271D01*
X113659814Y-97879814D01*
X113761271Y-97796552D01*
X113797009Y-97767222D01*
X113953534Y-97683557D01*
X114123373Y-97632037D01*
X114189558Y-97625518D01*
X114255740Y-97619000D01*
X114344260Y-97619000D01*
X114410442Y-97625518D01*
X114410442Y-97625518D01*
G37*
G36*
X93647585Y-92458802D02*
G01*
X93797410Y-92488604D01*
X94079674Y-92605521D01*
X94333705Y-92775259D01*
X94549741Y-92991295D01*
X94719479Y-93245326D01*
X94836396Y-93527590D01*
X94896000Y-93827240D01*
X94896000Y-94132760D01*
X94836396Y-94432410D01*
X94719479Y-94714674D01*
X94549741Y-94968705D01*
X94333705Y-95184741D01*
X94079674Y-95354479D01*
X93797410Y-95471396D01*
X93647585Y-95501198D01*
X93497761Y-95531000D01*
X93192239Y-95531000D01*
X93042415Y-95501198D01*
X92892590Y-95471396D01*
X92610326Y-95354479D01*
X92356295Y-95184741D01*
X92140259Y-94968705D01*
X91970521Y-94714674D01*
X91853604Y-94432410D01*
X91794000Y-94132760D01*
X91794000Y-93827240D01*
X91853604Y-93527590D01*
X91970521Y-93245326D01*
X92140259Y-92991295D01*
X92356295Y-92775259D01*
X92610326Y-92605521D01*
X92892590Y-92488604D01*
X93042415Y-92458802D01*
X93192239Y-92429000D01*
X93497761Y-92429000D01*
X93647585Y-92458802D01*
X93647585Y-92458802D01*
G37*
G36*
X93455443Y-83560519D02*
G01*
X93521627Y-83567037D01*
X93691466Y-83618557D01*
X93847991Y-83702222D01*
X93883729Y-83731552D01*
X93985186Y-83814814D01*
X94068448Y-83916271D01*
X94097778Y-83952009D01*
X94181443Y-84108534D01*
X94232963Y-84278373D01*
X94250359Y-84455000D01*
X94232963Y-84631627D01*
X94181443Y-84801466D01*
X94097778Y-84957991D01*
X94068448Y-84993729D01*
X93985186Y-85095186D01*
X93883729Y-85178448D01*
X93847991Y-85207778D01*
X93691466Y-85291443D01*
X93521627Y-85342963D01*
X93455442Y-85349482D01*
X93389260Y-85356000D01*
X93300740Y-85356000D01*
X93234558Y-85349482D01*
X93168373Y-85342963D01*
X92998534Y-85291443D01*
X92842009Y-85207778D01*
X92806271Y-85178448D01*
X92704814Y-85095186D01*
X92621552Y-84993729D01*
X92592222Y-84957991D01*
X92508557Y-84801466D01*
X92457037Y-84631627D01*
X92439641Y-84455000D01*
X92457037Y-84278373D01*
X92508557Y-84108534D01*
X92592222Y-83952009D01*
X92621552Y-83916271D01*
X92704814Y-83814814D01*
X92806271Y-83731552D01*
X92842009Y-83702222D01*
X92998534Y-83618557D01*
X93168373Y-83567037D01*
X93234557Y-83560519D01*
X93300740Y-83554000D01*
X93389260Y-83554000D01*
X93455443Y-83560519D01*
X93455443Y-83560519D01*
G37*
G36*
X93455442Y-81020518D02*
G01*
X93521627Y-81027037D01*
X93691466Y-81078557D01*
X93847991Y-81162222D01*
X93883729Y-81191552D01*
X93985186Y-81274814D01*
X94068448Y-81376271D01*
X94097778Y-81412009D01*
X94181443Y-81568534D01*
X94232963Y-81738373D01*
X94250359Y-81915000D01*
X94232963Y-82091627D01*
X94181443Y-82261466D01*
X94097778Y-82417991D01*
X94068448Y-82453729D01*
X93985186Y-82555186D01*
X93883729Y-82638448D01*
X93847991Y-82667778D01*
X93691466Y-82751443D01*
X93521627Y-82802963D01*
X93455442Y-82809482D01*
X93389260Y-82816000D01*
X93300740Y-82816000D01*
X93234558Y-82809482D01*
X93168373Y-82802963D01*
X92998534Y-82751443D01*
X92842009Y-82667778D01*
X92806271Y-82638448D01*
X92704814Y-82555186D01*
X92621552Y-82453729D01*
X92592222Y-82417991D01*
X92508557Y-82261466D01*
X92457037Y-82091627D01*
X92439641Y-81915000D01*
X92457037Y-81738373D01*
X92508557Y-81568534D01*
X92592222Y-81412009D01*
X92621552Y-81376271D01*
X92704814Y-81274814D01*
X92806271Y-81191552D01*
X92842009Y-81162222D01*
X92998534Y-81078557D01*
X93168373Y-81027037D01*
X93234558Y-81020518D01*
X93300740Y-81014000D01*
X93389260Y-81014000D01*
X93455442Y-81020518D01*
X93455442Y-81020518D01*
G37*
G36*
X94246000Y-80276000D02*
G01*
X92444000Y-80276000D01*
X92444000Y-78474000D01*
X94246000Y-78474000D01*
X94246000Y-80276000D01*
X94246000Y-80276000D01*
G37*
G36*
X93317589Y-71022048D02*
G01*
X93696671Y-71179069D01*
X94037835Y-71407028D01*
X94327972Y-71697165D01*
X94555931Y-72038329D01*
X94689095Y-72359814D01*
X94712952Y-72417412D01*
X94759920Y-72653534D01*
X94793000Y-72819842D01*
X94793000Y-73230158D01*
X94712952Y-73632589D01*
X94555931Y-74011671D01*
X94327972Y-74352835D01*
X94037835Y-74642972D01*
X93696671Y-74870931D01*
X93317589Y-75027952D01*
X93116373Y-75067976D01*
X92915159Y-75108000D01*
X92504841Y-75108000D01*
X92303627Y-75067976D01*
X92102411Y-75027952D01*
X91723329Y-74870931D01*
X91382165Y-74642972D01*
X91092028Y-74352835D01*
X90864069Y-74011671D01*
X90707048Y-73632589D01*
X90627000Y-73230158D01*
X90627000Y-72819842D01*
X90660081Y-72653534D01*
X90707048Y-72417412D01*
X90730906Y-72359814D01*
X90864069Y-72038329D01*
X91092028Y-71697165D01*
X91382165Y-71407028D01*
X91723329Y-71179069D01*
X92102411Y-71022048D01*
X92504841Y-70942000D01*
X92915159Y-70942000D01*
X93317589Y-71022048D01*
X93317589Y-71022048D01*
G37*
G36*
X156182589Y-71022048D02*
G01*
X156561671Y-71179069D01*
X156902835Y-71407028D01*
X157192972Y-71697165D01*
X157420931Y-72038329D01*
X157554095Y-72359814D01*
X157577952Y-72417412D01*
X157624920Y-72653534D01*
X157658000Y-72819842D01*
X157658000Y-73230158D01*
X157577952Y-73632589D01*
X157420931Y-74011671D01*
X157192972Y-74352835D01*
X156902835Y-74642972D01*
X156561671Y-74870931D01*
X156182589Y-75027952D01*
X155981373Y-75067976D01*
X155780159Y-75108000D01*
X155369841Y-75108000D01*
X155168627Y-75067976D01*
X154967411Y-75027952D01*
X154588329Y-74870931D01*
X154247165Y-74642972D01*
X153957028Y-74352835D01*
X153729069Y-74011671D01*
X153572048Y-73632589D01*
X153492000Y-73230158D01*
X153492000Y-72819842D01*
X153525081Y-72653534D01*
X153572048Y-72417412D01*
X153595906Y-72359814D01*
X153729069Y-72038329D01*
X153957028Y-71697165D01*
X154247165Y-71407028D01*
X154588329Y-71179069D01*
X154967411Y-71022048D01*
X155369841Y-70942000D01*
X155780159Y-70942000D01*
X156182589Y-71022048D01*
X156182589Y-71022048D01*
G37*
G36*
X129650443Y-72130519D02*
G01*
X129716627Y-72137037D01*
X129886466Y-72188557D01*
X130042991Y-72272222D01*
X130078729Y-72301552D01*
X130180186Y-72384814D01*
X130263448Y-72486271D01*
X130292778Y-72522009D01*
X130376443Y-72678534D01*
X130427963Y-72848373D01*
X130445359Y-73025000D01*
X130427963Y-73201627D01*
X130376443Y-73371466D01*
X130292778Y-73527991D01*
X130263448Y-73563729D01*
X130180186Y-73665186D01*
X130078729Y-73748448D01*
X130042991Y-73777778D01*
X129886466Y-73861443D01*
X129716627Y-73912963D01*
X129650443Y-73919481D01*
X129584260Y-73926000D01*
X129495740Y-73926000D01*
X129429557Y-73919481D01*
X129363373Y-73912963D01*
X129193534Y-73861443D01*
X129037009Y-73777778D01*
X129001271Y-73748448D01*
X128899814Y-73665186D01*
X128816552Y-73563729D01*
X128787222Y-73527991D01*
X128703557Y-73371466D01*
X128652037Y-73201627D01*
X128634641Y-73025000D01*
X128652037Y-72848373D01*
X128703557Y-72678534D01*
X128787222Y-72522009D01*
X128816552Y-72486271D01*
X128899814Y-72384814D01*
X129001271Y-72301552D01*
X129037009Y-72272222D01*
X129193534Y-72188557D01*
X129363373Y-72137037D01*
X129429557Y-72130519D01*
X129495740Y-72124000D01*
X129584260Y-72124000D01*
X129650443Y-72130519D01*
X129650443Y-72130519D01*
G37*
G36*
X137270443Y-72130519D02*
G01*
X137336627Y-72137037D01*
X137506466Y-72188557D01*
X137662991Y-72272222D01*
X137698729Y-72301552D01*
X137800186Y-72384814D01*
X137883448Y-72486271D01*
X137912778Y-72522009D01*
X137996443Y-72678534D01*
X138047963Y-72848373D01*
X138065359Y-73025000D01*
X138047963Y-73201627D01*
X137996443Y-73371466D01*
X137912778Y-73527991D01*
X137883448Y-73563729D01*
X137800186Y-73665186D01*
X137698729Y-73748448D01*
X137662991Y-73777778D01*
X137506466Y-73861443D01*
X137336627Y-73912963D01*
X137270443Y-73919481D01*
X137204260Y-73926000D01*
X137115740Y-73926000D01*
X137049557Y-73919481D01*
X136983373Y-73912963D01*
X136813534Y-73861443D01*
X136657009Y-73777778D01*
X136621271Y-73748448D01*
X136519814Y-73665186D01*
X136436552Y-73563729D01*
X136407222Y-73527991D01*
X136323557Y-73371466D01*
X136272037Y-73201627D01*
X136254641Y-73025000D01*
X136272037Y-72848373D01*
X136323557Y-72678534D01*
X136407222Y-72522009D01*
X136436552Y-72486271D01*
X136519814Y-72384814D01*
X136621271Y-72301552D01*
X136657009Y-72272222D01*
X136813534Y-72188557D01*
X136983373Y-72137037D01*
X137049557Y-72130519D01*
X137115740Y-72124000D01*
X137204260Y-72124000D01*
X137270443Y-72130519D01*
X137270443Y-72130519D01*
G37*
G36*
X127110443Y-72130519D02*
G01*
X127176627Y-72137037D01*
X127346466Y-72188557D01*
X127502991Y-72272222D01*
X127538729Y-72301552D01*
X127640186Y-72384814D01*
X127723448Y-72486271D01*
X127752778Y-72522009D01*
X127836443Y-72678534D01*
X127887963Y-72848373D01*
X127905359Y-73025000D01*
X127887963Y-73201627D01*
X127836443Y-73371466D01*
X127752778Y-73527991D01*
X127723448Y-73563729D01*
X127640186Y-73665186D01*
X127538729Y-73748448D01*
X127502991Y-73777778D01*
X127346466Y-73861443D01*
X127176627Y-73912963D01*
X127110443Y-73919481D01*
X127044260Y-73926000D01*
X126955740Y-73926000D01*
X126889557Y-73919481D01*
X126823373Y-73912963D01*
X126653534Y-73861443D01*
X126497009Y-73777778D01*
X126461271Y-73748448D01*
X126359814Y-73665186D01*
X126276552Y-73563729D01*
X126247222Y-73527991D01*
X126163557Y-73371466D01*
X126112037Y-73201627D01*
X126094641Y-73025000D01*
X126112037Y-72848373D01*
X126163557Y-72678534D01*
X126247222Y-72522009D01*
X126276552Y-72486271D01*
X126359814Y-72384814D01*
X126461271Y-72301552D01*
X126497009Y-72272222D01*
X126653534Y-72188557D01*
X126823373Y-72137037D01*
X126889557Y-72130519D01*
X126955740Y-72124000D01*
X127044260Y-72124000D01*
X127110443Y-72130519D01*
X127110443Y-72130519D01*
G37*
G36*
X124570443Y-72130519D02*
G01*
X124636627Y-72137037D01*
X124806466Y-72188557D01*
X124962991Y-72272222D01*
X124998729Y-72301552D01*
X125100186Y-72384814D01*
X125183448Y-72486271D01*
X125212778Y-72522009D01*
X125296443Y-72678534D01*
X125347963Y-72848373D01*
X125365359Y-73025000D01*
X125347963Y-73201627D01*
X125296443Y-73371466D01*
X125212778Y-73527991D01*
X125183448Y-73563729D01*
X125100186Y-73665186D01*
X124998729Y-73748448D01*
X124962991Y-73777778D01*
X124806466Y-73861443D01*
X124636627Y-73912963D01*
X124570443Y-73919481D01*
X124504260Y-73926000D01*
X124415740Y-73926000D01*
X124349557Y-73919481D01*
X124283373Y-73912963D01*
X124113534Y-73861443D01*
X123957009Y-73777778D01*
X123921271Y-73748448D01*
X123819814Y-73665186D01*
X123736552Y-73563729D01*
X123707222Y-73527991D01*
X123623557Y-73371466D01*
X123572037Y-73201627D01*
X123554641Y-73025000D01*
X123572037Y-72848373D01*
X123623557Y-72678534D01*
X123707222Y-72522009D01*
X123736552Y-72486271D01*
X123819814Y-72384814D01*
X123921271Y-72301552D01*
X123957009Y-72272222D01*
X124113534Y-72188557D01*
X124283373Y-72137037D01*
X124349557Y-72130519D01*
X124415740Y-72124000D01*
X124504260Y-72124000D01*
X124570443Y-72130519D01*
X124570443Y-72130519D01*
G37*
G36*
X122030443Y-72130519D02*
G01*
X122096627Y-72137037D01*
X122266466Y-72188557D01*
X122422991Y-72272222D01*
X122458729Y-72301552D01*
X122560186Y-72384814D01*
X122643448Y-72486271D01*
X122672778Y-72522009D01*
X122756443Y-72678534D01*
X122807963Y-72848373D01*
X122825359Y-73025000D01*
X122807963Y-73201627D01*
X122756443Y-73371466D01*
X122672778Y-73527991D01*
X122643448Y-73563729D01*
X122560186Y-73665186D01*
X122458729Y-73748448D01*
X122422991Y-73777778D01*
X122266466Y-73861443D01*
X122096627Y-73912963D01*
X122030443Y-73919481D01*
X121964260Y-73926000D01*
X121875740Y-73926000D01*
X121809557Y-73919481D01*
X121743373Y-73912963D01*
X121573534Y-73861443D01*
X121417009Y-73777778D01*
X121381271Y-73748448D01*
X121279814Y-73665186D01*
X121196552Y-73563729D01*
X121167222Y-73527991D01*
X121083557Y-73371466D01*
X121032037Y-73201627D01*
X121014641Y-73025000D01*
X121032037Y-72848373D01*
X121083557Y-72678534D01*
X121167222Y-72522009D01*
X121196552Y-72486271D01*
X121279814Y-72384814D01*
X121381271Y-72301552D01*
X121417009Y-72272222D01*
X121573534Y-72188557D01*
X121743373Y-72137037D01*
X121809557Y-72130519D01*
X121875740Y-72124000D01*
X121964260Y-72124000D01*
X122030443Y-72130519D01*
X122030443Y-72130519D01*
G37*
G36*
X105041000Y-73926000D02*
G01*
X103239000Y-73926000D01*
X103239000Y-72124000D01*
X105041000Y-72124000D01*
X105041000Y-73926000D01*
X105041000Y-73926000D01*
G37*
G36*
X106790443Y-72130519D02*
G01*
X106856627Y-72137037D01*
X107026466Y-72188557D01*
X107182991Y-72272222D01*
X107218729Y-72301552D01*
X107320186Y-72384814D01*
X107403448Y-72486271D01*
X107432778Y-72522009D01*
X107516443Y-72678534D01*
X107567963Y-72848373D01*
X107585359Y-73025000D01*
X107567963Y-73201627D01*
X107516443Y-73371466D01*
X107432778Y-73527991D01*
X107403448Y-73563729D01*
X107320186Y-73665186D01*
X107218729Y-73748448D01*
X107182991Y-73777778D01*
X107026466Y-73861443D01*
X106856627Y-73912963D01*
X106790443Y-73919481D01*
X106724260Y-73926000D01*
X106635740Y-73926000D01*
X106569557Y-73919481D01*
X106503373Y-73912963D01*
X106333534Y-73861443D01*
X106177009Y-73777778D01*
X106141271Y-73748448D01*
X106039814Y-73665186D01*
X105956552Y-73563729D01*
X105927222Y-73527991D01*
X105843557Y-73371466D01*
X105792037Y-73201627D01*
X105774641Y-73025000D01*
X105792037Y-72848373D01*
X105843557Y-72678534D01*
X105927222Y-72522009D01*
X105956552Y-72486271D01*
X106039814Y-72384814D01*
X106141271Y-72301552D01*
X106177009Y-72272222D01*
X106333534Y-72188557D01*
X106503373Y-72137037D01*
X106569557Y-72130519D01*
X106635740Y-72124000D01*
X106724260Y-72124000D01*
X106790443Y-72130519D01*
X106790443Y-72130519D01*
G37*
G36*
X109330443Y-72130519D02*
G01*
X109396627Y-72137037D01*
X109566466Y-72188557D01*
X109722991Y-72272222D01*
X109758729Y-72301552D01*
X109860186Y-72384814D01*
X109943448Y-72486271D01*
X109972778Y-72522009D01*
X110056443Y-72678534D01*
X110107963Y-72848373D01*
X110125359Y-73025000D01*
X110107963Y-73201627D01*
X110056443Y-73371466D01*
X109972778Y-73527991D01*
X109943448Y-73563729D01*
X109860186Y-73665186D01*
X109758729Y-73748448D01*
X109722991Y-73777778D01*
X109566466Y-73861443D01*
X109396627Y-73912963D01*
X109330443Y-73919481D01*
X109264260Y-73926000D01*
X109175740Y-73926000D01*
X109109557Y-73919481D01*
X109043373Y-73912963D01*
X108873534Y-73861443D01*
X108717009Y-73777778D01*
X108681271Y-73748448D01*
X108579814Y-73665186D01*
X108496552Y-73563729D01*
X108467222Y-73527991D01*
X108383557Y-73371466D01*
X108332037Y-73201627D01*
X108314641Y-73025000D01*
X108332037Y-72848373D01*
X108383557Y-72678534D01*
X108467222Y-72522009D01*
X108496552Y-72486271D01*
X108579814Y-72384814D01*
X108681271Y-72301552D01*
X108717009Y-72272222D01*
X108873534Y-72188557D01*
X109043373Y-72137037D01*
X109109557Y-72130519D01*
X109175740Y-72124000D01*
X109264260Y-72124000D01*
X109330443Y-72130519D01*
X109330443Y-72130519D01*
G37*
G36*
X111870443Y-72130519D02*
G01*
X111936627Y-72137037D01*
X112106466Y-72188557D01*
X112262991Y-72272222D01*
X112298729Y-72301552D01*
X112400186Y-72384814D01*
X112483448Y-72486271D01*
X112512778Y-72522009D01*
X112596443Y-72678534D01*
X112647963Y-72848373D01*
X112665359Y-73025000D01*
X112647963Y-73201627D01*
X112596443Y-73371466D01*
X112512778Y-73527991D01*
X112483448Y-73563729D01*
X112400186Y-73665186D01*
X112298729Y-73748448D01*
X112262991Y-73777778D01*
X112106466Y-73861443D01*
X111936627Y-73912963D01*
X111870443Y-73919481D01*
X111804260Y-73926000D01*
X111715740Y-73926000D01*
X111649557Y-73919481D01*
X111583373Y-73912963D01*
X111413534Y-73861443D01*
X111257009Y-73777778D01*
X111221271Y-73748448D01*
X111119814Y-73665186D01*
X111036552Y-73563729D01*
X111007222Y-73527991D01*
X110923557Y-73371466D01*
X110872037Y-73201627D01*
X110854641Y-73025000D01*
X110872037Y-72848373D01*
X110923557Y-72678534D01*
X111007222Y-72522009D01*
X111036552Y-72486271D01*
X111119814Y-72384814D01*
X111221271Y-72301552D01*
X111257009Y-72272222D01*
X111413534Y-72188557D01*
X111583373Y-72137037D01*
X111649557Y-72130519D01*
X111715740Y-72124000D01*
X111804260Y-72124000D01*
X111870443Y-72130519D01*
X111870443Y-72130519D01*
G37*
G36*
X114410443Y-72130519D02*
G01*
X114476627Y-72137037D01*
X114646466Y-72188557D01*
X114802991Y-72272222D01*
X114838729Y-72301552D01*
X114940186Y-72384814D01*
X115023448Y-72486271D01*
X115052778Y-72522009D01*
X115136443Y-72678534D01*
X115187963Y-72848373D01*
X115205359Y-73025000D01*
X115187963Y-73201627D01*
X115136443Y-73371466D01*
X115052778Y-73527991D01*
X115023448Y-73563729D01*
X114940186Y-73665186D01*
X114838729Y-73748448D01*
X114802991Y-73777778D01*
X114646466Y-73861443D01*
X114476627Y-73912963D01*
X114410443Y-73919481D01*
X114344260Y-73926000D01*
X114255740Y-73926000D01*
X114189557Y-73919481D01*
X114123373Y-73912963D01*
X113953534Y-73861443D01*
X113797009Y-73777778D01*
X113761271Y-73748448D01*
X113659814Y-73665186D01*
X113576552Y-73563729D01*
X113547222Y-73527991D01*
X113463557Y-73371466D01*
X113412037Y-73201627D01*
X113394641Y-73025000D01*
X113412037Y-72848373D01*
X113463557Y-72678534D01*
X113547222Y-72522009D01*
X113576552Y-72486271D01*
X113659814Y-72384814D01*
X113761271Y-72301552D01*
X113797009Y-72272222D01*
X113953534Y-72188557D01*
X114123373Y-72137037D01*
X114189557Y-72130519D01*
X114255740Y-72124000D01*
X114344260Y-72124000D01*
X114410443Y-72130519D01*
X114410443Y-72130519D01*
G37*
G36*
X116950443Y-72130519D02*
G01*
X117016627Y-72137037D01*
X117186466Y-72188557D01*
X117342991Y-72272222D01*
X117378729Y-72301552D01*
X117480186Y-72384814D01*
X117563448Y-72486271D01*
X117592778Y-72522009D01*
X117676443Y-72678534D01*
X117727963Y-72848373D01*
X117745359Y-73025000D01*
X117727963Y-73201627D01*
X117676443Y-73371466D01*
X117592778Y-73527991D01*
X117563448Y-73563729D01*
X117480186Y-73665186D01*
X117378729Y-73748448D01*
X117342991Y-73777778D01*
X117186466Y-73861443D01*
X117016627Y-73912963D01*
X116950443Y-73919481D01*
X116884260Y-73926000D01*
X116795740Y-73926000D01*
X116729557Y-73919481D01*
X116663373Y-73912963D01*
X116493534Y-73861443D01*
X116337009Y-73777778D01*
X116301271Y-73748448D01*
X116199814Y-73665186D01*
X116116552Y-73563729D01*
X116087222Y-73527991D01*
X116003557Y-73371466D01*
X115952037Y-73201627D01*
X115934641Y-73025000D01*
X115952037Y-72848373D01*
X116003557Y-72678534D01*
X116087222Y-72522009D01*
X116116552Y-72486271D01*
X116199814Y-72384814D01*
X116301271Y-72301552D01*
X116337009Y-72272222D01*
X116493534Y-72188557D01*
X116663373Y-72137037D01*
X116729557Y-72130519D01*
X116795740Y-72124000D01*
X116884260Y-72124000D01*
X116950443Y-72130519D01*
X116950443Y-72130519D01*
G37*
G36*
X119490443Y-72130519D02*
G01*
X119556627Y-72137037D01*
X119726466Y-72188557D01*
X119882991Y-72272222D01*
X119918729Y-72301552D01*
X120020186Y-72384814D01*
X120103448Y-72486271D01*
X120132778Y-72522009D01*
X120216443Y-72678534D01*
X120267963Y-72848373D01*
X120285359Y-73025000D01*
X120267963Y-73201627D01*
X120216443Y-73371466D01*
X120132778Y-73527991D01*
X120103448Y-73563729D01*
X120020186Y-73665186D01*
X119918729Y-73748448D01*
X119882991Y-73777778D01*
X119726466Y-73861443D01*
X119556627Y-73912963D01*
X119490443Y-73919481D01*
X119424260Y-73926000D01*
X119335740Y-73926000D01*
X119269557Y-73919481D01*
X119203373Y-73912963D01*
X119033534Y-73861443D01*
X118877009Y-73777778D01*
X118841271Y-73748448D01*
X118739814Y-73665186D01*
X118656552Y-73563729D01*
X118627222Y-73527991D01*
X118543557Y-73371466D01*
X118492037Y-73201627D01*
X118474641Y-73025000D01*
X118492037Y-72848373D01*
X118543557Y-72678534D01*
X118627222Y-72522009D01*
X118656552Y-72486271D01*
X118739814Y-72384814D01*
X118841271Y-72301552D01*
X118877009Y-72272222D01*
X119033534Y-72188557D01*
X119203373Y-72137037D01*
X119269557Y-72130519D01*
X119335740Y-72124000D01*
X119424260Y-72124000D01*
X119490443Y-72130519D01*
X119490443Y-72130519D01*
G37*
G36*
X149970443Y-72130519D02*
G01*
X150036627Y-72137037D01*
X150206466Y-72188557D01*
X150362991Y-72272222D01*
X150398729Y-72301552D01*
X150500186Y-72384814D01*
X150583448Y-72486271D01*
X150612778Y-72522009D01*
X150696443Y-72678534D01*
X150747963Y-72848373D01*
X150765359Y-73025000D01*
X150747963Y-73201627D01*
X150696443Y-73371466D01*
X150612778Y-73527991D01*
X150583448Y-73563729D01*
X150500186Y-73665186D01*
X150398729Y-73748448D01*
X150362991Y-73777778D01*
X150206466Y-73861443D01*
X150036627Y-73912963D01*
X149970443Y-73919481D01*
X149904260Y-73926000D01*
X149815740Y-73926000D01*
X149749557Y-73919481D01*
X149683373Y-73912963D01*
X149513534Y-73861443D01*
X149357009Y-73777778D01*
X149321271Y-73748448D01*
X149219814Y-73665186D01*
X149136552Y-73563729D01*
X149107222Y-73527991D01*
X149023557Y-73371466D01*
X148972037Y-73201627D01*
X148954641Y-73025000D01*
X148972037Y-72848373D01*
X149023557Y-72678534D01*
X149107222Y-72522009D01*
X149136552Y-72486271D01*
X149219814Y-72384814D01*
X149321271Y-72301552D01*
X149357009Y-72272222D01*
X149513534Y-72188557D01*
X149683373Y-72137037D01*
X149749557Y-72130519D01*
X149815740Y-72124000D01*
X149904260Y-72124000D01*
X149970443Y-72130519D01*
X149970443Y-72130519D01*
G37*
G36*
X147430443Y-72130519D02*
G01*
X147496627Y-72137037D01*
X147666466Y-72188557D01*
X147822991Y-72272222D01*
X147858729Y-72301552D01*
X147960186Y-72384814D01*
X148043448Y-72486271D01*
X148072778Y-72522009D01*
X148156443Y-72678534D01*
X148207963Y-72848373D01*
X148225359Y-73025000D01*
X148207963Y-73201627D01*
X148156443Y-73371466D01*
X148072778Y-73527991D01*
X148043448Y-73563729D01*
X147960186Y-73665186D01*
X147858729Y-73748448D01*
X147822991Y-73777778D01*
X147666466Y-73861443D01*
X147496627Y-73912963D01*
X147430443Y-73919481D01*
X147364260Y-73926000D01*
X147275740Y-73926000D01*
X147209557Y-73919481D01*
X147143373Y-73912963D01*
X146973534Y-73861443D01*
X146817009Y-73777778D01*
X146781271Y-73748448D01*
X146679814Y-73665186D01*
X146596552Y-73563729D01*
X146567222Y-73527991D01*
X146483557Y-73371466D01*
X146432037Y-73201627D01*
X146414641Y-73025000D01*
X146432037Y-72848373D01*
X146483557Y-72678534D01*
X146567222Y-72522009D01*
X146596552Y-72486271D01*
X146679814Y-72384814D01*
X146781271Y-72301552D01*
X146817009Y-72272222D01*
X146973534Y-72188557D01*
X147143373Y-72137037D01*
X147209557Y-72130519D01*
X147275740Y-72124000D01*
X147364260Y-72124000D01*
X147430443Y-72130519D01*
X147430443Y-72130519D01*
G37*
G36*
X144890443Y-72130519D02*
G01*
X144956627Y-72137037D01*
X145126466Y-72188557D01*
X145282991Y-72272222D01*
X145318729Y-72301552D01*
X145420186Y-72384814D01*
X145503448Y-72486271D01*
X145532778Y-72522009D01*
X145616443Y-72678534D01*
X145667963Y-72848373D01*
X145685359Y-73025000D01*
X145667963Y-73201627D01*
X145616443Y-73371466D01*
X145532778Y-73527991D01*
X145503448Y-73563729D01*
X145420186Y-73665186D01*
X145318729Y-73748448D01*
X145282991Y-73777778D01*
X145126466Y-73861443D01*
X144956627Y-73912963D01*
X144890443Y-73919481D01*
X144824260Y-73926000D01*
X144735740Y-73926000D01*
X144669557Y-73919481D01*
X144603373Y-73912963D01*
X144433534Y-73861443D01*
X144277009Y-73777778D01*
X144241271Y-73748448D01*
X144139814Y-73665186D01*
X144056552Y-73563729D01*
X144027222Y-73527991D01*
X143943557Y-73371466D01*
X143892037Y-73201627D01*
X143874641Y-73025000D01*
X143892037Y-72848373D01*
X143943557Y-72678534D01*
X144027222Y-72522009D01*
X144056552Y-72486271D01*
X144139814Y-72384814D01*
X144241271Y-72301552D01*
X144277009Y-72272222D01*
X144433534Y-72188557D01*
X144603373Y-72137037D01*
X144669557Y-72130519D01*
X144735740Y-72124000D01*
X144824260Y-72124000D01*
X144890443Y-72130519D01*
X144890443Y-72130519D01*
G37*
G36*
X142350443Y-72130519D02*
G01*
X142416627Y-72137037D01*
X142586466Y-72188557D01*
X142742991Y-72272222D01*
X142778729Y-72301552D01*
X142880186Y-72384814D01*
X142963448Y-72486271D01*
X142992778Y-72522009D01*
X143076443Y-72678534D01*
X143127963Y-72848373D01*
X143145359Y-73025000D01*
X143127963Y-73201627D01*
X143076443Y-73371466D01*
X142992778Y-73527991D01*
X142963448Y-73563729D01*
X142880186Y-73665186D01*
X142778729Y-73748448D01*
X142742991Y-73777778D01*
X142586466Y-73861443D01*
X142416627Y-73912963D01*
X142350443Y-73919481D01*
X142284260Y-73926000D01*
X142195740Y-73926000D01*
X142129557Y-73919481D01*
X142063373Y-73912963D01*
X141893534Y-73861443D01*
X141737009Y-73777778D01*
X141701271Y-73748448D01*
X141599814Y-73665186D01*
X141516552Y-73563729D01*
X141487222Y-73527991D01*
X141403557Y-73371466D01*
X141352037Y-73201627D01*
X141334641Y-73025000D01*
X141352037Y-72848373D01*
X141403557Y-72678534D01*
X141487222Y-72522009D01*
X141516552Y-72486271D01*
X141599814Y-72384814D01*
X141701271Y-72301552D01*
X141737009Y-72272222D01*
X141893534Y-72188557D01*
X142063373Y-72137037D01*
X142129557Y-72130519D01*
X142195740Y-72124000D01*
X142284260Y-72124000D01*
X142350443Y-72130519D01*
X142350443Y-72130519D01*
G37*
G36*
X139810443Y-72130519D02*
G01*
X139876627Y-72137037D01*
X140046466Y-72188557D01*
X140202991Y-72272222D01*
X140238729Y-72301552D01*
X140340186Y-72384814D01*
X140423448Y-72486271D01*
X140452778Y-72522009D01*
X140536443Y-72678534D01*
X140587963Y-72848373D01*
X140605359Y-73025000D01*
X140587963Y-73201627D01*
X140536443Y-73371466D01*
X140452778Y-73527991D01*
X140423448Y-73563729D01*
X140340186Y-73665186D01*
X140238729Y-73748448D01*
X140202991Y-73777778D01*
X140046466Y-73861443D01*
X139876627Y-73912963D01*
X139810443Y-73919481D01*
X139744260Y-73926000D01*
X139655740Y-73926000D01*
X139589557Y-73919481D01*
X139523373Y-73912963D01*
X139353534Y-73861443D01*
X139197009Y-73777778D01*
X139161271Y-73748448D01*
X139059814Y-73665186D01*
X138976552Y-73563729D01*
X138947222Y-73527991D01*
X138863557Y-73371466D01*
X138812037Y-73201627D01*
X138794641Y-73025000D01*
X138812037Y-72848373D01*
X138863557Y-72678534D01*
X138947222Y-72522009D01*
X138976552Y-72486271D01*
X139059814Y-72384814D01*
X139161271Y-72301552D01*
X139197009Y-72272222D01*
X139353534Y-72188557D01*
X139523373Y-72137037D01*
X139589557Y-72130519D01*
X139655740Y-72124000D01*
X139744260Y-72124000D01*
X139810443Y-72130519D01*
X139810443Y-72130519D01*
G37*
G36*
X134730443Y-72130519D02*
G01*
X134796627Y-72137037D01*
X134966466Y-72188557D01*
X135122991Y-72272222D01*
X135158729Y-72301552D01*
X135260186Y-72384814D01*
X135343448Y-72486271D01*
X135372778Y-72522009D01*
X135456443Y-72678534D01*
X135507963Y-72848373D01*
X135525359Y-73025000D01*
X135507963Y-73201627D01*
X135456443Y-73371466D01*
X135372778Y-73527991D01*
X135343448Y-73563729D01*
X135260186Y-73665186D01*
X135158729Y-73748448D01*
X135122991Y-73777778D01*
X134966466Y-73861443D01*
X134796627Y-73912963D01*
X134730443Y-73919481D01*
X134664260Y-73926000D01*
X134575740Y-73926000D01*
X134509557Y-73919481D01*
X134443373Y-73912963D01*
X134273534Y-73861443D01*
X134117009Y-73777778D01*
X134081271Y-73748448D01*
X133979814Y-73665186D01*
X133896552Y-73563729D01*
X133867222Y-73527991D01*
X133783557Y-73371466D01*
X133732037Y-73201627D01*
X133714641Y-73025000D01*
X133732037Y-72848373D01*
X133783557Y-72678534D01*
X133867222Y-72522009D01*
X133896552Y-72486271D01*
X133979814Y-72384814D01*
X134081271Y-72301552D01*
X134117009Y-72272222D01*
X134273534Y-72188557D01*
X134443373Y-72137037D01*
X134509557Y-72130519D01*
X134575740Y-72124000D01*
X134664260Y-72124000D01*
X134730443Y-72130519D01*
X134730443Y-72130519D01*
G37*
G36*
X132190442Y-72105518D02*
G01*
X132256627Y-72112037D01*
X132426466Y-72163557D01*
X132582991Y-72247222D01*
X132613452Y-72272221D01*
X132720186Y-72359814D01*
X132803448Y-72461271D01*
X132832778Y-72497009D01*
X132916443Y-72653534D01*
X132967963Y-72823373D01*
X132985359Y-73000000D01*
X132967963Y-73176627D01*
X132916443Y-73346466D01*
X132832778Y-73502991D01*
X132812261Y-73527991D01*
X132720186Y-73640186D01*
X132618729Y-73723448D01*
X132582991Y-73752778D01*
X132426466Y-73836443D01*
X132256627Y-73887963D01*
X132190443Y-73894481D01*
X132124260Y-73901000D01*
X132035740Y-73901000D01*
X131969557Y-73894481D01*
X131903373Y-73887963D01*
X131733534Y-73836443D01*
X131577009Y-73752778D01*
X131541271Y-73723448D01*
X131439814Y-73640186D01*
X131347739Y-73527991D01*
X131327222Y-73502991D01*
X131243557Y-73346466D01*
X131192037Y-73176627D01*
X131174641Y-73000000D01*
X131192037Y-72823373D01*
X131243557Y-72653534D01*
X131327222Y-72497009D01*
X131356552Y-72461271D01*
X131439814Y-72359814D01*
X131546548Y-72272221D01*
X131577009Y-72247222D01*
X131733534Y-72163557D01*
X131903373Y-72112037D01*
X131969558Y-72105518D01*
X132035740Y-72099000D01*
X132124260Y-72099000D01*
X132190442Y-72105518D01*
X132190442Y-72105518D01*
G37*
M02*
