M48
; DRILL file {KiCad (5.1.2)-2} date 10/27/2019 8:25:43 PM
; FORMAT={2:4/ absolute / inch / suppress leading zeros}
; #@! TF.CreationDate,2019-10-27T20:25:43-05:00
; #@! TF.GenerationSoftware,Kicad,Pcbnew,(5.1.2)-2
; #@! TF.FileFunction,Plated,1,2,PTH
FMAT,2
INCH,TZ
T1C0.0354
T2C0.0394
T3C0.0598
T4C0.0984
%
G90
G05
T1
X60500Y-41750
X60500Y-42750
X60500Y-44500
X60500Y-45500
T2
X45750Y-44250
X46750Y-44250
X47750Y-44250
X48750Y-44250
X49750Y-44250
X50750Y-44250
X51750Y-44250
X52750Y-44250
X53750Y-44250
X54750Y-44250
X41000Y-38787
X42000Y-38787
X43000Y-38787
X44000Y-38787
X45000Y-38787
X46000Y-38787
X47000Y-38787
X48000Y-38787
X49000Y-38787
X50000Y-38787
X51000Y-38787
X52000Y-38787
X53000Y-38787
X54000Y-38787
X55000Y-38787
X56000Y-38787
X57000Y-38787
X58000Y-38787
X59000Y-38787
X41000Y-28750
X42000Y-28750
X43000Y-28750
X44000Y-28750
X45000Y-28750
X46000Y-28750
X47000Y-28750
X48000Y-28750
X49000Y-28750
X50000Y-28750
X51000Y-28750
X52000Y-28740
X53000Y-28750
X54000Y-28750
X55000Y-28750
X56000Y-28750
X57000Y-28750
X58000Y-28750
X59000Y-28750
X36750Y-31250
X36750Y-32250
X36750Y-33250
T3
X36750Y-37000
X36750Y-39000
T4
X36500Y-46000
X61250Y-28750
X36500Y-28750
T0
M30
